<ttFont>
<head>
        <!-- Most of this table will be recalculated by the compiler -->
        <tableVersion value="1.0"/>
        <fontRevision value="1.002"/>
        <checkSumAdjustment value="0x1f09d9cf"/>
        <magicNumber value="0x5f0f3cf5"/>
        <flags value="00000000 00000011"/>
        <unitsPerEm value="1000"/>
        <created value="Fri Jan 15 17:36:11 2016"/>
        <modified value="Fri Jan 15 22:36:11 2016"/>
        <xMin value="-1780"/>
        <yMin value="-326"/>
        <xMax value="743"/>
        <yMax value="1276"/>
        <macStyle value="00000000 00000000"/>
        <lowestRecPPEM value="3"/>
        <fontDirectionHint value="2"/>
        <indexToLocFormat value="0"/>
        <glyphDataFormat value="0"/>
    </head>
                    <CharString index="0">
                        rmoveto
12 103 -245 5 -83 37 -13 112 rlinecurve
356 9 rlineto
192 20 -74 122 -155 hhcurveto
-145 -124 -130 -171 -179 93 -104 358 4 hvcurveto
-204 480 rmoveto
78 34 -54 -90 3 hvcurveto
-69 -1 -113 -4 -59 -1 rrcurveto
103 6 45 47 75 hhcurveto
endchar
                    </CharString>
                    <CharString index="1">
                        rmoveto
169 107 134 247 hvcurveto
220 -1 -87 122 -157 hhcurveto
-169 -107 -134 -248 -220 88 -121 157 hvcurveto
11 618 rmoveto
87 47 -89 -176 -167 -41 -82 -85 -86 -47 89 176 168 40 81 85 hvcurveto
endchar
                    </CharString>
                    <CharString index="2">
                        rmoveto
147 -20 callsubr
185 179 -97 101 -138 -147 -122 -126 -179 -180 97 -101 137 hvcurveto
22 100 rmoveto
-81 -50 69 134 122 49 61 74 80 52 -69 -133 -122 -49 -62 -75 hvcurveto
endchar
                    </CharString>
                    <CharString index="3">
                        -95 callgsubr
hintmask 01011111
142 -85 rmoveto
hintmask 00111111
-103 callsubr
hintmask 10011111
-90 69 -54 98 80 59 36 41 42 vhcurveto
hintmask 01011111
4 -27 5 -35 1 -5 rrcurveto
endchar
                    </CharString>
                    <CharString index="4">
                        113 7 rlineto
-5 76 -6 87 108 vvcurveto
216 -82 69 -333 5 vhcurveto
-12 -104 237 -7 62 -27 7 -106 rlinecurve
-234 9 -105 -89 -110 vvcurveto
return
                    </CharString>
                    <CharString index="5">
                        124 hlineto
15 130 23 262 15 296 rrcurveto
-119 hlineto
-3 -70 -13 -416 -4 -35 rrcurveto
-4 hlineto
-30 112 -24 91 -31 112 rrcurveto
-67 hlineto
-29 -111 -19 -84 -31 -120 rrcurveto
-4 hlineto
-4 35 -18 416 -3 70 rrcurveto
-123 hlineto
14 -296 22 -262 16 -130 rrcurveto
121 hlineto
86 332 rlineto
endchar
                    </CharString>
                    <CharString index="6">
                        rmoveto
147 91 96 159 hvcurveto
450 -127 -472 vlineto
-89 -32 -35 -70 -67 -42 43 99 vhcurveto
454 -127 -459 vlineto
-158 85 -88 142 vhcurveto
endchar
                    </CharString>
                    <CharString index="7">
                        rmoveto
99 83 63 92 129 -157 35 -108 -82 hvcurveto
15 66 53 39 140 45 -32 81 rcurveline
-184 -59 -88 -101 -127 vvcurveto
-118 73 -63 106 vhcurveto
9 77 rmoveto
-53 -42 35 78 -1 hvcurveto
93 48 85 -19 -70 vvcurveto
-46 -35 -26 -47 vhcurveto
endchar
                    </CharString>
                    <CharString index="8">
                        rmoveto
-61 45 -112 94 -62 61 -83 -100 rcurveline
77 -53 127 -67 79 -33 rrcurveto
return
                    </CharString>
                    <CharString index="9">
                        -4 -146 -5 -114 -5 -148 rrcurveto
-4 hlineto
-15 48 -53 156 -13 40 rrcurveto
-71 hlineto
-12 -40 -51 -153 -15 -49 rrcurveto
-5 hlineto
-6 149 -5 112 -5 145 rrcurveto
-119 hlineto
10 -209 24 -223 19 -120 rrcurveto
108 hlineto
87 276 rlineto
endchar
                    </CharString>
                    <CharString index="10">
                        rmoveto
185 59 88 101 127 vvcurveto
118 -74 63 -106 -98 -83 -63 -92 -130 155 -34 109 81 vhcurveto
-15 -65 -53 -39 -140 -45 rrcurveto
35 238 rmoveto
45 35 27 46 54 41 -34 -79 1 vhcurveto
-92 -49 -85 20 70 vvcurveto
endchar
                    </CharString>
                    <CharString index="11">
                        -153 589 rmoveto
9 hlineto
26 -99 25 -101 24 -101 rrcurveto
-160 hlineto
25 101 25 101 26 99 rrcurveto
endchar
                    </CharString>
                    <CharString index="12">
                        rmoveto
58 -37 62 58 71 84 42 64 rlinecurve
-117 55 -26 -65 -48 -97 -42 -62 rlinecurve
234 -2 rmoveto
58 -35 63 57 70 83 43 64 rlinecurve
-123 48 -25 -67 -45 -87 -41 -63 rlinecurve
return
                    </CharString>
                    <CharString index="13">
                        rmoveto
hintmask 0010101110000000
114 7 rlineto
-7 126 -2 174 248 vvcurveto
-123 hlineto
hintmask 1000011110000000
-90 callsubr
hintmask 1001001110000000
-88 callsubr
                    </CharString>
                    <CharString index="14">
                        rmoveto
75 72 -204 -70 callsubr
-7 hlineto
-202 -169 59 -58 138 113 rlineto
return
                    </CharString>
                    <CharString index="15">
                        4 callgsubr
-138 2 1 18 63 229 9 29 rlinecurve
-105 7 -36 -129 -18 -142 3 -92 rlinecurve
221 2 -1 -84 rlineto
91 hlineto
-1 83 rlineto
endchar
                    </CharString>
                    <CharString index="16">
                        rmoveto
-1 89 0 105 141 vvcurveto
-116 hlineto
-85 3 -100 2 -70 vhcurveto
-179 -3 -63 93 167 vvcurveto
142 44 100 282 -11 vhcurveto
-7 121 rlineto
-343 -10 -105 -162 -200 vvcurveto
-248 154 -141 329 72 vhcurveto
return
                    </CharString>
                    <CharString index="17">
                        -179 2 -142 2 -103 vhcurveto
-23 -34 -36 -15 -42 hhcurveto
-57 -35 31 99 hvcurveto
336 vlineto
return
                    </CharString>
                    <CharString index="18">
                        rmoveto
159 98 -444 -98 158 -492 -158 -98 441 hlineto
9 98 rlineto
-165 hlineto
endchar
                    </CharString>
                    <CharString index="19">
                        -123 -7 rlineto
-373 vlineto
-135 61 -55 97 76 56 35 39 44 vhcurveto
endchar
                    </CharString>
                    <CharString index="20">
                        -51 123 -59 166 -45 123 -125 -9 rcurveline
42 -110 115 -293 51 -117 21 -8 rcurveline
-31 -75 -35 -13 -132 -18 rrcurveto
endchar
                    </CharString>
                    <CharString index="21">
                        -289 20 -103 -91 -95 -139 296 -20 -79 vvcurveto
-43 -68 -26 -221 15 vhcurveto
-4 -106 rlineto
318 -14 103 85 96 139 -297 31 75 vvcurveto
40 63 24 206 -18 vhcurveto
return
                    </CharString>
                    <CharString index="22">
                        rmoveto
170 42 80 86 33 28 -13 -26 22 vhcurveto
-194 -364 rlineto
-11 41 -6 50 62 vvcurveto
136 -266 rmoveto
-34 -28 13 26 -21 hvcurveto
194 364 rlineto
11 -41 6 -50 -62 vvcurveto
-170 -42 -80 -86 vhcurveto
-19 -103 rmoveto
169 107 134 247 hvcurveto
hintmask 10011100
110 -22 85 -42 58 vhcurveto
42 79 rlineto
hintmask 01101100
-78 40 -30 -58 rlineto
18 -32 -39 10 -44 hhcurveto
-169 -107 -134 -248 -111 22 -86 43 -58 hvcurveto
-42 -76 rlineto
hintmask 10101100
78 -41 30 58 rlineto
-18 33 38 -9 43 hhcurveto
endchar
                    </CharString>
                    <CharString index="23">
                        -263 -13 -75 79 181 vvcurveto
150 48 81 283 -5 vhcurveto
-7 121 rlineto
-341 -7 -114 -165 -192 vvcurveto
return
                    </CharString>
                    <CharString index="24">
                        -249 -14 -77 58 142 vvcurveto
107 42 63 276 -9 vhcurveto
-8 117 rlineto
-330 -2 -102 -138 -154 vvcurveto
return
                    </CharString>
                    <CharString index="25">
                        61 27 35 35 49 vvcurveto
68 -71 43 -93 -115 -61 -64 -58 return
                    </CharString>
                    <CharString index="26">
                        -9 105 -75 -21 304 87 200 -40 callgsubr
hintmask 10101110
-3 callsubr
-298 -70 -87 70 vlineto
hintmask 01101110
-304 vlineto
hintmask 10101110
331 -47 149 136 268 vvcurveto
-356 -257 rmoveto
204 117 vlineto
5 87 rlineto
-122 hlineto
hintmask 10110110
200 vlineto
171 19 57 -86 -185 vvcurveto
hintmask 10101110
-184 -59 -80 -169 25 vhcurveto
endchar
                    </CharString>
                    <CharString index="27">
                        rmoveto
41 98 rlineto
-179 53 -83 41 55 vvcurveto
hintmask 10010000
59 95 46 70 vvcurveto
43 -34 44 -91 24 vhcurveto
hintmask 10001000
91 29 34 45 41 vvcurveto
hintmask 11000000
63 -101 54 51 vvcurveto
44 83 39 187 51 vhcurveto
-39 100 rlineto
-262 -83 -88 -81 -80 vvcurveto
hintmask 10001000
1 -84 110 -46 -46 vvcurveto
-30 -38 -19 -127 -13 vhcurveto
-4 -87 rlineto
hintmask 10010000
110 -9 51 -29 -39 vvcurveto
hintmask 10100000
-50 -101 -48 -88 vvcurveto
-84 85 -51 259 -83 vhcurveto
endchar
                    </CharString>
                    <CharString index="28">
                        -105 -14 -79 -46 -50 -57 rrcurveto
-2 26 -7 64 5 vvcurveto
-229 hlineto
-10 -87 131 -8 3 -99 1 -115 2 -151 rlinecurve
-135 -92 hlineto
return
                    </CharString>
                    <CharString index="29">
                        17 -21 25 12 callgsubr
188 92 301 104 return
                    </CharString>
                    <CharString index="30">
                        rmoveto
57 36 -31 -98 hvcurveto
-333 123 376 vlineto
135 -62 56 -97 -76 -57 -35 -40 -44 vhcurveto
return
                    </CharString>
                    <CharString index="31">
                        rmoveto
13 101 rlineto
-168 3 -53 20 87 vvcurveto
256 209 93 -209 160 vlineto
-122 -11 rlineto
-149 -102 vlineto
-11 -93 rlineto
113 -275 hlineto
-142 81 -55 249 5 vhcurveto
return
                    </CharString>
                    <CharString index="32">
                        125 121.5 125 return
                    </CharString>
                    <CharString index="33">
                        9 109 -328 -4 317 345 rlineto
102 -448 vlineto
-10 -108 318 3 -318 -344 rlineto
-103 vlineto
endchar
                    </CharString>
                    <CharString index="34">
                        rmoveto
477 79 -477 hlineto
return
                    </CharString>
                    <CharString index="35">
                        rmoveto
6 hlineto
hintmask 11111000
-307 -92 vlineto
hintmask 10111000
29 103 30 103 27 101 rrcurveto
6 -583 rmoveto
283 hlineto
8 106 rlineto
-186 194 147 93 -147 190 180 105 -366 hlineto
-69 -227 -75 -233 -65 -228 rrcurveto
121 hlineto
hintmask 11111000
16 61 17 61 17 61 rrcurveto
119 hlineto
endchar
                    </CharString>
                    <CharString index="36">
                        -110 9 -52 29 39 vvcurveto
hintmask 10001000
49 101 49 88 vvcurveto
84 -85 51 -258 83 vhcurveto
-41 -98 rlineto
179 -53 82 -41 -55 vvcurveto
hintmask 10010000
-59 -95 -46 -70 vvcurveto
-43 34 -44 93 -24 vhcurveto
hintmask 10100000
-92 -28 -35 -46 -42 vvcurveto
hintmask 10000100
-63 102 -53 -51 vvcurveto
-44 -84 -39 -186 -51 vhcurveto
endchar
                    </CharString>
                    <CharString index="37">
                        156 rlineto
return
                    </CharString>
                    <CharString index="38">
                        -61 callsubr
-410 -318 -73 callsubr
return
                    </CharString>
                    <CharString index="39">
                        66 -34 32 -28 -22 vvcurveto
-21 -35 -14 -87 -10 vhcurveto
8 -94 rlineto
149 14 75 49 61 vvcurveto
return
                    </CharString>
                    <CharString index="40">
                        81 216.5 154 return
                    </CharString>
                    <CharString index="41">
                        -82 callsubr
-43 callgsubr
return
                    </CharString>
                    <CharString index="42">
                        -114 -6 rlineto
7 -126 2 -175 -248 vvcurveto
123 hlineto
return
                    </CharString>
                    <CharString index="43">
                        142 83 137.5 89.5 return
                    </CharString>
                    <CharString index="44">
                        -20 callgsubr
-67 callgsubr
484 return
                    </CharString>
                    <CharString index="45">
                        -17 109 596 -20 hstem
80 127 211 26 callsubr
return
                    </CharString>
                    <CharString index="46">
                        484 617 -106 callgsubr
return
                    </CharString>
                    <CharString index="47">
                        rmoveto
185 238 6 121 -186 236 -88 -70 182 -230 -186 -223 rlineto
-184 -72 rmoveto
184 238 6 121 -186 236 -88 -70 183 -229 -187 -224 rlineto
endchar
                    </CharString>
                    <CharString index="48">
                        15 callsubr
hstem
52 131 259 131 vstem
return
                    </CharString>
                    <CharString index="49">
                        80 301 79 hstem
118 98 192 97 vstem
304 return
                    </CharString>
                    <CharString index="50">
                        -14 99 518 100 hstem
61 117 268 117 vstem
304 -14 rmoveto
160 99 147 222 217 -81 131 -161 -160 -100 -148 -222 -216 81 -131 162 hvcurveto
return
                    </CharString>
                    <CharString index="51">
                        hstemhm
134 95 -87 97 151 92 -89 98 return
                    </CharString>
                    <CharString index="52">
                        rmoveto
-236 -201 -93 -162 -161 vvcurveto
-158 91 -159 233 -200 vhcurveto
85 76 rlineto
-214 174 -74 136 136 vvcurveto
135 72 133 219 177 vhcurveto
endchar
                    </CharString>
                    <CharString index="53">
                        -9 callsubr
200 123 return
                    </CharString>
                    <CharString index="54">
                        -82 callsubr
vhcurveto
hintmask 1101111010100000
-43 callgsubr
hintmask 1011111100100000
-65 -26 -37 -38 -51 vvcurveto
hintmask 1011111100010000
-66 64 -47 105 vhcurveto
return
                    </CharString>
                    <CharString index="55">
                        0 92 592 92 -88 -20 hstemhm
255 123 return
                    </CharString>
                    <CharString index="56">
                        -67 callsubr
hstem
284 94 vstem
491 return
                    </CharString>
                    <CharString index="57">
                        -34 callsubr
23 -20 hstemhm
249 128 hintmask 10110000
return
                    </CharString>
                    <CharString index="58">
                        -65 -26 -37 -38 -51 vvcurveto
-66 64 -47 105 vhcurveto
return
                    </CharString>
                    <CharString index="59">
                        2 callgsubr
391 94 vstem
158 return
                    </CharString>
                    <CharString index="60">
                        hstem
61 125 255 124 vstem
return
                    </CharString>
                    <CharString index="61">
                        71 318 -40 callsubr
hintmask 11100100
303 return
                    </CharString>
                    <CharString index="62">
                        363 -94 rmoveto
9 101 -189 3 -30 36 -1 111 rlinecurve
228 5 rlineto
196 13 -52 116 -110 hhcurveto
-59 -45 -29 -54 -30 hvcurveto
return
                    </CharString>
                    <CharString index="63">
                        11 92 rlineto
-172 684 -278 hlineto
return
                    </CharString>
                    <CharString index="64">
                        hintmask 11010000
539 hmoveto
-32 callsubr
return
                    </CharString>
                    <CharString index="65">
                        84 hstemhm
145 348 -100 100 hintmask 11000000
296 return
                    </CharString>
                    <CharString index="66">
                        11 106 rlineto
-311 582 -128 -688 hlineto
return
                    </CharString>
                    <CharString index="67">
                        71 -56 callsubr
return
                    </CharString>
                    <CharString index="68">
                        rmoveto
-77 -54 59 132 121 59 63 85 24 26 -5 -9 28 hvcurveto
1 -134 1 -107 2 -86 rrcurveto
-21 -27 -31 -13 -37 hhcurveto
return
                    </CharString>
                    <CharString index="69">
                        -8 110 482 110 hstem
93 132 190 131 vstem
return
                    </CharString>
                    <CharString index="70">
                        rmoveto
199 19 59 52 79 222 return
                    </CharString>
                    <CharString index="71">
                        79 94 -67 callsubr
hstemhm
return
                    </CharString>
                    <CharString index="72">
                        0 98 492 98 -21 callgsubr
return
                    </CharString>
                    <CharString index="73">
                        21 -21 688 -20 return
                    </CharString>
                    <CharString index="74">
                        -70 46 -40 -57 rlineto
20 -34 -40 11 -45 hhcurveto
-147 -122 -126 -179 -82 20 -65 35 -48 hvcurveto
-47 -65 rlineto
return
                    </CharString>
                    <CharString index="75">
                        -44 callsubr
hintmask 10110000
-10 -88 25 callgsubr
-44 callgsubr
return
                    </CharString>
                    <CharString index="76">
                        -208 103 -159 356 29 vhcurveto
endchar
                    </CharString>
                    <CharString index="77">
                        0 -22 callsubr
return
                    </CharString>
                    <CharString index="78">
                        -17 100 386 100 return
                    </CharString>
                    <CharString index="79">
                        rmoveto
260 239 8 120 -260 237 -82 -86 243 -213 -250 -211 rlineto
endchar
                    </CharString>
                    <CharString index="80">
                        rmoveto
0 9 7 6 9 9 7 -6 0 hflex1
0 -9 -7 -7 -9 -9 -7 6 0 hflex1
return
                    </CharString>
                    <CharString index="81">
                        -174 -21 244 96 317 104 return
                    </CharString>
                    <CharString index="82">
                        43 53 -96 71 hhcurveto
return
                    </CharString>
                    <CharString index="83">
                        -90 69 -54 98 80 59 36 41 42 vhcurveto
hintmask 0101110110000000
4 -27 5 -35 1 -5 rrcurveto
endchar
                    </CharString>
                    <CharString index="84">
                        hmoveto
6 163 rlineto
-127 hlineto
-6 -163 rlineto
return
                    </CharString>
                    <CharString index="85">
                        106 194 3 callgsubr
return
                    </CharString>
                    <CharString index="86">
                        hstem
275 124 vstem
return
                    </CharString>
                    <CharString index="87">
                        123 121 return
                    </CharString>
                    <CharString index="88">
                        -60 -199 rlineto
-3 hlineto
-62 199 rlineto
-79 -370 71 hlineto
-1 250 rlineto
3 hlineto
return
                    </CharString>
                    <CharString index="89">
                        -34 callsubr
hstem
-27 callgsubr
vstem
return
                    </CharString>
                    <CharString index="90">
                        0 106 582 -20 hstem
122 128 vstem
return
                    </CharString>
                    <CharString index="91">
                        1 callgsubr
94 79 return
                    </CharString>
                    <CharString index="92">
                        hstemhm
93 123 202 123 return
                    </CharString>
                    <CharString index="93">
                        hstemhm
37 551 return
                    </CharString>
                    <CharString index="94">
                        -17 103 -72 -21 609 104 -10 -20 hstemhm
52 128 264 129 hintmask 10101100
return
                    </CharString>
                    <CharString index="95">
                        rmoveto
39 14 -47 -93 1 hvcurveto
-31 -49 -1 -1 -37 hvcurveto
104 3 17 38 43 hhcurveto
return
                    </CharString>
                    <CharString index="96">
                        rmoveto
-7 -98 rlineto
375 974 -371 -98 254 -778 hlineto
endchar
                    </CharString>
                    <CharString index="97">
                        hstemhm
72 123 return
                    </CharString>
                    <CharString index="98">
                        hstemhm
86 123 return
                    </CharString>
                    <CharString index="99">
                        rmoveto
-65 callgsubr
return
                    </CharString>
                    <CharString index="100">
                        hintmask 000000000000000100000010000000000000000000000000
return
                    </CharString>
                    <CharString index="101">
                        -6 102 362 100 -100 103 return
                    </CharString>
                    <CharString index="102">
                        150 125 132 209 209 -118 122 -151 return
                    </CharString>
                    <CharString index="103">
                        396 635 rmoveto
9 -70 callsubr
-129 hlineto
-8 -156 rlineto
return
                    </CharString>
                    <CharString index="104">
                        571 357 -35 callgsubr
return
                    </CharString>
                    <CharString index="105">
                        -52 callsubr
hintmask 11010000
return
                    </CharString>
                    <CharString index="106">
                        131 16 -192 284 63 81 59 87 55 86 rlinecurve
return
                    </CharString>
                    <CharString index="107">
                        -8 101 366 93 149 -20 return
                    </CharString>
                    <CharString index="108">
                        -10 99 488 121 return
                    </CharString>
                    <CharString index="109">
                        -172 -21 32 -21 return
                    </CharString>
                    <CharString index="110">
                        -20 23 -20 return
                    </CharString>
                    <CharString index="111">
                        rmoveto
11 96 rlineto
-89 8 -33 17 25 vvcurveto
25 31 32 return
                    </CharString>
                    <CharString index="112">
                        105 375 101 19 callgsubr
94 123 return
                    </CharString>
                    <CharString index="113">
                        98 778 98 hstem
150 118 vstem
150 return
                    </CharString>
                    <CharString index="114">
                        128.5 -125.5 124 return
                    </CharString>
                    <CharString index="115">
                        -6 2 -3 5 4 2 2 4 1 vhcurveto
5 hlineto
return
                    </CharString>
                    <CharString index="116">
                        hintmask 010000000000000000000000000000000000000000000000
return
                    </CharString>
                    <CharString index="117">
                        hstemhm
61 122 return
                    </CharString>
                    <CharString index="118">
                        rlineto
224 return
                    </CharString>
                    <CharString index="119">
                        23 callgsubr
hintmask 01111100
return
                    </CharString>
                    <CharString index="120">
                        70.5 140.5 72 return
                    </CharString>
                    <CharString index="121">
                        98 778 98 hstem
358 117 vstem
107 return
                    </CharString>
                    <CharString index="122">
                        -17 104 514 105 return
                    </CharString>
                    <CharString index="123">
                        hstemhm
37 113 105 102 117 111 return
                    </CharString>
                    <CharString index="124">
                        -180 3 2 166 -117 1 rlineto
return
                    </CharString>
                    <CharString index="125">
                        41 -50 79 -27 150 2 rrcurveto
endchar
                    </CharString>
                    <CharString index="126">
                        155 -8 callgsubr
return
                    </CharString>
                    <CharString index="127">
                        hstemhm
75 131 return
                    </CharString>
                    <CharString index="128">
                        -12 -20 32 -20 return
                    </CharString>
                    <CharString index="129">
                        81 -20 64 -34 47 vhcurveto
48 68 rlineto
return
                    </CharString>
                    <CharString index="130">
                        hstem
62 129 237 116 vstem
return
                    </CharString>
                    <CharString index="131">
                        -17 99 -78 -21 487 99 -20 -20 return
                    </CharString>
                    <CharString index="132">
                        -155 rlineto
endchar
                    </CharString>
                    <CharString index="133">
                        127 vstem
return
                    </CharString>
                    <CharString index="134">
                        hstem
136 349 vstem
217 return
                    </CharString>
                <CharString name=".notdef">
                    443 -200 50 900 50 hstem
5 54 432 54 vstem
5 -200 rmoveto
540 1000 -540 hlineto
77 -50 rmoveto
386 hlineto
-193 -390 rlineto
216 316 rmoveto
-752 vlineto
-186 376 rlineto
-246 -376 rmoveto
752 vlineto
186 -376 rlineto
30 -60 rmoveto
193 -390 rlineto
-386 hlineto
endchar
                </CharString>
                <CharString name="A">
                    -78 callsubr
-14 callsubr
hintmask 10011100
460 -4 -102 callgsubr
                </CharString>
                <CharString name="AE">
                    -3 callgsubr
288 583 -72 callsubr
                </CharString>
                <CharString name="AEacute">
                    -3 callgsubr
232 810 -107 callgsubr
56 -227 -72 callsubr
                </CharString>
                <CharString name="Aacute">
                    -78 callsubr
-14 callsubr
hintmask 00111100
179 810 -107 callgsubr
hintmask 10011100
281 -814 -102 callgsubr
                </CharString>
                <CharString name="Abreve">
                    -78 callsubr
73 98 -14 callsubr
hintmask 00111110
312 762 -104 callgsubr
hintmask 10011110
148 -766 rmoveto
hintmask 00111110
128 8 -59 229 -60 227 -68 229 rlinecurve
-176 hlineto
hintmask 01011110
-96 callgsubr
hintmask 10011110
16 -66 16 -65 15 -65 rrcurveto
hintmask 00111110
-96 callsubr
                </CharString>
                <CharString name="Acircumflex">
                    -78 callsubr
-14 callsubr
hintmask 00111100
442 758 -93 callsubr
hintmask 10011100
159 -876 -102 callgsubr
                </CharString>
                <CharString name="Adieresis">
                    -78 callsubr
82 -28 callgsubr
126.5 -75 callsubr
hintmask 00111111
496 771 -103 callgsubr
hintmask 10011111
334 -775 rmoveto
hintmask 00111111
128 8 -59 229 -60 227 -68 229 rlinecurve
-176 hlineto
hintmask 01011111
-96 callgsubr
hintmask 10011111
16 -66 16 -65 15 -65 rrcurveto
hintmask 00111111
-96 callsubr
                </CharString>
                <CharString name="Agrave">
                    -78 callsubr
-14 callsubr
hintmask 00111100
436 806 -99 callsubr
hintmask 10011100
59 -757 -102 callgsubr
                </CharString>
                <CharString name="Amacron">
                    -78 callsubr
109 105 -14 callsubr
hintmask 00111110
503 903 -63 callgsubr
hintmask 10011110
-43 -802 rmoveto
hintmask 00111110
128 8 -59 229 -60 227 -68 229 rlinecurve
-176 hlineto
hintmask 01011110
-96 callgsubr
hintmask 10011110
16 -66 16 -65 15 -65 rrcurveto
hintmask 00111110
-96 callsubr
                </CharString>
                <CharString name="Aogonek">
                    -244 96 169 -21 24 -21 22 -21 188 92 301 104 -14 callsubr
-251 116 hintmask 10011101
564 -244 4 callsubr
104 45 vhcurveto
-59 229 -60 227 -68 229 rrcurveto
-176 hlineto
hintmask 01001110
-96 callgsubr
hintmask 00101101
15 -63 16 -63 14 -63 rrcurveto
-85 -49 -36 -44 -42 vvcurveto
hintmask 10011101
-58 62 -46 165 -8 vhcurveto
-257 829 rmoveto
9 hlineto
hintmask 00011101
26 -99 25 -101 24 -101 rrcurveto
-160 hlineto
hintmask 10011101
25 101 25 101 26 99 rrcurveto
endchar
                </CharString>
                <CharString name="Aring">
                    -78 callsubr
59 241 -14 callsubr
hintmask 00111110
310 989 -83 callgsubr
hintmask 10011110
150 -993 rmoveto
hintmask 00111110
128 8 -59 229 -60 227 -68 229 rlinecurve
-176 hlineto
hintmask 01011110
-96 callgsubr
hintmask 10011110
16 -66 16 -65 15 -65 rrcurveto
hintmask 00111110
-96 callsubr
                </CharString>
                <CharString name="Aringacute">
                    -78 callsubr
-14 callsubr
hintmask 00111100
179 1079 -107 callgsubr
131 -90 -83 callgsubr
hintmask 10011100
150 -993 -102 callgsubr
                </CharString>
                <CharString name="Atilde">
                    -78 callsubr
77 26 callgsubr
-14 callsubr
hintmask 00111101
396 766 -79 callgsubr
hintmask 00111011
-86 callgsubr
hintmask 00111101
-25 callsubr
hintmask 10011101
64 -770 rmoveto
hintmask 00111101
128 8 -59 229 -60 227 -68 229 rlinecurve
-176 hlineto
hintmask 01011101
-96 callgsubr
hintmask 10011101
16 -66 16 -65 15 -65 rrcurveto
hintmask 00111101
-96 callsubr
                </CharString>
                <CharString name="B">
                    -9 99 -69 -21 300 88 208 102 -10 -20 hstemhm
101 125 195 122 -102 124 hintmask 10110101
565 203 rmoveto
86 -48 51 -86 24 vhcurveto
hintmask 01101110
67 31 45 54 78 vvcurveto
156 -172 35 -270 -30 vhcurveto
-688 vlineto
hintmask 10110101
266 -34 199 55 -1 182 rrcurveto
-339 390 rmoveto
hintmask 10110110
123 14 72 -28 -83 vvcurveto
-80 -48 -33 -147 5 vhcurveto
hintmask 10110101
-293 vmoveto
205 vlineto
141 7 74 -18 -91 vvcurveto
-95 -74 -27 -141 19 vhcurveto
endchar
                </CharString>
                <CharString name="C">
                    -32 callgsubr
544 104 rmoveto
-84 callsubr
hintmask 01110000
-31 callsubr
                </CharString>
                <CharString name="Cacute">
                    -32 callgsubr
220 810 -107 callgsubr
324 -706 rmoveto
-84 callsubr
hintmask 01110000
-31 callsubr
                </CharString>
                <CharString name="Ccaron">
                    -32 callgsubr
362 751 -101 callgsubr
190 -647 rmoveto
-84 callsubr
hintmask 01110000
-31 callsubr
                </CharString>
                <CharString name="Ccedilla">
                    -7 111 -108 108 -81 -21 575 121 20 callsubr
140 110 hintmask 10011100
456 -127 rmoveto
hintmask 00111100
40 -32 45 -86 44 vhcurveto
hintmask 01011100
54 -10 65 -2 77 6 rrcurveto
hintmask 10011100
10 108 rlineto
-84 callsubr
-143 49 -119 145 -52 vhcurveto
-21 -48 rlineto
-68 callsubr
endchar
                </CharString>
                <CharString name="Cdotaccent">
                    -7 111 -87 -21 581 121 73 156 20 callsubr
85 -50 callgsubr
hintmask 10111100
416 771 -80 callgsubr
255 -667 rmoveto
-84 callsubr
hintmask 01111100
-31 callsubr
                </CharString>
                <CharString name="D">
                    -9 105 -75 -21 591 -40 callgsubr
hintmask 10011100
571 357 -64 callgsubr
                </CharString>
                <CharString name="Dcaron">
                    -9 105 -75 -21 591 -40 callgsubr
hintmask 10011100
310 757 -101 callgsubr
269 -400 -64 callgsubr
                </CharString>
                <CharString name="Dcroat">
                    -81 callsubr
                </CharString>
                <CharString name="E">
                    0 -60 callgsubr
vstem
550 106 rmoveto
-90 callgsubr
                </CharString>
                <CharString name="Eacute">
                    0 -60 callgsubr
vstem
197 810 -107 callgsubr
353 -704 rmoveto
-90 callgsubr
                </CharString>
                <CharString name="Ebreve">
                    -30 callsubr
74 98 hstem
114 26 callsubr
329 762 -104 callgsubr
221 -656 rmoveto
-90 callgsubr
                </CharString>
                <CharString name="Ecaron">
                    0 -60 callgsubr
vstem
339 751 -101 callgsubr
219 -645 rmoveto
-90 callgsubr
                </CharString>
                <CharString name="Ecircumflex">
                    0 -60 callgsubr
vstem
459 758 -93 callsubr
232 -766 rmoveto
-90 callgsubr
                </CharString>
                <CharString name="Edieresis">
                    -30 callsubr
83 -28 callgsubr
114 127 -97.5 -75 callsubr
hintmask 11111010
513 771 rmoveto
4 -70 callsubr
-126 hlineto
-2 -156 rlineto
hintmask 11110110
-122 hmoveto
3 -70 callsubr
-126 hlineto
-1 -156 rlineto
407 -665 rmoveto
hintmask 11111010
-90 callgsubr
                </CharString>
                <CharString name="Edotaccent">
                    -30 callsubr
83 -28 callgsubr
114 127 27 -50 callgsubr
vstemhm
393 771 -80 callgsubr
284 -665 rmoveto
hintmask 11111000
-90 callgsubr
                </CharString>
                <CharString name="Egrave">
                    0 -60 callgsubr
vstem
453 806 -99 callsubr
132 -647 rmoveto
-90 callgsubr
                </CharString>
                <CharString name="Emacron">
                    -30 callsubr
110 105 hstem
114 26 callsubr
520 903 -63 callgsubr
30 -692 rmoveto
-90 callgsubr
                </CharString>
                <CharString name="Eogonek">
                    -249 97 152 -60 callgsubr
48 116 vstem
527 -152 rmoveto
-89 8 -33 17 25 vvcurveto
24 31 32 104 46 vhcurveto
10 106 rlineto
-309 194 259 93 -259 190 303 105 -430 -688 298 hlineto
-87 -49 -36 -44 -43 vvcurveto
-58 -10 callgsubr
endchar
                </CharString>
                <CharString name="Eth">
                    -81 callsubr
                </CharString>
                <CharString name="Euro">
                    204 87 -76 79 86 79 hstemhm
135 113 hintmask 01110000
547 77 rmoveto
-174 25 -75 41 -30 72 rrcurveto
214 hlineto
4 79 rlineto
-236 hlineto
-1 17 -1 18 19 vvcurveto
11 0 11 1 10 vhcurveto
240 hlineto
4 79 rlineto
-233 hlineto
24 78 69 33 185 27 -19 117 rcurveline
-240 -44 -96 -85 -33 -117 rrcurveto
-81 -88 67 hlineto
hintmask 10110000
-1 -12 0 -12 -12 vvcurveto
-18 1 -18 1 -17 vhcurveto
-67 -87 82 hlineto
36 -127 104 -78 239 -23 rrcurveto
endchar
                </CharString>
                <CharString name="F">
                    21 -21 284 98 200 106 hstem
120 128 vstem
510 284 rmoveto
98 -262 200 307 106 -435 -688 128 284 vlineto
endchar
                </CharString>
                <CharString name="G">
                    1 callsubr
23 callsubr
545 9 -91 callsubr
endchar
                </CharString>
                <CharString name="Gbreve">
                    1 callsubr
64 98 23 callsubr
333 762 -104 callgsubr
212 -753 -91 callsubr
endchar
                </CharString>
                <CharString name="Gcommaaccent">
                    1 callsubr
hstemhm
62 129 83 131 23 116 hintmask 11101000
545 9 -91 callsubr
hintmask 11111000
-291 -315 -100 callgsubr
                </CharString>
                <CharString name="Gdotaccent">
                    1 callsubr
73 -28 callgsubr
62 129 82 -50 callgsubr
27.5 116 vstemhm
398 771 -80 callgsubr
hintmask 11110100
274 -762 -91 callsubr
endchar
                </CharString>
                <CharString name="H">
                    21 -21 299 97 292 -20 hstem
83 130 199 130 vstem
412 hmoveto
130 688 -130 -292 -199 292 -130 -688 130 299 199 hlineto
endchar
                </CharString>
                <CharString name="Hbar">
                    21 -21 280 97 107 86 -82 78 -78 200 hstemhm
83 130 199 130 hintmask 11010110
412 377 rmoveto
-199 111 199 hlineto
-488 vmoveto
130 hlineto
hintmask 11100110
484 69 86 -69 vlineto
hintmask 11001110
118 -130 vlineto
hintmask 11010110
-122 -199 vlineto
hintmask 11001110
122 -130 vlineto
hintmask 11100110
-118 -69 -86 69 -484 130 280 199 vlineto
endchar
                </CharString>
                <CharString name="I">
                    -35 callsubr
376 590 -89 callsubr
                </CharString>
                <CharString name="Iacute">
                    -35 callsubr
185 810 -107 callgsubr
191 -220 -89 callsubr
                </CharString>
                <CharString name="Ibreve">
                    0 98 492 98 74 98 -21 callgsubr
317 762 -104 callgsubr
59 -172 -89 callsubr
                </CharString>
                <CharString name="Icircumflex">
                    -35 callsubr
447 758 -93 callsubr
70 -282 -89 callsubr
                </CharString>
                <CharString name="Idieresis">
                    0 98 492 98 83 -28 callgsubr
132.5 125 -8.5 127 3 125 hintmask 11110100
502 771 -103 callgsubr
hintmask 11101000
244 -181 -89 callsubr
                </CharString>
                <CharString name="Idotaccent">
                    0 98 492 98 83 -28 callgsubr
249 127 -120 -50 callgsubr
hintmask 11101000
381 771 -80 callgsubr
hintmask 11110000
122 -181 -89 callsubr
                </CharString>
                <CharString name="Igrave">
                    -35 callsubr
441 806 -99 callsubr
-30 -163 -89 callsubr
                </CharString>
                <CharString name="Imacron">
                    0 98 492 98 110 105 -21 callgsubr
509 903 -63 callgsubr
-133 -208 -89 callsubr
                </CharString>
                <CharString name="Iogonek">
                    -245 97 148 98 492 98 hstemhm
178 116 -45 127 hintmask 11101000
415 -148 rmoveto
hintmask 11110000
-88 7 -33 18 26 vvcurveto
24 18 29 55 44 vhcurveto
165 hlineto
9 98 rlineto
hintmask 11101000
-165 492 159 98 -444 -98 158 -492 hlineto
hintmask 11110000
-158 -98 173 hlineto
-60 -47 -26 -42 -39 vvcurveto
-62 -10 callgsubr
endchar
                </CharString>
                <CharString name="J">
                    -11 111 488 100 hstem
363 128 vstem
136 688 rmoveto
-100 227 -356 vlineto
-119 -23 -24 -245 11 vhcurveto
-111 vlineto
298 -7 98 75 177 vvcurveto
454 vlineto
endchar
                </CharString>
                <CharString name="K">
                    -5 callgsubr
hintmask 10011100
455 -8 rmoveto
hintmask 00111100
-30 callgsubr
hintmask 01011100
-688 127 296 57 vlineto
endchar
                </CharString>
                <CharString name="Kcommaaccent">
                    -5 callgsubr
35 131 hintmask 10011110
455 -8 rmoveto
hintmask 00111110
-30 callgsubr
hintmask 01011110
-688 127 296 57 vlineto
-42 -600 -100 callgsubr
                </CharString>
                <CharString name="L">
                    -17 callsubr
-2 callgsubr
endchar
                </CharString>
                <CharString name="Lacute">
                    -17 callsubr
205 810 -107 callgsubr
345 -810 rmoveto
-41 callsubr
endchar
                </CharString>
                <CharString name="Lcaron">
                    0 106 582 -20 115 -20 hstem
122 128 168 22 callgsubr
398 516 -78 callgsubr
152 -516 rmoveto
-41 callsubr
endchar
                </CharString>
                <CharString name="Lcommaaccent">
                    0 106 582 -20 hstemhm
122 128 28 131 hintmask 11100000
-2 callgsubr
hintmask 11110000
136 -296 -100 callgsubr
                </CharString>
                <CharString name="Ldot">
                    0 106 183 142 257 -20 hstem
122 128 179 123.5 vstem
-2 callgsubr
427 289 rmoveto
7 142 rlineto
-123 hlineto
-8 -142 rlineto
endchar
                </CharString>
                <CharString name="Lslash">
                    -17 callsubr
550 hmoveto
11 106 rlineto
-311 268 hlineto
146 74 -19 83 -127 -65 rlineto
222 -128 -287 vlineto
-85 -43 19 -83 66 34 rlineto
-309 vlineto
endchar
                </CharString>
                <CharString name="M">
                    21 -21 136 142 410 -20 hstem
73 110 253.5 -39 callgsubr
vstem
429 688 rmoveto
0 -105 -380 -8 -30 vhcurveto
-5 hlineto
-8 30 -106 380 0 vvcurveto
-124 -688 113 hlineto
-6 461 rlineto
4 hlineto
91 -325 rlineto
71 hlineto
89 325 rlineto
5 hlineto
-7 -461 rlineto
118 688 hlineto
endchar
                </CharString>
                <CharString name="N">
                    -18 callsubr
432 hmoveto
-84 callgsubr
endchar
                </CharString>
                <CharString name="NUL">
                    -107 endchar
                </CharString>
                <CharString name="Nacute">
                    -18 callsubr
182 810 -107 callgsubr
250 -810 rmoveto
-84 callgsubr
endchar
                </CharString>
                <CharString name="Ncaron">
                    -18 callsubr
325 751 -101 callgsubr
115 -751 rmoveto
-84 callgsubr
endchar
                </CharString>
                <CharString name="Ncommaaccent">
                    -34 callsubr
hstem
84 -39 callgsubr
56.5 131 40.5 -39 callgsubr
vstem
432 hmoveto
-84 callgsubr
33 -756 -100 callgsubr
                </CharString>
                <CharString name="Ntilde">
                    -34 callsubr
98 26 callgsubr
hstemhm
-27 callgsubr
hintmask 11101100
399 766 -79 callgsubr
hintmask 11011100
-86 callgsubr
hintmask 11101100
-25 callsubr
33 -766 rmoveto
-84 callgsubr
endchar
                </CharString>
                <CharString name="O">
                    -59 callsubr
297 -17 -106 callsubr
                </CharString>
                <CharString name="OE">
                    -30 callsubr
hstem
41 126 131 106 vstem
167 350 rmoveto
171 40 60 91 1 vhcurveto
-476 vlineto
-94 -1 -37 71 174 vvcurveto
412 -244 rmoveto
-175 194 138 93 -138 190 170 105 -247 hlineto
-189 -97 -128 -228 -236 92 -96 193 hvcurveto
247 hlineto
endchar
                </CharString>
                <CharString name="Oacute">
                    -59 callsubr
186 818 -107 callgsubr
111 -835 -106 callsubr
                </CharString>
                <CharString name="Obreve">
                    15 callsubr
64 98 hstem
52 131 259 131 vstem
318 770 -104 callgsubr
-21 -787 -106 callsubr
                </CharString>
                <CharString name="Ocircumflex">
                    -59 callsubr
448 766 -93 callsubr
-10 -897 -106 callsubr
                </CharString>
                <CharString name="Odieresis">
                    15 callsubr
73 -28 callgsubr
52 131 -50.5 -75 callsubr
-62 131 hintmask 11101100
502 779 -33 callgsubr
165 -796 -106 callsubr
                </CharString>
                <CharString name="Ograve">
                    -59 callsubr
442 814 -99 callsubr
-110 -778 -106 callsubr
                </CharString>
                <CharString name="Ohungarumlaut">
                    -59 callsubr
138 806 -95 callsubr
-75 -821 -106 callsubr
                </CharString>
                <CharString name="Omacron">
                    15 callsubr
100 105 hstem
52 131 259 131 vstem
509 911 -63 callgsubr
-212 -823 -106 callsubr
                </CharString>
                <CharString name="Omega">
                    0 98 494 112 hstem
79 118 230 120 vstem
271 7 rmoveto
-50 159 -24 130 97 vvcurveto
128 40 71 76 74 40 -72 -131 -96 -22 -130 -50 -156 vhcurveto
2 -7 rlineto
212 98 -93 hlineto
48 119 23 107 93 vvcurveto
170 1 -81 117 -149 hhcurveto
-153 -86 -118 -172 -92 23 -107 46 -117 hvcurveto
-91 -98 211 hlineto
endchar
                </CharString>
                <CharString name="Oslash">
                    -13 callsubr
180 352 -85 callsubr
                </CharString>
                <CharString name="Oslashacute">
                    -13 callsubr
181 818 -107 callgsubr
-1 -466 -85 callsubr
                </CharString>
                <CharString name="Otilde">
                    15 callsubr
68 26 callgsubr
hstemhm
52 131 259 131 hintmask 11101100
402 774 -79 callgsubr
hintmask 11011100
-86 callgsubr
hintmask 11101100
-25 callsubr
-105 -791 -106 callsubr
                </CharString>
                <CharString name="P">
                    21 -21 593 105 -11 -20 hstemhm
103 127 218 124 hintmask 11011000
230 hmoveto
206 vlineto
201 22 141 79 166 vvcurveto
hintmask 10111000
175 -153 82 -316 -43 vhcurveto
-687 vlineto
hintmask 11011000
345 448 rmoveto
-114 -75 -36 -143 15 vhcurveto
277 vlineto
146 17 72 -53 -106 vvcurveto
endchar
                </CharString>
                <CharString name="Q">
                    7 -21 32 -21 604 105 hstemhm
52 131 259 131 hintmask 01111000
499 -161 rmoveto
36 103 -149 52 rlineto
3 vlineto
117 41 70 126 200 vvcurveto
220 -1 -87 122 -157 hhcurveto
-169 -107 -134 -248 hvcurveto
hintmask 10111000
-202 74 -118 133 -18 vhcurveto
-21 -61 rlineto
70 676 rmoveto
90 44 -89 -176 -167 -38 -82 -88 -89 -44 89 176 168 37 81 88 hvcurveto
endchar
                </CharString>
                <CharString name="R">
                    -70 callgsubr
197 125 hintmask 10011011
458 -10 -85 callgsubr
                </CharString>
                <CharString name="R_p">
                    2 callsubr
199 12 callgsubr
24 -21 683 -20 25 -20 hstemhm
37 92 220 88 hintmask 0110001110000000
221 -4 rmoveto
hintmask 0100110110000000
93 7 -69 297 rlineto
40 49 29 66 78 vvcurveto
135 -83 86 -194 -28 vhcurveto
hintmask 0101001110000000
-686 95 vlineto
-6 251 41 2 rlineto
270 -435 rmoveto
hintmask 1000101110000000
185 vlineto
85 -4 76 76 210 vvcurveto
216 -59 77 -124 -67 vhcurveto
-3 20 -63 -1 rlineto
-723 vlineto
endchar
                </CharString>
                <CharString name="Racute">
                    -70 callgsubr
197 125 hintmask 00111011
166 817 -107 callgsubr
hintmask 10011011
292 -827 -85 callgsubr
                </CharString>
                <CharString name="Rcaron">
                    -70 callgsubr
197 125 hintmask 00111011
308 758 -101 callgsubr
hintmask 10011011
158 -768 -85 callgsubr
                </CharString>
                <CharString name="Rcommaaccent">
                    -70 callgsubr
56 131 10 125 hintmask 1001101010000000
458 -10 rmoveto
hintmask 0011011010000000
136 17 -162 297 rlineto
64 47 48 60 87 vvcurveto
142 -107 91 -340 -44 vhcurveto
hintmask 0101101010000000
-687 125 237 vlineto
110 3 rlineto
-110 351 rmoveto
135 18 62 -48 -91 vvcurveto
-61 -30 -48 -47 -32 vhcurveto
-120 -3 rlineto
hintmask 0011101110000000
36 -632 -100 callgsubr
                </CharString>
                <CharString name="S">
                    -38 callsubr
96 106 -89 callgsubr
endchar
                </CharString>
                <CharString name="Sacute">
                    -38 callsubr
196 815 -107 callgsubr
-100 -709 -89 callgsubr
endchar
                </CharString>
                <CharString name="Scaron">
                    -38 callsubr
339 756 -101 callgsubr
-235 -650 -89 callgsubr
endchar
                </CharString>
                <CharString name="Scedilla">
                    -8 110 -80 -21 583 110 hstemhm
93 132 82 110 -2 131 hintmask 10110100
193 -257 rmoveto
hintmask 01111000
149 14 75 49 61 vvcurveto
42 -35 46 -93 46 vhcurveto
hintmask 01110100
186 29 71 88 84 164 -321 46 103 vvcurveto
50 56 31 224 -16 vhcurveto
-8 114 rlineto
-285 15 -119 -108 -103 vvcurveto
hintmask 10110100
-160 322 -39 -113 vvcurveto
-57 -84 -41 -235 18 vhcurveto
-114 vlineto
hintmask 10111000
46 -2 41 1 38 3 -12 -28 rcurveline
66 -34 32 -28 -22 vvcurveto
-21 -35 -14 -87 -10 vhcurveto
endchar
                </CharString>
                <CharString name="Scommaaccent">
                    -8 110 482 110 hstemhm
93 132 22 131 37 131 hintmask 11101000
96 106 -89 callgsubr
hintmask 11111000
131 -413 -100 callgsubr
                </CharString>
                <CharString name="T">
                    14 callgsubr
377 582 -42 callgsubr
endchar
                </CharString>
                <CharString name="Tcaron">
                    14 callgsubr
320 751 -101 callgsubr
65 -169 -42 callgsubr
endchar
                </CharString>
                <CharString name="Tcommaaccent">
                    21 -21 582 106 hstemhm
249 128 -127 131 hintmask 11100000
377 582 -42 callgsubr
-147 -296 rmoveto
hintmask 11010000
62 -19 63 64 30 96 -4 83 rlinecurve
hintmask 11100000
-3 -142 -7 -2 hhcurveto
21 -66 3 -78 -28 -73 rrcurveto
endchar
                </CharString>
                <CharString name="Thorn">
                    0 213 267 106 102 -20 hstem
104 127 219 125 vstem
231 hmoveto
109 vlineto
202 20 142 78 163 vvcurveto
148 -117 79 -227 -11 vhcurveto
102 -127 -688 vlineto
346 345 rmoveto
-108 -77 -34 -142 13 vhcurveto
264 vlineto
144 14 75 -48 -101 vvcurveto
endchar
                </CharString>
                <CharString name="U">
                    -62 callsubr
307 -17 -101 callsubr
                </CharString>
                <CharString name="Uacute">
                    -62 callsubr
181 810 -107 callgsubr
126 -827 -101 callsubr
                </CharString>
                <CharString name="Ubreve">
                    -17 109 596 -20 94 98 hstem
80 127 211 26 callsubr
314 762 -104 callgsubr
-7 -779 -101 callsubr
                </CharString>
                <CharString name="Ucircumflex">
                    -62 callsubr
444 758 -93 callsubr
4 -889 -101 callsubr
                </CharString>
                <CharString name="Udieresis">
                    -17 109 596 -20 103 -28 callgsubr
80 127 -78.5 -75 callsubr
-82 127 hintmask 11101100
498 771 -33 callgsubr
179 -788 -101 callsubr
                </CharString>
                <CharString name="Ugrave">
                    -62 callsubr
438 806 -99 callsubr
-96 -770 -101 callsubr
                </CharString>
                <CharString name="Uhungarumlaut">
                    -62 callsubr
134 798 -95 callsubr
-61 -813 -101 callsubr
                </CharString>
                <CharString name="Umacron">
                    -17 109 596 -20 130 105 hstem
80 127 211 26 callsubr
505 903 -63 callgsubr
-198 -815 -101 callsubr
                </CharString>
                <CharString name="Uogonek">
                    -249 97 135 109 -88 -21 705 -20 hstemhm
80 127 -16 116 111 127 hintmask 11010110
418 -249 rmoveto
11 97 rlineto
-89 8 -33 17 28 vvcurveto
33 42 21 86 60 vhcurveto
75 53 35 64 106 vvcurveto
450 -127 -472 vlineto
-89 -32 -35 -70 vhcurveto
hintmask 11011010
-67 -42 43 99 hvcurveto
454 -127 -459 vlineto
-147 74 -88 129 -11 vhcurveto
hintmask 10110110
-68 -42 -24 -37 -40 vvcurveto
hintmask 11010110
-58 -10 callgsubr
endchar
                </CharString>
                <CharString name="Uring">
                    -17 109 596 -20 80 241 hstem
80 127 211 26 callsubr
312 989 -83 callgsubr
-5 -1006 -101 callsubr
                </CharString>
                <CharString name="V">
                    -1 115 574 -20 25 -20 hstemhm
39 546 hintmask 10110000
401 -1 rmoveto
hintmask 11010000
68 230 60 230 56 229 rrcurveto
-126 hlineto
-43 -189 -46 -195 -50 -190 rrcurveto
-10 hlineto
hintmask 10110000
-51 190 -47 198 -44 191 -129 -9 rcurveline
56 -229 61 -226 68 -230 rrcurveto
endchar
                </CharString>
                <CharString name="W">
                    -51 callgsubr
399 hmoveto
-102 callsubr
                </CharString>
                <CharString name="Wacute">
                    -51 callgsubr
185 810 -107 callgsubr
214 -810 rmoveto
-102 callsubr
                </CharString>
                <CharString name="Wcircumflex">
                    -51 callgsubr
447 758 -93 callsubr
93 -872 rmoveto
-102 callsubr
                </CharString>
                <CharString name="Wdieresis">
                    0 167 521 -20 103 -28 callgsubr
50 123 -40.5 -75 callsubr
-47 119 hintmask 11101100
502 771 -103 callgsubr
267 -771 rmoveto
hintmask 11110010
-102 callsubr
                </CharString>
                <CharString name="Wgrave">
                    -51 callgsubr
441 806 -99 callsubr
-7 -753 rmoveto
-102 callsubr
                </CharString>
                <CharString name="X">
                    18 -21 24 -21 24 -21 685 -20 24 -20 hstemhm
39 550 hintmask 10001100
448 -3 rmoveto
hintmask 00110100
140 6 -195 340 196 345 rlineto
-136 hlineto
-133 -257 rlineto
hintmask 01001100
-142 261 -139 -7 195 -342 -194 -343 rlineto
135 hlineto
133 255 rlineto
endchar
                </CharString>
                <CharString name="Y">
                    -50 callsubr
377 hmoveto
-81 callgsubr
                </CharString>
                <CharString name="Yacute">
                    -50 callsubr
184 812 -107 callgsubr
193 -812 rmoveto
-81 callgsubr
                </CharString>
                <CharString name="Ycircumflex">
                    -50 callsubr
446 760 -93 callsubr
72 -874 rmoveto
-81 callgsubr
                </CharString>
                <CharString name="Ydieresis">
                    -34 callsubr
23 -20 102 -28 callgsubr
131.5 125 -7.5 128 1 125 hintmask 10111010
501 773 -103 callgsubr
hintmask 11010100
246 -773 rmoveto
228 vlineto
218 460 rlineto
-131 hlineto
-147 -340 rlineto
hintmask 10110100
-153 343 -134 -5 219 -458 rlineto
-228 vlineto
endchar
                </CharString>
                <CharString name="Ygrave">
                    -50 callsubr
440 808 -99 callsubr
-28 -755 rmoveto
-81 callgsubr
                </CharString>
                <CharString name="Z">
                    -22 callgsubr
546 hmoveto
-74 callgsubr
                </CharString>
                <CharString name="Zacute">
                    -22 callgsubr
195 810 -107 callgsubr
351 -810 rmoveto
-74 callgsubr
                </CharString>
                <CharString name="Zcaron">
                    -22 callgsubr
337 751 -101 callgsubr
217 -751 rmoveto
-74 callgsubr
                </CharString>
                <CharString name="Zdotaccent">
                    0 109 470 109 83 156 hstem
267 -50 callgsubr
vstem
392 771 -80 callgsubr
281 -771 rmoveto
-74 callgsubr
                </CharString>
                <CharString name="a">
                    -77 callgsubr
-54 callgsubr
hintmask 10011110
288 81 -95 callgsubr
hintmask 01011110
142 -85 rmoveto
hintmask 00111110
-103 callsubr
hintmask 10011110
-90 69 -54 98 80 59 36 41 42 vhcurveto
hintmask 01011110
4 -27 5 -35 1 -5 rrcurveto
endchar
                </CharString>
                <CharString name="aacute">
                    -77 callgsubr
222 -20 -54 callgsubr
hintmask 10011111
177 682 -107 callgsubr
111 -601 -104 callsubr
                </CharString>
                <CharString name="abreve">
                    -77 callgsubr
70 98 -54 callgsubr
hintmask 10011111
309 634 -104 callgsubr
-21 -553 -104 callsubr
                </CharString>
                <CharString name="acircumflex">
                    -77 callgsubr
125 -20 33 -20 -54 callgsubr
hintmask 1001101110000000
439 630 rmoveto
75 72 -204 -70 callsubr
-7 hlineto
hintmask 1001110110000000
-202 -169 rlineto
hintmask 1001101110000000
59 -58 138 113 rlineto
-10 -663 -95 callgsubr
hintmask 0101101110000000
142 -85 rmoveto
hintmask 0011101110000000
-103 callsubr
hintmask 1001101110000000
-90 69 -54 98 80 59 36 41 42 vhcurveto
hintmask 0101101110000000
4 -27 5 -35 1 -5 rrcurveto
endchar
                </CharString>
                <CharString name="acute">
                    778 -20 hstem
167 319 vstem
167 674 -107 callgsubr
endchar
                </CharString>
                <CharString name="acute.cap">
                    778 -20 hstem
167 319 vstem
167 674 -107 callgsubr
endchar
                </CharString>
                <CharString name="adieresis">
                    -77 callgsubr
79 156 -10 callsubr
-70.5 -75 callsubr
-84 120 hintmask 1001110110000000
494 643 -103 callgsubr
hintmask 1001111001000000
164 -562 -95 callgsubr
hintmask 0101110110000000
142 -85 rmoveto
hintmask 0011111001000000
-103 callsubr
hintmask 1001111010000000
-24 callsubr
                </CharString>
                <CharString name="ae">
                    -12 callgsubr
16 callsubr
hintmask 01101111
420 460 -12 callsubr
hintmask 10101111
-31 callgsubr
hintmask 01101111
-45 callsubr
hintmask 10110111
-46 callgsubr
hintmask 01101111
18 callsubr
                </CharString>
                <CharString name="aeacute">
                    -12 callgsubr
218 -20 16 callsubr
hintmask 0110111110000000
182 675 -107 callgsubr
238 -215 -12 callsubr
hintmask 1010111110000000
-31 callgsubr
hintmask 0110111110000000
-45 callsubr
hintmask 1011011110000000
-46 callgsubr
hintmask 0110111110000000
18 callsubr
                </CharString>
                <CharString name="agrave">
                    -77 callgsubr
214 -20 -54 callgsubr
hintmask 10011111
433 678 -99 callsubr
-110 -544 -104 callsubr
                </CharString>
                <CharString name="amacron">
                    -77 callgsubr
106 105 -54 callgsubr
hintmask 10011111
501 775 -63 callgsubr
-213 -589 -104 callsubr
                </CharString>
                <CharString name="ampersand">
                    -14 99 505 112 hstemhm
40 117 -31 123 hintmask 11100000
591 61 rmoveto
-43 55 -39 48 -35 42 34 62 35 84 23 86 -104 12 rcurveline
-12 -57 -18 -61 -20 -53 rrcurveto
hintmask 11010000
-110 129 -53 56 46 vvcurveto
53 39 34 157 -7 vhcurveto
-8 112 rlineto
-237 5 -74 -102 -98 vvcurveto
-45 21 -43 40 -55 vhcurveto
hintmask 11100000
-96 -60 -51 -68 -88 vvcurveto
-92 57 -70 113 70 70 34 77 55 vhcurveto
27 -34 28 -37 31 -41 rrcurveto
-254 100 rmoveto
-53 -27 39 50 46 25 45 51 41 hvcurveto
32 -39 39 -46 45 -56 rrcurveto
-54 -34 -38 -26 -40 hhcurveto
endchar
                </CharString>
                <CharString name="aogonek">
                    -246 96 136 95 -57 -21 240 77 140 104 -10 callsubr
96 116 5 120 hintmask 10111110
518 -246 4 callsubr
105 46 vhcurveto
hintmask 01011101
-5 76 -6 87 108 vvcurveto
216 -82 69 -333 5 vhcurveto
-12 -104 237 -7 62 -27 7 -106 rlinecurve
-234 9 -105 -89 -110 vvcurveto
-90 67 -54 96 75 64 45 52 44 vhcurveto
2 -21 5 -33 3 -19 rrcurveto
hintmask 01011110
-96 -52 -41 -46 -46 vvcurveto
hintmask 10111110
-58 63 -46 164 -8 vhcurveto
hintmask 01011101
-233 327 rmoveto
-56 -34 27 51 61 45 37 172 -18 hvcurveto
1 -38 0 -30 1 -28 rrcurveto
-38 -35 -50 -24 -44 hhcurveto
endchar
                </CharString>
                <CharString name="approxequal">
                    105 104 3 103 35 104 2 105 -6 -20 hstemhm
59 500 hintmask 01101100
406 350 rmoveto
69 41 59 116 43 hvcurveto
-74 30 rlineto
-60 -27 -22 -41 -27 hhcurveto
hintmask 01010100
-46 -54 107 -86 hhcurveto
-72 -50 -65 -118 -42 hvcurveto
72 -30 rlineto
64 29 24 44 28 hhcurveto
hintmask 01101100
50 56 -106 88 hhcurveto
hintmask 10010100
-245 vmoveto
69 41 59 116 43 hvcurveto
-72 31 rlineto
-60 -28 -22 -42 -28 hhcurveto
hintmask 01010100
-46 -54 106 -86 hhcurveto
-72 -50 -64 -117 -42 hvcurveto
73 -30 rlineto
63 29 24 45 28 hhcurveto
hintmask 10010100
49 56 -107 88 hhcurveto
endchar
                </CharString>
                <CharString name="aring">
                    -77 callgsubr
56 241 -54 callgsubr
hintmask 10011111
307 861 -83 callgsubr
-19 -780 -104 callsubr
                </CharString>
                <CharString name="aringacute">
                    -77 callgsubr
-54 callgsubr
hintmask 10011110
177 953 -107 callgsubr
130 -92 -83 callgsubr
-19 -780 -95 callgsubr
hintmask 01011110
142 -85 rmoveto
hintmask 00111110
-103 callsubr
hintmask 10011110
-90 69 -54 98 80 59 36 41 42 vhcurveto
hintmask 01011110
4 -27 5 -35 1 -5 rrcurveto
endchar
                </CharString>
                <CharString name="asciicircum">
                    558 -20 hstem
62 507 vstem
478 163 rmoveto
91 64 -248 331 -22 -3 -237 -329 83 -63 163 236 rlineto
endchar
                </CharString>
                <CharString name="asciitilde">
                    210 112 33 112 hstem
40 545 vstem
420 210 rmoveto
73 49 81 138 43 hvcurveto
-79 31 rlineto
-82 -29 -24 -56 -29 -49 -79 145 -88 hhcurveto
-73 -54 -85 -134 -41 hvcurveto
78 -30 rlineto
81 28 25 56 29 49 83 -145 88 hhcurveto
endchar
                </CharString>
                <CharString name="asterisk">
                    272 498 hstem
62 512 vstem
410 272 rmoveto
70 43 -64 154 158 62 -19 78 -168 -13 -9 168 -83 6 -39 -164 -161 45 -33 -76 145 -89 -91 -139 62 -54 127 108 rlineto
endchar
                </CharString>
                <CharString name="asterisk.alt">
                    779 -20 hstemhm
265 59 -22 58 hintmask 10100000
360 599 rmoveto
52 158 -109 22 -2 -169 rlineto
-38 -12 rmoveto
-110 124 -73 -83 144 -88 rlineto
185 -37 rmoveto
163 36 -36 105 -148 -82 rlineto
-172 -59 rmoveto
-163 -35 36 -104 148 81 rlineto
125 -25 rmoveto
112 -124 72 83 -143 89 rlineto
hintmask 11000000
-138 -48 rmoveto
-53 -159 111 -21 2 168 rlineto
endchar
                </CharString>
                <CharString name="at">
                    -174 97 142 95 272 101 129 98 hstem
48 103 83 109 112 106 vstem
510 -168 rmoveto
-1 96 rlineto
-292 -35 -66 139 253 vvcurveto
258 98 119 108 62 28 -43 -86 7 vhcurveto
-126 -2 -94 -77 -181 vvcurveto
-126 -1 54 -82 73 hhcurveto
42 30 19 37 30 hvcurveto
2 -19 2 -25 -5 vvcurveto
101 11 rlineto
-2 93 -4 97 230 vvcurveto
167 -59 90 -133 -185 -136 -192 -298 -290 108 -193 354 45 vhcurveto
-109 328 rmoveto
-39 -19 44 89 98 21 56 91 -18 hvcurveto
-243 vlineto
-16 -16 -17 -10 -21 hhcurveto
endchar
                </CharString>
                <CharString name="atilde">
                    -77 callgsubr
74 26 callgsubr
-54 callgsubr
hintmask 1001110110000000
393 638 -79 callgsubr
hintmask 1001101110000000
-86 callgsubr
hintmask 1001110110000000
-25 callsubr
-105 -557 -95 callgsubr
hintmask 0101110110000000
142 -85 rmoveto
hintmask 0011110110000000
-103 callsubr
hintmask 1001110110000000
-24 callsubr
                </CharString>
                <CharString name="b">
                    -14 5 callsubr
224 122 hintmask 11011100
261 -14 rmoveto
159 143 120 198 160 -85 103 -116 -59 -49 -26 -33 -37 hvcurveto
281 vlineto
hintmask 11101100
-9 callgsubr
-763 vlineto
hintmask 11011100
-19 51 55 -10 61 hhcurveto
43 105 rmoveto
-31 -27 5 11 -29 hvcurveto
326 vlineto
21 30 33 12 32 hhcurveto
76 53 -65 -127 -125 -52 -58 -85 hvcurveto
endchar
                </CharString>
                <CharString name="backslash">
                    -206 1022 hstem
-3 623 vstem
104 816 rmoveto
-107 -45 510 -977 113 34 rlineto
endchar
                </CharString>
                <CharString name="bar">
                    787 -20 hstem
255 116 vstem
255 787 rmoveto
-990 116 1000 vlineto
endchar
                </CharString>
                <CharString name="braceleft">
                    -236 1050 -18 callgsubr
-236 -80 callsubr
                </CharString>
                <CharString name="braceleft.cap">
                    -163 -21 -18 callgsubr
-184 -80 callsubr
                </CharString>
                <CharString name="braceright">
                    -235 1050 -568 -19 callgsubr
-235 13 callgsubr
hintmask 01100000
-7 callgsubr
hintmask 01010000
-71 callsubr
                </CharString>
                <CharString name="braceright.cap">
                    -163 -21 482 -19 callgsubr
-184 13 callgsubr
hintmask 11100000
-7 callgsubr
hintmask 11010000
-71 callsubr
                </CharString>
                <CharString name="bracketleft">
                    -199 6 callsubr
-199 -11 callgsubr
                </CharString>
                <CharString name="bracketleft.cap">
                    -147 6 callsubr
-147 -11 callgsubr
                </CharString>
                <CharString name="bracketright">
                    -199 14 callsubr
-101 -11 callsubr
                </CharString>
                <CharString name="bracketright.cap">
                    -147 14 callsubr
-49 -11 callsubr
                </CharString>
                <CharString name="breve">
                    626 98 hstem
94 438 vstem
309 626 -104 callgsubr
endchar
                </CharString>
                <CharString name="breve.cap">
                    626 98 hstem
94 438 vstem
309 626 -104 callgsubr
endchar
                </CharString>
                <CharString name="bullet">
                    175 311 hstem
152 319 vstem
471 333 rmoveto
92 -66 61 -90 -89 -74 -62 -95 -92 68 -62 90 88 73 62 96 vhcurveto
endchar
                </CharString>
                <CharString name="bullet.alt">
                    197 269 hstem
178 268 vstem
445 197 rmoveto
2 269 rlineto
-268 hlineto
-2 -269 rlineto
endchar
                </CharString>
                <CharString name="c">
                    -15 callgsubr
hstemhm
87 122 hintmask 10110000
87 267 rmoveto
hintmask 01110000
-25 callgsubr
hintmask 10110000
12 101 rlineto
-83 callsubr
endchar
                </CharString>
                <CharString name="cacute">
                    -15 callgsubr
217 -20 hstemhm
87 122 hintmask 10111000
204 674 -107 callgsubr
-117 -407 rmoveto
hintmask 01111000
-25 callgsubr
hintmask 10111000
12 101 rlineto
-83 callsubr
endchar
                </CharString>
                <CharString name="caron">
                    784 -20 hstem
105 413 vstem
317 615 -101 callgsubr
endchar
                </CharString>
                <CharString name="caron.alt">
                    612 283 hstem
243 22 callgsubr
223 628 -78 callgsubr
endchar
                </CharString>
                <CharString name="caron.alt.cap">
                    612 283 hstem
243 22 callgsubr
223 628 -78 callgsubr
endchar
                </CharString>
                <CharString name="caron.cap">
                    784 -20 hstem
105 413 vstem
317 615 -101 callgsubr
endchar
                </CharString>
                <CharString name="ccaron">
                    -15 callgsubr
223 -20 hstemhm
87 122 hintmask 10111000
346 615 -101 callgsubr
-251 -348 rmoveto
hintmask 01111000
-25 callgsubr
hintmask 10111000
12 101 rlineto
-83 callsubr
endchar
                </CharString>
                <CharString name="ccedilla">
                    -4 101 347 117 hstem
87 122 146 110 vstem
465 -131 rmoveto
40 -31 43 -84 44 vhcurveto
49 -5 57 -1 67 6 12 101 rcurveline
-83 callsubr
-119 45 -99 143 -39 vhcurveto
-18 -42 rlineto
-68 callsubr
endchar
                </CharString>
                <CharString name="cdotaccent">
                    -15 callgsubr
74 -28 callgsubr
87 122 66 -50 callgsubr
hintmask 10111100
400 635 -80 callgsubr
-186 -368 rmoveto
hintmask 01111100
-25 callgsubr
hintmask 10111100
12 101 rlineto
-83 callsubr
endchar
                </CharString>
                <CharString name="cedilla">
                    -246 282 hstem
351 110 vstem
253 -23 rmoveto
-68 callsubr
49 -48 55 -134 54 vhcurveto
endchar
                </CharString>
                <CharString name="cedilla.cap">
                    -246 282 hstem
351 110 vstem
253 -23 rmoveto
-68 callsubr
49 -48 55 -134 54 vhcurveto
endchar
                </CharString>
                <CharString name="cent">
                    34 103 299 107 145 -20 hstem
83 117 vstem
200 307 rmoveto
57 27 50 109 16 vhcurveto
-33 -257 rlineto
-72 28 -31 45 61 vvcurveto
305 -273 rmoveto
13 103 -52 3 -45 4 -39 7 rlinecurve
36 285 rlineto
33 36 -2 -4 42 hvcurveto
14 113 -38 2 -34 0 -32 -1 rlinecurve
20 144 rlineto
-107 hlineto
-17 -153 rlineto
-197 -33 -55 -106 -103 vvcurveto
-100 52 -82 143 -44 vhcurveto
-23 -160 rlineto
106 hlineto
15 139 39 -6 42 -4 48 -2 rlinecurve
endchar
                </CharString>
                <CharString name="check.1">
                    -24 788 -785 161 hstemhm
69 515 hintmask 10100000
584 726 rmoveto
-125 38 rlineto
hintmask 01100000
-65 -179 -57 -212 -45 -233 rrcurveto
-6 hlineto
-111 270 -106 -46 171 -388 107 6 rlineto
hintmask 10100000
65 270 78 247 94 227 rrcurveto
endchar
                </CharString>
                <CharString name="check.2">
                    4 -21 27 -21 hstemhm
90 478 hintmask 01100000
383 -11 rmoveto
118 26 -149 287 216 422 -120 43 -159 -371 -85 182 -114 -41 133 -250 -131 -277 rlineto
hintmask 10100000
80 -27 111 218 rlineto
endchar
                </CharString>
                <CharString name="circumflex">
                    694 -20 hstem
105 413 vstem
443 622 -93 callsubr
endchar
                </CharString>
                <CharString name="circumflex.cap">
                    694 -20 hstem
105 413 vstem
443 622 -93 callsubr
endchar
                </CharString>
                <CharString name="colon">
                    0 155 201 -28 callgsubr
225.5 169 -160.5 168 hintmask 11010000
401 356 -1 callgsubr
159 -356 rmoveto
5 19 callsubr
-5 25 callsubr
                </CharString>
                <CharString name="colon.alt">
                    88 155 201 -28 callgsubr
229.5 168.5 -164 168 hintmask 11010000
401 444 -1 callgsubr
164 -356 rmoveto
2 19 callsubr
-1 25 callsubr
                </CharString>
                <CharString name="colonmonetary">
                    555 110 hstemhm
70 110 88 84 0 82 -17 83 hintmask 11101000
375 151 rmoveto
-27 6 -23 6 -21 7 32 358 rcurveline
22 5 24 5 27 4 rrcurveto
-229 -192 rmoveto
67 22 51 66 34 vhcurveto
-26 -299 rlineto
-43 32 -19 46 69 vvcurveto
hintmask 11010000
166 -432 rmoveto
83 hlineto
10 115 rlineto
hintmask 11101000
24 -3 26 -3 28 -3 22 104 rcurveline
-36 4 -34 4 -30 4 36 410 rcurveline
28 2 31 2 34 1 -6 110 rcurveline
-24 -1 -22 -1 -21 -2 10 108 rcurveline
-83 hlineto
-10 -118 -24 -4 -22 -5 -20 -5 rlinecurve
12 132 rlineto
-84 hlineto
-12 -160 rlineto
-146 -61 -46 -104 -113 vvcurveto
-117 45 -74 100 -48 vhcurveto
-18 -174 25 callgsubr
84 hlineto
13 144 20 -6 21 -5 23 -4 rlinecurve
endchar
                </CharString>
                <CharString name="comma">
                    -170 -21 hstem
259 139 vstem
204 -172 rmoveto
66 -19 97 88 64 144 -51 124 rlinecurve
-157 -8 56 -117 -11 -131 -64 -81 rlinecurve
endchar
                </CharString>
                <CharString name="commaaccent">
                    -315 243 hstem
250 131 vstem
230 -296 -100 callgsubr
                </CharString>
                <CharString name="commaaccent.cap">
                    -315 243 hstem
250 131 vstem
230 -296 -100 callgsubr
                </CharString>
                <CharString name="commaaccent.rot">
                    631 242 hstem
239 130 vstem
390 854 -17 callgsubr
endchar
                </CharString>
                <CharString name="copyright">
                    8 64 96 76 197 84 91 64 hstem
49 69 82 84 223 69 vstem
576 349 rmoveto
206 -105 125 -148 -154 -120 -135 -205 -215 112 -117 155 148 112 125 216 vhcurveto
-458 -5 rmoveto
173 85 99 118 111 75 -99 -173 -182 -75 -90 -112 -115 -87 91 181 vhcurveto
283 -100 rmoveto
-92 -3 -25 33 78 vvcurveto
57 15 32 99 vhcurveto
-6 84 rlineto
-145 -9 -47 -79 -93 vvcurveto
-107 47 -79 146 10 vhcurveto
endchar
                </CharString>
                <CharString name="d">
                    -24 callgsubr
hintmask 10010111
314 87 -39 callsubr
hintmask 01010111
109 -90 rmoveto
hintmask 00110111
114 -16 callgsubr
235 vlineto
hintmask 10011011
-45 callgsubr
                </CharString>
                <CharString name="dagger">
                    510.5 97 -93 98 163.5 -20 hstemhm
256.5 102.5 -102 116 hintmask 10110000
349 150 rmoveto
20 362 177 -3 6 97 rlineto
hintmask 10101000
17 callsubr
hintmask 01101000
-165 vlineto
-173 3 -5 -98 rlineto
hintmask 01110000
178 -3 -1 -391 19 -9 rlineto
endchar
                </CharString>
                <CharString name="daggerdbl">
                    290.5 93 -89 93 127 93 -89 94 163.5 -20 hstemhm
257 97.5 -97.5 116 hintmask 01101100
350 92 rmoveto
hintmask 10101100
9 200 180 -3 6 93 -182 3 6 131 177 -3 6 93 rlineto
hintmask 01101010
17 callsubr
hintmask 01011010
-165 vlineto
-173 3 -5 -94 rlineto
hintmask 01011100
178 -3 rlineto
-131 vlineto
-180 3 -5 -93 185 -3 rlineto
-229 vlineto
19 -9 rlineto
endchar
                </CharString>
                <CharString name="dcaron">
                    -24 callgsubr
95 119 hintmask 1001011110000000
603 628 -78 callgsubr
-289 -541 -39 callsubr
hintmask 0101011110000000
109 -90 rmoveto
hintmask 0011011110000000
114 -16 callgsubr
235 vlineto
hintmask 1001101110000000
-45 callgsubr
                </CharString>
                <CharString name="dcroat">
                    -14 101 -69 -21 27 -21 456 103 71 77 73 15 callgsubr
222 123 hintmask 10011111
314 87 rmoveto
-77 -54 59 132 120 59 61 85 24 26 -5 -9 28 hvcurveto
-133 1 -106 2 -86 vhcurveto
-20 -27 -30 -13 -37 hhcurveto
hintmask 01011111
108 -90 rmoveto
hintmask 00111111
115 -16 callgsubr
78 69 78 -69 73 vlineto
-9 callgsubr
-62 -136 -77 136 -72 vlineto
1 -9 -8 0 -9 hhcurveto
-175 -143 -114 -201 hvcurveto
hintmask 10011111
-165 86 -96 117 63 51 30 36 37 vhcurveto
endchar
                </CharString>
                <CharString name="degree">
                    334 91 240 92 hstem
106 99 215 98 vstem
518 550 rmoveto
127 -85 80 -113 -113 -101 -85 -131 -128 86 -79 113 113 100 84 132 vhcurveto
-98 -2 rmoveto
-76 -1 -46 -47 -61 hhcurveto
-63 -45 51 69 1 hvcurveto
73 46 47 61 63 45 -51 -66 vhcurveto
endchar
                </CharString>
                <CharString name="dieresis">
                    635 156 hstem
128.5 -75 callsubr
vstem
498 635 -103 callgsubr
endchar
                </CharString>
                <CharString name="dieresis.cap">
                    635 156 hstem
128.5 -75 callsubr
vstem
498 635 -103 callgsubr
endchar
                </CharString>
                <CharString name="divide">
                    70 123 86 103 86 123 hstem
248 128 cntrmask 11100000
375 468 rmoveto
3 16 callgsubr
306 -86 rmoveto
-484 -103 484 hlineto
-179 -209 rmoveto
2 16 callgsubr
endchar
                </CharString>
                <CharString name="dollar">
                    34 104 415 99 1 123 0 -20 hstemhm
91 131 187 132 hintmask 11011100
222 505 rmoveto
1 29 29 18 70 1 -24 -129 rcurveline
-44 29 -32 26 26 vvcurveto
187 -315 rmoveto
-31 -30 -19 -70 -4 vhcurveto
25 136 rlineto
43 -28 32 -27 -27 vvcurveto
-122 -278 rmoveto
20 125 rlineto
168 16 66 68 74 vvcurveto
1 77 -94 60 -85 52 30 165 rcurveline
35 -4 43 -6 49 -10 rrcurveto
hintmask 10101100
15 114 -38 5 -35 3 -33 2 rlinecurve
25 122 -109 1 rlineto
hintmask 11011100
-22 -124 rlineto
-167 -14 -65 -69 -74 vvcurveto
-1 -75 94 -58 86 -51 -32 -173 rcurveline
-41 3 -48 6 -56 10 -22 -114 rcurveline
-6 48 43 -3 40 hhcurveto
-24 -121 rlineto
endchar
                </CharString>
                <CharString name="dotaccent">
                    635 156 hstem
248 -50 callgsubr
vstem
373 635 -80 callgsubr
endchar
                </CharString>
                <CharString name="dotaccent.cap">
                    635 156 hstem
248 -50 callgsubr
vstem
373 635 -80 callgsubr
endchar
                </CharString>
                <CharString name="dotlessi">
                    -73 callgsubr
-21 callsubr
581 hmoveto
10 92 rlineto
-87 callgsubr
endchar
                </CharString>
                <CharString name="e">
                    -82 callgsubr
-47 callgsubr
522 -13 -107 callsubr
                </CharString>
                <CharString name="eacute">
                    -82 callgsubr
220 -20 -47 callgsubr
191 683 -107 callgsubr
331 -696 -107 callsubr
                </CharString>
                <CharString name="ebreve">
                    -82 callgsubr
68 98 -47 callgsubr
323 635 -104 callgsubr
199 -648 -107 callsubr
                </CharString>
                <CharString name="ecaron">
                    -82 callgsubr
213 -20 -47 callgsubr
334 624 -101 callgsubr
196 -637 -107 callsubr
                </CharString>
                <CharString name="ecircumflex">
                    -82 callgsubr
123 21 callgsubr
71 121 241 119 hintmask 11101110
453 631 rmoveto
75 72 -204 -70 callsubr
-7 hlineto
hintmask 11110110
-202 -169 rlineto
hintmask 11101110
59 -58 138 113 rlineto
210 -758 -107 callsubr
                </CharString>
                <CharString name="edieresis">
                    -82 callgsubr
77 -28 callgsubr
71 121 -53.5 -75 callsubr
-77 119 hintmask 11110110
508 644 -103 callgsubr
hintmask 11111001
384 -657 -107 callsubr
                </CharString>
                <CharString name="edotaccent">
                    -82 callgsubr
77 156 hstem
71 121 71 -50 callgsubr
42.5 22 callgsubr
388 644 -80 callgsubr
261 -657 -107 callsubr
                </CharString>
                <CharString name="egrave">
                    -82 callgsubr
212 -20 -47 callgsubr
448 679 -99 callsubr
109 -639 -107 callsubr
                </CharString>
                <CharString name="eight">
                    -14 93 530 94 hstemhm
77 117 -106 117 216 114 -105 119 hintmask 11100100
300 -14 rmoveto
153 96 85 108 85 -71 52 -77 44 hvcurveto
hintmask 11011000
84 43 50 54 82 vvcurveto
100 -94 64 -121 -151 -81 -94 -92 -77 60 -52 70 -44 vhcurveto
hintmask 11100100
-87 -46 -54 -62 -80 vvcurveto
-104 94 -66 129 vhcurveto
hintmask 11011000
-95 546 rmoveto
40 36 37 71 73 36 -40 -53 -47 -31 -42 -53 -31 vhcurveto
-71 39 -61 38 59 vvcurveto
hintmask 11100100
108 -453 rmoveto
-81 -38 43 59 50 31 44 54 33 hvcurveto
79 -45 72 -40 -60 vvcurveto
-48 -45 -36 -72 vhcurveto
endchar
                </CharString>
                <CharString name="eight.den">
                    -244 71 178 -21 31 -21 151 -40 callsubr
hintmask 10111001
303 -244 rmoveto
-72 callgsubr
hintmask 10110110
-82 callsubr
vhcurveto
hintmask 11010101
-43 callgsubr
hintmask 10111001
-49 callsubr
hintmask 10110110
-91 callgsubr
hintmask 10111001
-93 callgsubr
                </CharString>
                <CharString name="eight.inf">
                    -178 -46 callsubr
-178 -94 callgsubr
                </CharString>
                <CharString name="eight.num">
                    461 71 157 -20 30 -20 171 -40 callsubr
hintmask 10111001
303 461 rmoveto
-72 callgsubr
hintmask 11010110
-66 callsubr
hintmask 11011001
-65 -26 -37 -38 -51 vvcurveto
hintmask 10111001
-66 64 -47 105 vhcurveto
hintmask 10110110
-91 callgsubr
hintmask 10111001
-93 callgsubr
                </CharString>
                <CharString name="eight.small">
                    -11 -46 callsubr
-11 -94 callgsubr
                </CharString>
                <CharString name="eight.sup">
                    350 -46 callsubr
350 -94 callgsubr
                </CharString>
                <CharString name="ellipsis">
                    0 163 hstem
45 127 76 127 76 127 cntrmask 01110000
575 -23 callsubr
-76 -23 callsubr
-76 -23 callsubr
endchar
                </CharString>
                <CharString name="emacron">
                    -82 callgsubr
104 105 -47 callgsubr
515 776 -63 callgsubr
7 -684 -107 callsubr
                </CharString>
                <CharString name="emdash">
                    284 93 hstem
68 495 vstem
563 377 rmoveto
-495 -93 488 hlineto
endchar
                </CharString>
                <CharString name="endash">
                    284 93 hstem
85 461 vstem
546 377 rmoveto
-461 -93 450 hlineto
endchar
                </CharString>
                <CharString name="eogonek">
                    -246 96 151 89 -78 -21 257.5 74.5 144 100 hstemhm
71 121 74 117 50 119 hintmask 11011111
493 -246 rmoveto
11 96 rlineto
-89 8 -32 18 24 vvcurveto
hintmask 10111111
22 31 30 108 39 vhcurveto
hintmask 11011111
12 99 -245 5 -83 37 -13 112 rlinecurve
356 9 rlineto
192 20 -74 122 -155 hhcurveto
-145 -124 -130 -171 -166 90 -99 240 hvcurveto
-95 -48 -40 -45 -45 vvcurveto
-54 63 -47 164 -8 vhcurveto
-175 713 rmoveto
78 34 -54 -90 3 hvcurveto
-69 -1 -113 -4 -59 -1 rrcurveto
103 6 45 47 75 hhcurveto
endchar
                </CharString>
                <CharString name="equal">
                    160 104 140 104 10 callgsubr
508 rmoveto
-451 -104 451 hlineto
-140 vmoveto
-451 -104 451 hlineto
endchar
                </CharString>
                <CharString name="eth">
                    -16 100 331 97 188 -20 111 -20 hstem
63 120 258 117 vstem
299 -16 rmoveto
139 120 106 198 135 -48 115 -100 107 hvcurveto
89 40 -26 70 -121 -55 -36 31 -40 30 -46 30 rlinecurve
-79 -74 34 -22 31 -22 28 -23 rlinecurve
-111 -50 27 -69 143 65 27 -27 23 -28 19 -29 rlinecurve
-160 4 -149 -93 -183 vvcurveto
-160 106 -96 130 vhcurveto
15 100 rmoveto
-73 -58 65 106 127 77 67 165 -52 hvcurveto
11 -39 5 -40 -42 vvcurveto
-128 -48 -64 -79 vhcurveto
endchar
                </CharString>
                <CharString name="exclam">
                    0 145 hstemhm
229 159 -114 81 hintmask 10100000
355 271 rmoveto
2 50 41 378 2 53 rrcurveto
-157 hlineto
1 -53 30 -378 -50 vvcurveto
hintmask 11000000
112 -271 rmoveto
4 145 rlineto
-159 hlineto
-4 -145 rlineto
endchar
                </CharString>
                <CharString name="exclamdown">
                    544 145 hstemhm
237.5 158.5 -127 82 hintmask 11000000
239 689 rmoveto
-3 -145 rlineto
159 hlineto
2 145 rlineto
hintmask 10100000
-128 -271 rmoveto
-1 -50 -41 -378 -3 -53 rrcurveto
158 hlineto
-1 53 -30 378 50 vvcurveto
endchar
                </CharString>
                <CharString name="f">
                    0 92 344 93 144 119 hstem
231 123 vstem
530 92 rmoveto
-176 344 187 93 -187 20 hlineto
99 21 18 203 7 vhcurveto
-8 119 rlineto
-258 -13 -81 -106 -142 vvcurveto
-2 -135 vlineto
-11 -93 rlineto
146 -344 -139 -92 427 hlineto
endchar
                </CharString>
                <CharString name="five">
                    6 -21 596.5 106.5 hstem
-50 callgsubr
108.5 186 114 vstem
536 232 rmoveto
88 -71 78 -234 29 vhcurveto
10 155 265 -1 10 107 rlineto
-378 hlineto
-21 -341 rlineto
226 -22 79 -44 -56 vvcurveto
-71 -80 -35 -243 -21 vhcurveto
7 -113 rlineto
300 21 130 99 127 vvcurveto
endchar
                </CharString>
                <CharString name="five.den">
                    -246 -63 callsubr
-88 -106 callgsubr
endchar
                </CharString>
                <CharString name="five.inf">
                    -180 -63 callsubr
-22 -106 callgsubr
endchar
                </CharString>
                <CharString name="five.num">
                    459 88 281 82 hstem
171.5 84 136.5 92 vstem
-61 callsubr
endchar
                </CharString>
                <CharString name="five.small">
                    -13 -63 callsubr
145 -106 callgsubr
endchar
                </CharString>
                <CharString name="five.sup">
                    348 -63 callsubr
506 -106 callgsubr
endchar
                </CharString>
                <CharString name="fiveeighths">
                    -48 callgsubr
83 79 81 -20 callgsubr
hstemhm
134 95 -87 97 -67.5 84 136.5 92 -91 98 hintmask 1011111001100000
-69 callsubr
hintmask 1011111100010000
229 -622 rmoveto
-72 callgsubr
hintmask 1011111010100000
-53 callsubr
hintmask 1011111010100000
-91 callgsubr
hintmask 1011111100010000
-93 callgsubr
                </CharString>
                <CharString name="fivesixths">
                    -244 77 140 64 262 79 81 -20 callgsubr
hstemhm
132 92 -52.5 84 136.5 92 -82 91 hintmask 1111101100000000
-69 callsubr
hintmask 1111110010000000
237 -622 -100 callsubr
                </CharString>
                <CharString name="four">
                    21 -21 130 106 451 -20 29 -20 hstemhm
88 97 201 113 hintmask 11011100
568 130 rmoveto
10 106 rlineto
-79 242 hlineto
-113 -13 rlineto
-229 -201 vlineto
hintmask 11101100
2 32 90 366 12 53 rrcurveto
hintmask 11011100
-131 9 -49 -202 -26 -221 5 -143 rlinecurve
298 -130 113 130 hlineto
endchar
                </CharString>
                <CharString name="four.den">
                    -150 78 hstem
-64 callsubr
vstem
504 -151 -92 callsubr
                </CharString>
                <CharString name="four.inf">
                    -84 78 22 -21 hstemhm
-64 callsubr
hintmask 10010000
504 -85 4 callgsubr
rlineto
hintmask 01110000
-138 2 1 18 63 229 9 29 rlinecurve
-105 7 rlineto
hintmask 10110000
-36 -129 -18 -142 3 -92 221 2 rcurveline
-1 -84 rlineto
91 hlineto
-1 83 rlineto
endchar
                </CharString>
                <CharString name="four.num">
                    555 78 143 -20 hstem
-64 callsubr
vstem
504 554 -92 callsubr
                </CharString>
                <CharString name="four.small">
                    0 161 -78 78 hstemhm
-64 callsubr
hintmask 01010000
504 82 rmoveto
hintmask 10110000
-71 callgsubr
-138 2 1 18 63 229 9 29 rlinecurve
-105 7 rlineto
hintmask 01110000
-36 -129 -18 -142 3 -92 221 2 rcurveline
hintmask 10010000
-1 -84 rlineto
91 hlineto
hintmask 01010000
-1 83 rlineto
endchar
                </CharString>
                <CharString name="four.sup">
                    444 78 hstem
-64 callsubr
vstem
504 443 -92 callsubr
                </CharString>
                <CharString name="fourfifths">
                    -16 callsubr
177 78 143 -20 hstemhm
142 83 -53.5 84 107 89.5 -60 92 hintmask 1111101100000000
504 554 4 callgsubr
rlineto
hintmask 1111110100000000
-138 2 1 18 63 229 9 29 rlinecurve
-105 7 -36 -129 -18 -142 3 -92 rlinecurve
221 2 -1 -84 rlineto
91 hlineto
-1 83 rlineto
-378 -256 -73 callsubr
hintmask 1111101010000000
410 -466 -106 callgsubr
endchar
                </CharString>
                <CharString name="fraction">
                    -178 1019 hstem
33 552 vstem
137 -178 rmoveto
448 976 -104 43 -448 -976 rlineto
endchar
                </CharString>
                <CharString name="fraction.afrc">
                    299 79 hstem
74 477 vstem
74 299 -73 callsubr
endchar
                </CharString>
                <CharString name="g">
                    -26 callsubr
24 callgsubr
143 -195 rmoveto
-98 callgsubr
                </CharString>
                <CharString name="gbreve">
                    -26 callsubr
67 98 24 callgsubr
328 633 -104 callgsubr
-185 -828 rmoveto
-98 callgsubr
                </CharString>
                <CharString name="gcommaaccent">
                    -26 callsubr
hstemhm
64 121 68 130 27 123 vstemhm
404 861 -17 callgsubr
-261 -1056 rmoveto
hintmask 11110100
-98 callgsubr
                </CharString>
                <CharString name="gdotaccent">
                    -26 callsubr
76 -28 callgsubr
64 121 82 -50 callgsubr
15.5 123 vstemhm
392 642 -80 callgsubr
-122 -837 rmoveto
hintmask 11111010
-98 callgsubr
                </CharString>
                <CharString name="germandbls">
                    -8 105 -97 97 589 105 hstemhm
84 121 86 119 -20 123 -45 124 hintmask 10111010
410 396 rmoveto
hintmask 01110100
56 103 50 125 vvcurveto
78 -54 86 -126 -161 -88 -122 -161 vhcurveto
-508 121 534 vlineto
105 33 47 68 57 27 -41 -45 vhcurveto
-80 -99 -55 -85 vvcurveto
hintmask 10111010
-127 177 -25 -73 vvcurveto
-44 -48 -24 -122 13 vhcurveto
-5 -108 rlineto
230 -9 69 90 88 131 -182 34 70 vvcurveto
endchar
                </CharString>
                <CharString name="grave">
                    617 253 hstem
150 318 vstem
468 670 -99 callsubr
endchar
                </CharString>
                <CharString name="grave.cap">
                    617 253 hstem
150 318 vstem
468 670 -99 callsubr
endchar
                </CharString>
                <CharString name="greater">
                    -27 707 hstem
421 111 vstem
162 -27 rmoveto
370 304 rlineto
103 vlineto
-364 300 -69 -88 322 -258 rlineto
-12 vlineto
-325 -262 rlineto
endchar
                </CharString>
                <CharString name="greaterequal">
                    8 103 hstem
406 128 vstem
406 410 rmoveto
-8 vlineto
-304 -147 40 -96 393 194 -2 94 -381 229 -49 -92 rlineto
-19 -473 rmoveto
-103 457 103 vlineto
endchar
                </CharString>
                <CharString name="guillemotleft">
                    574 -20 hstem
42 549 vstem
228 -21 -57 callgsubr
                </CharString>
                <CharString name="guillemotleft.cap">
                    568 -20 hstem
42 549 vstem
228 45 -57 callgsubr
                </CharString>
                <CharString name="guillemotright">
                    574 -20 hstem
33 550 vstem
392 -21 -60 callsubr
                </CharString>
                <CharString name="guillemotright.cap">
                    570 -20 hstem
33 550 vstem
392 45 -60 callsubr
                </CharString>
                <CharString name="guilsinglleft">
                    -21 596 hstem
140 349 vstem
401 -21 -26 callgsubr
                </CharString>
                <CharString name="guilsinglleft.cap">
                    555 -20 hstem
140 349 vstem
401 45 -26 callgsubr
                </CharString>
                <CharString name="guilsinglright">
                    -21 596 27 callsubr
-21 -28 callsubr
                </CharString>
                <CharString name="guilsinglright.cap">
                    555 -20 27 callsubr
45 -28 callsubr
                </CharString>
                <CharString name="h">
                    21 -21 462 105 19 callgsubr
92 123 203 123 hintmask 11011100
325 462 rmoveto
57 36 -31 -98 hvcurveto
-333 123 376 vlineto
135 -62 56 -97 -70 -54 -29 -36 -43 vhcurveto
287 vlineto
hintmask 11101100
-9 callgsubr
-778 123 427 vlineto
hintmask 11011100
22 33 36 13 41 hhcurveto
endchar
                </CharString>
                <CharString name="hbar">
                    21 -21 462 101 70 77 68 11 callgsubr
92 123 203 123 hintmask 11101110
325 462 rmoveto
57 36 -31 -98 hvcurveto
-333 123 376 vlineto
132 -62 55 -97 -70 -54 -29 -35 -43 vhcurveto
134 137 77 -137 79 vlineto
hintmask 11110110
-9 callgsubr
-68 -70 -78 70 -632 123 427 vlineto
hintmask 11101110
22 33 36 13 41 hhcurveto
endchar
                </CharString>
                <CharString name="hcoslug">
                    -100 75 5 10 -6 10 -4 11 -10 10 -9 7 0 12 -11 11 -7 15 -15 26 -25 26 -15 8 -8 15 -12 12 0 14 -9 10 -10 19 -9 11 2 8 -7 32 71.5 22.5 514 -20 hstemhm
87 64 10 16 -3 8 5 40 -35 12 -1 12 14 10 -2 10 -10 42 -31 9 -1 7 3 12 -6 11 9 40 -29 13 -9 10 0 12 -4 11 -2 12 -5 16 18 11 10 8 hintmask 000000100000000000010110000010000010000010010000
537 700 rmoveto
-450 hlineto
hintmask 100000000000000000011010000000100000001000000000
-800 450 vlineto
-300 396 rmoveto
-17 11 -11 17 -16 vhcurveto
9 13 5 12 12 vvcurveto
18 -9 11 -13 -12 -8 -9 -13 vhcurveto
49 -64 rmoveto
12 -12 9 -12 9 -11 15 25 3 18 -17 17 -7 -7 -10 -9 -14 -9 rrcurveto
-39 -93 rmoveto
12 9 3 6 8 hvcurveto
-21 27 -21 22 -14 13 rrcurveto
-8 -8 -4 -11 -11 vvcurveto
-23 17 -18 22 vhcurveto
91 34 rmoveto
-22 19 13 -9 15 hhcurveto
15 9 9 13 8 hvcurveto
5 -1 rlineto
-44 -1 -27 -27 -32 hhcurveto
-22 -17 8 26 -25 hvcurveto
-23 -21 -25 -11 -32 hhcurveto
-45 -36 30 40 31 21 24 40 13 hvcurveto
-16 17 -7 13 22 vvcurveto
32 31 32 51 46 25 -30 -26 -10 -2 -8 -5 -7 vhcurveto
20 15 -8 -20 2 hvcurveto
18 12 14 10 19 hhcurveto
21 16 -15 -24 -23 -16 -17 -21 -14 -12 7 12 -6 hvcurveto
-12 -7 -12 -10 -11 -15 rrcurveto
hintmask 000000000000000000010000000000000100000000000000
-72 -105 rmoveto
-8 10 -5 -10 vlineto
hintmask 000000000000000010000000000000000100000000000000
-15 vlineto
-3 1 -1 2 2 1 1 4 1 vhcurveto
4 -1 rlineto
-2 -7 -3 -3 -6 -6 -3 4 0 hflex1
hintmask 000000000000000001000000000000010000000000000000
15 -5 5 5 7 vlineto
hintmask 000000000000000100000000100000000000000000000000
-75 -21 -27 callsubr
-7 callsubr
22 hmoveto
-52 callgsubr
hintmask 000000000000001000000000000000000000000100000000
132 -1 rmoveto
0 6 -2 4 -3 -5 -1 -5 0 hflex1
0 -6 1 -4 5 3 2 4 0 hflex1
-7 callsubr
-120 -9 rmoveto
4 hlineto
hintmask 000000000000000001000010000000000000000000000000
19 -4 5 vlineto
hintmask 000000000000000000010000000010000000000000000000
13 -6 hlineto
4 2 3 3 5 hhcurveto
7 2 -5 -6 hvcurveto
hintmask 000000000000000100000000000000010000000000000000
-14 5 -5 vlineto
hintmask 000000000010000000000000000010000000000000000000
-17 5 3 hlineto
hintmask 000000000000000001000000000010000000000000000000
13 vlineto
3 -1 3 -3 -3 -3 -3 -5 vhcurveto
-11 3 -5 vlineto
-7 callsubr
-16 hlineto
-71 5 rmoveto
6 hlineto
hintmask 000000000000000000100010000000000000000000000000
31 -6 5 vlineto
hintmask 000000000000000000010000001000000000000000000000
38 hlineto
hintmask 000000000000000001000000001000000000000000000000
-15 -5 vlineto
8 -2 -1 2 -6 hhcurveto
-8 hlineto
hintmask 000000000000000000100001000000000000000000000000
-14 3 vlineto
4 0 1 5 1 hvcurveto
5 hlineto
hintmask 000000000000000100000000100000000000000000000000
-17 -5 vlineto
5 -1 0 1 -4 hhcurveto
-3 hlineto
hintmask 000000000000000100000001000000000000000000000000
-12 7 -5 vlineto
-7 callsubr
-23 hlineto
hintmask 000000000000000010000000000000000100000000000000
133 10 rmoveto
5 hlineto
-4 3 3 -3 3 hhcurveto
3 1 2 1 hvcurveto
hintmask 000000000000000000100000000000000100000000000000
7 -18 -4 12 vvcurveto
4 4 5 7 3 3 -1 -3 2 vhcurveto
1 4 rlineto
5 -10 -5 hlineto
4 -3 -2 1 -3 hhcurveto
-2 -2 -1 -2 hvcurveto
hintmask 000000000010000000000000000000000000100000000000
-5 18 2 -11 vvcurveto
-5 -3 -4 -7 -5 -3 2 2 -2 vhcurveto
-1 -3 rlineto
-5 hlineto
hintmask 000000000000000000100000000000000000100000000000
38 38 rmoveto
-5 5 hlineto
hintmask 000000000000000000010000000000000000000100000000
14 hlineto
hintmask 000000000000000000100000000000000000000100000000
-20 vlineto
4 1 4 3 4 hhcurveto
hintmask 000000000100000000000000000000000000000010000000
7 0 5 -6 0 -9 0 -7 -3 -9 0 flex1
-6 -3 2 4 -2 hvcurveto
-3 -6 rlineto
-4 hlineto
hintmask 100000000000000000010000000000000000000010000000
39 -6 rmoveto
3 3 2 4 hvcurveto
-3 7 -9 18 0 vvcurveto
-3 5 18 -5 -4 hlineto
7 -15 6 15 rlineto
-4 5 13 -5 -4 hlineto
hintmask 000000001000000000000000000000000000000010000000
-10 -24 rlineto
-7 -3 -4 -5 -6 hhcurveto
-6 -3 3 4 3 2 2 3 hvcurveto
hintmask 100000000000000000010000000000000000000010000000
5 1 -5 -2 -2 hvcurveto
hintmask 000000010000000000000000000000000000000000000000
45 -24 rmoveto
-6 -4 vlineto
-2 -4 -2 -3 -3 -3 rrcurveto
2 -2 2 -2 1 1 1 1 1 hflex1
3 -1 rlineto
-5 -1 -2 -4 -6 hhcurveto
hintmask 100000000000000000000000000000000000000001000000
-4 0 -2 2 -3 3 -3 -3 -4 -2 -6 flex1
-7 -5 4 6 6 4 3 6 2 hvcurveto
-3 3 -2 3 4 vvcurveto
hintmask 000000000001000000000000000000000000000000100000
5 4 6 9 6 4 -4 -5 -5 -3 -2 -5 -3 vhcurveto
2 -2 4 -5 3 -3 2 2 2 3 1 2 rrcurveto
-5 6 hlineto
hintmask 000000000100000000000000000000000010000000000000
-114 4 rmoveto
11 4 hlineto
-3 -2 2 2 2 1 1 0 hvcurveto
0 -1 1 -2 -2 -2 -2 -6 vhcurveto
hintmask 100000000000000000000000000000000000000000010000
132 -13 rmoveto
hintmask 000100000000000000000000000000000000000000010000
15 9 8 11 vhcurveto
hintmask 000100000000000000000000000000000000000000000000
5 4 -2 -3 3 hvcurveto
4 6 vlineto
-16 -6 vlineto
hintmask 000000100000000000000000000000000000000000000000
9 -3 -2 3 -6 hhcurveto
-6 -4 -5 -12 hvcurveto
9 callsubr
-11 4 -6 8 vhcurveto
hintmask 000010000000000000000000000000000000000000000000
6 3 6 6 1 hvcurveto
6 hlineto
hintmask 100000000000000000000000000000000000000000000000
-10 -1 -6 -7 -11 hhcurveto
hintmask 100000000000000000000000000000000000000000010000
-13 -8 7 14 hvcurveto
hintmask 000000100000000000000000000000000000000000100000
-29 4 rmoveto
2 1 2 3 3 vvcurveto
3 -2 2 -3 -2 -2 -1 -3 -2 2 -3 3 -3 vhcurveto
hintmask 010000000000000000000000000000000000010000000000
-68 -11 rmoveto
8 callsubr
hintmask 100000000000000000000000000000000000010000000000
-6 -1 -4 -5 -8 hhcurveto
-10 -6 6 9 hvcurveto
hintmask 000000000010000000000000000000000000010000000000
10 7 6 8 11 4 -7 -10 -1 vhcurveto
hintmask 010000000000000000000000000001000000000000000000
-89 hmoveto
8 callsubr
9 callgsubr
-6 -1 -4 -5 -8 hhcurveto
hintmask 100000000000000000000000010000000000000000000000
-10 -6 6 9 hvcurveto
hintmask 000000000010000000000000010000000000000000000000
10 7 6 8 vhcurveto
hintmask 000000000010000000000000000000001000000000000000
11 4 -7 -10 -1 hvcurveto
hintmask 010000000000000000000010000001000000000000000000
-63 2 -27 callsubr
252 hmoveto
9 callsubr
0 9 7 6 9 9 7 -6 0 hflex1
hintmask 010000000000000000000010000001000000000000000000
0 -9 -7 -7 -9 -9 -7 6 0 hflex1
hintmask 000001000000000000000000000001000000010000000000
-138 2 rmoveto
5 callgsubr
-70 hmoveto
5 callgsubr
hintmask 010000000000000000000010000000000000000000000000
-22 -2 rmoveto
-52 callgsubr
9 callsubr
252 hmoveto
-52 callgsubr
9 callgsubr
-208 -10 rmoveto
4 hlineto
hintmask 000001000000000000000000000000001000000000000000
19 -5 5 5 1 vlineto
hintmask 000000000000010000000000000000001000000000000000
10 7 4 6 4 2 -1 -1 2 vhcurveto
8 2 rlineto
hintmask 010000000000000000000000000000000000100000000000
-39 4 -5 vlineto
hintmask 100000000000000000000000000000000010000000000000
-17 5 4 hlineto
hintmask 000001000000000000000000000000000010000000000000
19 -11 vlineto
hintmask 010000000000000000000000000000000010000000000000
-19 4 -5 vlineto
9 callgsubr
-17 hlineto
hintmask 100000000000000000000000000000000001000000000000
69 5 rmoveto
4 hlineto
hintmask 000001000000000000000000000000000001000000000000
19 -4 5 vlineto
hintmask 000000000010000000000000000000000000000001000000
13 -6 hlineto
5 2 3 2 4 hhcurveto
4 2 -2 -4 -3 -2 -2 -3 -2 -3 1 3 hvcurveto
1 vlineto
-1 -3 -3 -4 -1 hvcurveto
hintmask 010000000000000000000000000000000000000001000000
-12 6 -5 vlineto
hintmask 100000000000000000000000000000000001000000000000
-19 hlineto
hintmask 100000000000000000000010000000000000000000000000
-183 5 rmoveto
6 hlineto
hintmask 000000100000000000000010000000000000000000000000
31 -6 5 vlineto
hintmask 000000000000100000000001000000000000000000000000
21 -5 -5 hlineto
hintmask 000000100000000000000001000000000000000000000000
-12 16 12 -5 5 vlineto
hintmask 000000000000100000000000000100000000000000000000
21 -5 -6 hlineto
hintmask 010000000000000000000000000100000000000000000000
-31 6 -5 vlineto
hintmask 100000000000000000000001000000000000000000000000
-21 5 5 hlineto
hintmask 001000000000000000000001000000000000000000000000
14 -16 vlineto
hintmask 010000000000000000000001000000000000000000000000
-14 5 -5 vlineto
hintmask 100000000000000000000010000000000000000000000000
-21 hlineto
hintmask 100000000000000000000000000000000000000000100000
234 7 rmoveto
-2 2 -4 5 -4 4 rrcurveto
-2 -2 -1 -2 -3 vvcurveto
-4 3 -3 4 2 2 1 2 2 vhcurveto
111 -2 rmoveto
0 -3 -2 -3 -4 -4 -2 3 0 hflex1
0 3 2 3 4 4 2 -3 0 hflex1
endchar
                </CharString>
                <CharString name="hungarumlaut">
                    625 261 hstem
141 468 vstem
141 662 -95 callsubr
endchar
                </CharString>
                <CharString name="hungarumlaut.cap">
                    625 261 hstem
141 468 vstem
141 662 -95 callsubr
endchar
                </CharString>
                <CharString name="hyphen">
                    278 105 hstem
138 356 vstem
494 383 rmoveto
-356 -105 346 hlineto
endchar
                </CharString>
                <CharString name="i">
                    -73 callgsubr
83 -28 callgsubr
272 7 callsubr
hintmask 11110000
-4 callsubr
313 -635 rmoveto
10 92 rlineto
hintmask 11101000
-87 callgsubr
endchar
                </CharString>
                <CharString name="iacute">
                    -73 callgsubr
226 -20 -21 callsubr
206 674 -107 callgsubr
375 -674 rmoveto
10 92 rlineto
-87 callgsubr
endchar
                </CharString>
                <CharString name="ibreve">
                    -73 callgsubr
74 98 -21 callsubr
338 626 -104 callgsubr
243 -626 rmoveto
10 92 rlineto
-87 callgsubr
endchar
                </CharString>
                <CharString name="icircumflex">
                    -73 callgsubr
142 -20 -21 callsubr
468 622 -93 callsubr
254 -736 rmoveto
10 92 rlineto
-87 callgsubr
endchar
                </CharString>
                <CharString name="idieresis">
                    -73 callgsubr
83 -28 callgsubr
153.5 125 -3.5 124 1 125 hintmask 11110100
523 635 -103 callgsubr
428 -635 rmoveto
10 92 rlineto
hintmask 11101000
-87 callgsubr
endchar
                </CharString>
                <CharString name="igrave">
                    -73 callgsubr
-21 callsubr
462 670 -99 callsubr
154 -617 rmoveto
10 92 rlineto
-87 callgsubr
endchar
                </CharString>
                <CharString name="imacron">
                    -73 callgsubr
110 105 -21 callsubr
530 767 -63 callgsubr
51 -662 rmoveto
10 92 rlineto
-87 callgsubr
endchar
                </CharString>
                <CharString name="iogonek">
                    -73 callgsubr
83 -28 callgsubr
184 117 -29 7 callsubr
hintmask 11101000
-4 callsubr
154 -787 rmoveto
hintmask 11110000
-89 8 -32 17 26 vvcurveto
25 21 30 70 46 vhcurveto
189 hlineto
10 92 rlineto
hintmask 11100100
-87 callgsubr
hintmask 11110000
201 hlineto
-69 -49 -30 -43 -43 vvcurveto
-59 63 -47 164 -8 vhcurveto
endchar
                </CharString>
                <CharString name="j">
                    -194 115 539 92 83 -28 callgsubr
315.5 -50 callgsubr
-120 123 hintmask 11110000
440 635 rmoveto
6 -70 callsubr
-128 hlineto
-5 -156 rlineto
-208 -83 rmoveto
-9 -86 rlineto
hintmask 11101000
227 -12 rlineto
-412 vlineto
-97 -26 -17 -228 -7 vhcurveto
-4 -115 rlineto
287 6 94 93 163 vvcurveto
484 vlineto
endchar
                </CharString>
                <CharString name="k">
                    -38 callgsubr
hintmask 1001010110000000
458 -8 rmoveto
hintmask 0011100110000000
-1 callsubr
hintmask 0011010110000000
-4 callgsubr
hintmask 0101011010000000
-9 callgsubr
-778 123 236 vlineto
66 2 rlineto
endchar
                </CharString>
                <CharString name="kcommaaccent">
                    -38 callgsubr
45 131 hintmask 1001010111000000
458 -8 rmoveto
hintmask 0011100111000000
-1 callsubr
hintmask 0011010111000000
-4 callgsubr
hintmask 0101011011000000
-9 callgsubr
-778 123 236 vlineto
66 2 rlineto
-41 -542 -100 callgsubr
                </CharString>
                <CharString name="l">
                    0 92 592 92 -88 -20 hstemhm
255 123 -43 callsubr
endchar
                </CharString>
                <CharString name="lacute">
                    -2 callsubr
186 898 -107 callgsubr
353 -898 rmoveto
-32 callsubr
endchar
                </CharString>
                <CharString name="lcaron">
                    -52 callsubr
121 119 hintmask 11011000
479 628 -78 callgsubr
60 -628 rmoveto
-44 callsubr
hintmask 10111000
-10 -88 rlineto
hintmask 11011000
-44 callgsubr
endchar
                </CharString>
                <CharString name="lcommaaccent">
                    -52 callsubr
-119 131 -43 callsubr
hintmask 11001000
155 -296 -100 callgsubr
                </CharString>
                <CharString name="ldot">
                    0 92 196 142 254 92 -88 -20 hstemhm
255 123 183 121.5 hintmask 11101100
539 hmoveto
-44 callsubr
hintmask 11011100
-10 -88 rlineto
hintmask 11101100
-44 callgsubr
595 288 rmoveto
7 142 rlineto
-121 hlineto
-8 -142 rlineto
endchar
                </CharString>
                <CharString name="less">
                    -26 707 hstem
95 112 vstem
463 681 rmoveto
-368 -302 rlineto
-103 vlineto
367 -302 69 87 -324 261 rlineto
12 vlineto
322 260 rlineto
endchar
                </CharString>
                <CharString name="lessequal">
                    8 103 hstem
91.5 -50 callgsubr
vstem
219 410 rmoveto
303 174 -49 92 -381 -229 -1 -94 392 -194 40 96 -304 147 rlineto
322 -291 rmoveto
-457 -103 457 hlineto
endchar
                </CharString>
                <CharString name="lslash">
                    -2 callsubr
539 hmoveto
11 92 rlineto
-172 302 hlineto
130 66 -19 80 -111 -56 rlineto
292 -278 vlineto
hintmask 10110000
-10 -88 25 callgsubr
165 -8 rlineto
-259 vlineto
-137 -69 19 -80 118 60 rlineto
-240 -171 -92 vlineto
endchar
                </CharString>
                <CharString name="m">
                    17 callgsubr
60 114 99 87 97 114 hintmask 11001110
233 462 rmoveto
27 13 -16 -47 hvcurveto
-399 87 437 vlineto
16 17 17 9 21 hhcurveto
29 13 -16 -48 hvcurveto
-398 114 440 vlineto
83 -31 44 -64 -49 -38 -27 -33 -30 vhcurveto
37 -11 -26 23 -44 hhcurveto
-45 -39 -26 -34 -30 hvcurveto
hintmask 10101110
-4 48 rlineto
hintmask 10011110
-105 -6 rlineto
4 -126 1 -175 -248 vvcurveto
114 hlineto
hintmask 11001110
182 -2 147 -2 104 vhcurveto
19 20 22 10 21 hhcurveto
endchar
                </CharString>
                <CharString name="macron">
                    -23 callgsubr
                </CharString>
                <CharString name="macron.cap">
                    -23 callgsubr
                </CharString>
                <CharString name="minus">
                    279 103 10 callgsubr
382 rmoveto
-451 -103 451 hlineto
endchar
                </CharString>
                <CharString name="mu">
                    2 callsubr
168 104 -72 -21 28 -21 22 -21 544 -14 callgsubr
-54 callsubr
hintmask 0100010011100000
206 -182 rmoveto
-4 187 rlineto
hintmask 0110000011100000
-13 20 24 -6 28 hhcurveto
63 48 34 40 37 hvcurveto
hintmask 0101000011100000
7 -63 rlineto
hintmask 0100100101100000
112 7 rlineto
-7 126 -2 174 248 vvcurveto
-123 hlineto
hintmask 0110000011100000
-179 2 -143 2 -103 vhcurveto
-23 -34 -37 -14 -42 hhcurveto
-57 -34 28 86 hvcurveto
352 vlineto
hintmask 1000011001100000
-123 -7 rlineto
-742 vlineto
endchar
                </CharString>
                <CharString name="multiply">
                    562 -20 24 -20 hstemhm
79 467 hintmask 01100000
469 94 rmoveto
77 75 -159 162 rlineto
hintmask 10100000
155 157 -74 74 -154 -156 rlineto
hintmask 01100000
-158 160 -77 -77 158 -161 -154 -156 74 -74 154 -70 callsubr
endchar
                </CharString>
                <CharString name="n">
                    17 callgsubr
93 123 202 123 hintmask 11001100
325 462 -77 callsubr
hintmask 10101100
-7 63 rlineto
hintmask 10011100
-65 callsubr
hintmask 11001100
-59 callgsubr
endchar
                </CharString>
                <CharString name="nacute">
                    -36 callgsubr
245 -20 -15 callsubr
hintmask 11001110
181 688 -107 callgsubr
144 -226 -69 callgsubr
                </CharString>
                <CharString name="naira">
                    21 -21 171 80 155 97 -78 80 183 -20 hstemhm
108 98.5 228 93.5 hintmask 11011110
206 472 rmoveto
6 hlineto
102 -221 rlineto
-107 hlineto
222 -43 rmoveto
-99 217 rlineto
104 hlineto
1 -217 rlineto
-6 -208 rmoveto
99 171 69 98 -69 hlineto
hintmask 11101110
137 70 97 -70 185 -96 vlineto
hintmask 11011110
1 -183 rlineto
-139 hlineto
-83 183 rlineto
-103 hlineto
hintmask 11101110
-185 -71 -97 71 -137 -71 -98 71 -171 100 vlineto
-1 171 rlineto
143 hlineto
endchar
                </CharString>
                <CharString name="ncaron">
                    -36 callgsubr
238 -20 -15 callsubr
hintmask 11001110
324 629 -101 callgsubr
9 -167 -69 callgsubr
                </CharString>
                <CharString name="ncommaaccent">
                    17 callgsubr
93 123 55 131 16 123 hintmask 11001010
325 462 -77 callsubr
hintmask 10101010
-7 63 rlineto
hintmask 10011010
-65 callsubr
hintmask 11001010
-59 callgsubr
hintmask 11001110
-74 -758 -100 callgsubr
                </CharString>
                <CharString name="nine">
                    269 85 251 97 hstem
73 114 248 115 vstem
198 -24 rmoveto
243 109 109 154 193 vvcurveto
177 -96 93 -140 -129 -112 -90 -147 -186 195 -68 156 112 vhcurveto
-25 -98 -75 -75 -177 -72 rrcurveto
40 400 rmoveto
81 49 46 67 74 58 -58 -128 vhcurveto
-8 0 -7 -7 vvcurveto
-131 -82 -117 38 125 vvcurveto
endchar
                </CharString>
                <CharString name="nine.den">
                    -67 -58 callgsubr
-253 -97 callsubr
                </CharString>
                <CharString name="nine.inf">
                    -166 -21 186 -58 callgsubr
-187 -97 callsubr
                </CharString>
                <CharString name="nine.num">
                    638 -58 callgsubr
452 -97 callsubr
                </CharString>
                <CharString name="nine.small">
                    166 -58 callgsubr
-20 -97 callsubr
                </CharString>
                <CharString name="nine.sup">
                    527 -58 callgsubr
341 -97 callsubr
                </CharString>
                <CharString name="notequal">
                    22 -21 159 104 140 104 10 callgsubr
160 rmoveto
104 -199 vlineto
51 140 rlineto
148 104 -110 hlineto
47 130 -93 29 -58 -159 rlineto
-237 -104 199 hlineto
-51 -140 rlineto
-148 -104 111 hlineto
-48 -131 94 -28 58 159 rlineto
endchar
                </CharString>
                <CharString name="ntilde">
                    -36 callgsubr
97 26 callgsubr
-15 callsubr
hintmask 11001011
397 644 -79 callgsubr
hintmask 11000111
-86 callgsubr
hintmask 11001011
-25 callsubr
-72 -182 -77 callsubr
hintmask 10101011
-7 63 rlineto
hintmask 10011011
-65 callsubr
hintmask 11001011
-59 callgsubr
endchar
                </CharString>
                <CharString name="numbersign">
                    21 -21 179 102 128 102 177 -20 hstem
169 84.5 116 85 vstem
363 281 rmoveto
-116 hlineto
13 128 rlineto
116 hlineto
-41 -409 rmoveto
85 hlineto
18 179 rlineto
104 hlineto
11 102 rlineto
-105 hlineto
13 128 rlineto
103 hlineto
11 102 rlineto
-104 hlineto
18 177 rlineto
-85 hlineto
-18 -177 rlineto
-116 hlineto
18 177 rlineto
-85 hlineto
-17 -177 rlineto
-103 hlineto
-10 -102 rlineto
102 hlineto
-12 -128 rlineto
-102 hlineto
-11 -102 rlineto
103 hlineto
-18 -179 rlineto
84 hlineto
18 179 rlineto
116 hlineto
endchar
                </CharString>
                <CharString name="numero">
                    0 182 -85 85 506 -20 27 -20 hstemhm
38 94.5 89.5 95 29 255 -246 235 hintmask 01011110
463 227 rmoveto
81 57 93 155 148 -45 72 -72 -81 -57 -94 -154 -148 46 -72 71 hvcurveto
hintmask 10101100
-229 -227 rmoveto
83 688 -99 hlineto
8 -375 rlineto
-2 hlineto
-99 375 rlineto
-87 -688 99 hlineto
-9 416 rlineto
3 hlineto
hintmask 01011101
459 -319 rmoveto
85 -235 -85 vlineto
endchar
                </CharString>
                <CharString name="o">
                    -29 callsubr
-47 callsubr
295 -17 -105 callsubr
                </CharString>
                <CharString name="oacute">
                    -29 callsubr
216 -20 -47 callsubr
182 681 -107 callgsubr
113 -698 -105 callsubr
                </CharString>
                <CharString name="obreve">
                    -29 callsubr
64 98 -47 callsubr
314 633 -104 callgsubr
-19 -650 -105 callsubr
                </CharString>
                <CharString name="ocircumflex">
                    -29 callsubr
119 21 callgsubr
61 125 255 124 hintmask 11011100
444 629 rmoveto
75 72 -204 -70 callsubr
-7 hlineto
hintmask 11101100
-202 -169 rlineto
hintmask 11011100
59 -58 138 113 rlineto
-8 -760 -105 callsubr
                </CharString>
                <CharString name="odieresis">
                    -29 callsubr
73 -28 callgsubr
61 125 -57.5 -75 callsubr
-59 124 hintmask 11101100
498 642 -33 callgsubr
167 -659 -105 callsubr
                </CharString>
                <CharString name="oe">
                    -9 99 -97 101 155 70 143 99 hstemhm
34 121 119 103 102 108 hintmask 10111110
220 90 rmoveto
-45 -20 64 133 124 22 51 35 39 23 -68 -128 -122 -19 -54 -35 hvcurveto
209 371 rmoveto
36 13 -48 -89 1 hvcurveto
-26 -1 -42 -2 -35 -2 rrcurveto
103 3 19 39 31 hhcurveto
hintmask 01111110
142 -468 rmoveto
10 101 -167 1 -33 38 -4 113 rlinecurve
210 6 rlineto
196 12 -47 113 -105 hhcurveto
-47 -40 -28 -47 -29 hvcurveto
49 -24 -37 26 -48 hhcurveto
-113 -75 -114 -185 hvcurveto
hintmask 10111110
-182 65 -89 98 54 43 32 56 29 vhcurveto
hintmask 01111110
40 -58 74 -30 134 2 rrcurveto
endchar
                </CharString>
                <CharString name="ogonek">
                    -56 callgsubr
                </CharString>
                <CharString name="ogonek.cap">
                    -56 callgsubr
                </CharString>
                <CharString name="ograve">
                    -29 callsubr
208 -20 -47 callsubr
438 677 -99 callsubr
-108 -641 -105 callsubr
                </CharString>
                <CharString name="ohungarumlaut">
                    -29 callsubr
-47 callsubr
134 669 -95 callsubr
-73 -684 -105 callsubr
                </CharString>
                <CharString name="omacron">
                    -29 callsubr
100 105 -47 callsubr
505 774 -63 callgsubr
-210 -686 -105 callsubr
                </CharString>
                <CharString name="one">
                    0 103 411 196 -9 -20 29 -20 hstemhm
282 119 hintmask 10011000
557 hmoveto
10 103 rlineto
-166 607 hlineto
hintmask 10101000
-119 -9 rlineto
-81 vlineto
hintmask 11001000
-171 -19 3 -89 168 4 rlineto
-413 -186 -103 vlineto
endchar
                </CharString>
                <CharString name="one.den">
                    -233 -51 callsubr
-233 -66 callgsubr
                </CharString>
                <CharString name="one.inf">
                    -167 -51 callsubr
-167 -66 callgsubr
                </CharString>
                <CharString name="one.num">
                    472 -51 callsubr
472 -66 callgsubr
                </CharString>
                <CharString name="one.small">
                    0 -51 callsubr
hmoveto
-99 callgsubr
endchar
                </CharString>
                <CharString name="one.sup">
                    361 -51 callsubr
361 -66 callgsubr
                </CharString>
                <CharString name="oneeighth">
                    -48 callgsubr
83 -36 callsubr
134 95 -87 97 45 94 12 92 -89 98 hintmask 1011111101000000
491 472 rmoveto
-99 callgsubr
-78 -173 -73 callsubr
229 -622 rmoveto
hintmask 1011111101010000
-72 callgsubr
hintmask 1011111011100000
-82 callsubr
vhcurveto
hintmask 1101111011000000
-43 callgsubr
hintmask 1011111101000000
-49 callsubr
hintmask 1011111011100000
-91 callgsubr
hintmask 1011111101010000
-93 callgsubr
                </CharString>
                <CharString name="onefifth">
                    -246 88 281 82 94 -36 callsubr
171.5 84 28.5 94 14 92 hintmask 01111010
491 472 rmoveto
-99 callgsubr
-78 -173 -73 callsubr
hintmask 11111111
410 -466 -106 callgsubr
endchar
                </CharString>
                <CharString name="onehalf">
                    -233 83 281 85 83 -36 callsubr
284 94 -4 98 hintmask 11111100
491 472 rmoveto
-99 callgsubr
-78 -173 -73 callsubr
411 -611 rmoveto
83 -216 vlineto
hintmask 11111010
-97 callgsubr
endchar
                </CharString>
                <CharString name="onequarter">
                    -150 78 371 -36 callsubr
142 83 59 94 -15.5 89.5 hintmask 11110100
491 472 rmoveto
-99 callgsubr
-78 -173 -73 callsubr
hintmask 11111010
430 -529 -92 callsubr
                </CharString>
                <CharString name="onesixth">
                    -244 77 140 64 262 -36 callsubr
132 92 60 94 24 91 hintmask 11111110
491 472 rmoveto
-99 callgsubr
-78 -173 -73 callsubr
237 -622 rmoveto
hintmask 11111111
99 83 63 92 129 -157 35 -108 -82 hvcurveto
15 66 53 39 140 45 -32 81 rcurveline
-184 -59 -88 -101 -127 vvcurveto
hintmask 11111110
-118 73 -63 106 vhcurveto
hintmask 11111111
9 77 rmoveto
-53 -42 35 78 -1 hvcurveto
93 48 85 -19 -70 vvcurveto
-46 -35 -26 -47 vhcurveto
endchar
                </CharString>
                <CharString name="onethird">
                    -246 -13 callgsubr
94 -36 callsubr
284 94 13 94 hintmask 11111100
491 472 rmoveto
-99 callgsubr
-78 -173 -73 callsubr
84 -624 rmoveto
hintmask 11111110
-105 callgsubr
endchar
                </CharString>
                <CharString name="ordfeminine">
                    119 81 72 75 112 63 85 88 hstem
126 102 155 100 vstem
294 347 rmoveto
-41 -25 15 38 43 32 25 123 -12 hvcurveto
1 -32 1 -26 1 -22 rrcurveto
-17 -28 -33 -12 -31 hhcurveto
104 -67 rmoveto
93 5 rlineto
-3 55 -5 64 83 vvcurveto
154 -65 50 -254 4 vhcurveto
-9 -88 168 -4 50 -15 9 -66 rlinecurve
-176 4 -80 -65 -82 vvcurveto
-67 57 -40 79 56 43 22 26 30 vhcurveto
3 -18 4 -19 -3 vvcurveto
-276 -80 rmoveto
-81 380 81 vlineto
endchar
                </CharString>
                <CharString name="ordmasculine">
                    119 81 72 81 263 81 hstem
108 101 205 102 vstem
108 475 rmoveto
-130 78 -73 111 120 99 89 133 128 -79 75 -111 -118 -100 -90 -132 vhcurveto
206 -122 rmoveto
-66 -39 43 96 81 35 43 65 68 37 -44 -94 -83 -35 -42 -65 hvcurveto
189 -234 rmoveto
81 -382 -81 vlineto
endchar
                </CharString>
                <CharString name="oslash">
                    24 callsubr
hstemhm
61 122 261 121 hintmask 10101100
183 286 -68 callgsubr
hintmask 10011100
22 callsubr
hintmask 01101100
-33 callsubr
hintmask 10101100
6 callgsubr
                </CharString>
                <CharString name="oslashacute">
                    24 callsubr
256 15 callgsubr
261 121 hintmask 10101110
182 681 -107 callgsubr
1 -395 -68 callgsubr
hintmask 10011110
22 callsubr
hintmask 01101110
-33 callsubr
hintmask 10101110
6 callgsubr
                </CharString>
                <CharString name="otilde">
                    -29 callsubr
68 26 callgsubr
hstemhm
61 125 255 124 hintmask 11101100
398 637 -79 callgsubr
hintmask 11011100
-86 callgsubr
hintmask 11101100
-25 callsubr
-103 -654 -105 callsubr
                </CharString>
                <CharString name="p">
                    2 callsubr
168 105 375 101 21 callsubr
hstemhm
96 122 223 122 hintmask 01110011
291 91 rmoveto
-27 -22 5 9 -24 hvcurveto
-1 143 -2 103 -1 80 rrcurveto
22 30 35 13 33 7 callgsubr
-73 -273 rmoveto
169 vlineto
-1 10 11 0 10 hhcurveto
173 141 116 202 160 -85 103 -116 -64 -52 -31 -37 -38 hvcurveto
hintmask 01101011
-6 56 rlineto
hintmask 10100111
-112 -6 rlineto
5 -111 1 -157 -285 vvcurveto
-189 vlineto
endchar
                </CharString>
                <CharString name="paragraph">
                    100 98 388 114 hstemhm
54 112 92 100 -78.5 75.5 84 101 hintmask 11101100
439 198 rmoveto
-30 1 -28 3 -26 5 rrcurveto
379 vlineto
25 2 28 0 31 -2 rrcurveto
-273 -188 rmoveto
75 33 65 80 31 vhcurveto
1 -337 rlineto
-74 35 -40 59 72 vvcurveto
hintmask 11110100
192 -516 rmoveto
223 vlineto
-3 26 27 -2 28 hhcurveto
-203 vlineto
101 11 rlineto
792 vlineto
-319 2 -167 -129 -193 vvcurveto
-119 72 -92 132 -43 vhcurveto
-255 vlineto
endchar
                </CharString>
                <CharString name="parenleft">
                    -231 1041 hstem
121 121 vstem
450 810 -55 callsubr
                </CharString>
                <CharString name="parenleft.cap">
                    787 -20 hstem
121 121 vstem
450 861 -55 callsubr
                </CharString>
                <CharString name="parenright">
                    -231 1042 hstem
383 122 vstem
175 -231 -55 callgsubr
                </CharString>
                <CharString name="parenright.cap">
                    785 -20 hstem
383 122 vstem
175 -180 -55 callgsubr
                </CharString>
                <CharString name="percent">
                    5 -21 23 -21 716 -20 22 -20 hstemhm
52 214 93 214 hintmask 01011100
52 549 rmoveto
-90 42 -52 59 63 50 59 94 90 -42 54 -59 -63 -50 -60 -95 vhcurveto
hintmask 10101100
81 -565 rmoveto
436 670 -77 48 -436 -669 rlineto
hintmask 01011100
517 106 rmoveto
90 -42 54 -58 -63 -51 -60 -95 -90 43 -52 58 64 49 59 94 vhcurveto
endchar
                </CharString>
                <CharString name="period">
                    0 155 hstem
221 169 vstem
386 hmoveto
8 19 callsubr
-8 25 callsubr
                </CharString>
                <CharString name="periodcentered">
                    258 155 hstem
228 169 vstem
396 258 rmoveto
2 19 callsubr
-2 25 callsubr
                </CharString>
                <CharString name="peso">
                    21 -21 389 99 -91 87 115 100 -12 -20 hstemhm
111 113 hintmask 10110100
224 484 rmoveto
112 vlineto
115 14 67 -42 17 -84 rrcurveto
-199 -191 rmoveto
104 199 vlineto
-16 -88 -70 -27 -113 11 rrcurveto
hintmask 11001100
378 96 rmoveto
99 -65 vlineto
-14 164 -144 79 -268 -44 rrcurveto
-199 -75 -99 75 -389 113 186 vlineto
158 17 116 62 31 124 rrcurveto
endchar
                </CharString>
                <CharString name="plus">
                    279 103 hstem
258 110 vstem
554 279 rmoveto
103 -186 197 -110 -197 -188 -103 188 -198 110 198 vlineto
endchar
                </CharString>
                <CharString name="plusminus">
                    54 103 170 104 hstem
258 110 vstem
545 54 rmoveto
1 103 rlineto
-178 170 178 hlineto
1 104 rlineto
-179 188 -110 -188 -180 -104 180 -170 -179 -103 hlineto
endchar
                </CharString>
                <CharString name="published">
                    8 64 544 64 hstem
47 69 107 74 211 69 vstem
47 338 rmoveto
-207 101 -123 154 -5 callsubr
-152 -109 18 callgsubr
74 100 116 8 callgsubr
-112 -76 98 172 vhcurveto
181 -174 rmoveto
89 vlineto
79 16 56 49 73 vvcurveto
91 -68 42 -141 -19 vhcurveto
-341 vlineto
endchar
                </CharString>
                <CharString name="q">
                    2 callsubr
167 101 375 106 10 callsubr
225 123 hintmask 10111100
408 -193 rmoveto
hintmask 01111100
123 11 rlineto
719 vlineto
20 -51 -51 10 -59 hhcurveto
-162 -147 -120 -201 -160 85 -101 118 59 49 26 33 36 hvcurveto
-95 42 rmoveto
-77 -53 63 127 123 58 62 83 28 27 -5 -10 29 hvcurveto
-326 vlineto
-21 -29 -32 -13 -34 hhcurveto
endchar
                </CharString>
                <CharString name="question">
                    0 143 496 115 hstem
189 155.5 71.5 132 vstem
99 639 rmoveto
263 -19 54 -34 -44 vvcurveto
-66 -178 -52 -8 -161 vhcurveto
87 -3 rlineto
15 142 216 47 125 vvcurveto
89 -97 75 -340 16 vhcurveto
232 -754 rmoveto
3 143 rlineto
-155 hlineto
-4 -143 rlineto
endchar
                </CharString>
                <CharString name="questiondown">
                    545 143 hstem
77 132 71.5 155 vstem
283 688 rmoveto
-5 -143 rlineto
155 hlineto
5 143 rlineto
89 -639 rmoveto
-264 19 -54 35 43 vvcurveto
67 178 51 9 161 vhcurveto
-88 3 rlineto
-15 -142 -216 -47 -125 vvcurveto
-89 97 -74 340 -17 vhcurveto
endchar
                </CharString>
                <CharString name="quotedbl">
                    414 334 hstem
135 138.5 108.5 138 vstem
470 414 rmoveto
52 285 -4 49 rlineto
-139 hlineto
6 -334 rlineto
-162 hmoveto
52 285 -3 49 rlineto
-140 hlineto
6 -334 rlineto
endchar
                </CharString>
                <CharString name="quotedblbase">
                    -171 -21 22 -21 hstemhm
144 132 114 134 hintmask 01110000
102 -173 rmoveto
hintmask 10110000
60 -19 94 92 45 144 -40 121 rlinecurve
-152 -8 rlineto
hintmask 01110000
49 -114 -3 -132 -53 -84 rrcurveto
242 1 rmoveto
60 -19 97 89 47 144 -36 123 rlinecurve
-152 -7 45 -114 -4 -133 -57 -83 rlinecurve
endchar
                </CharString>
                <CharString name="quotedblleft">
                    410 357 hstem
106 134 114 131 vstem
527 748 rmoveto
-61 19 -93 -92 -45 -144 41 -121 rlinecurve
151 8 -49 115 3 132 53 83 rlinecurve
-242 hmoveto
-60 19 -96 -90 -47 -144 37 -123 rlinecurve
150 8 -44 113 4 133 56 84 rlinecurve
endchar
                </CharString>
                <CharString name="quotedblright">
                    393 357 hstem
148 132 116 133 vstem
106 412 rmoveto
61 -19 93 92 46 145 -41 120 rlinecurve
-151 -8 49 -114 -4 -132 -53 -84 rlinecurve
244 1 rmoveto
60 -19 96 89 48 144 -37 123 rlinecurve
-151 -7 45 -114 -5 -133 -56 -83 rlinecurve
endchar
                </CharString>
                <CharString name="quoteleft">
                    410 357 hstem
226 138 vstem
418 748 rmoveto
-65 19 -97 -88 -63 -144 51 -125 rlinecurve
156 8 -56 118 11 130 63 82 rlinecurve
endchar
                </CharString>
                <CharString name="quoteright">
                    394 357 hstem
274 139 vstem
220 414 rmoveto
65 -20 97 88 63 144 -50 125 rlinecurve
-157 -8 56 -118 -11 -131 -63 -80 rlinecurve
endchar
                </CharString>
                <CharString name="quotesinglbase">
                    -170 -21 hstem
267 138 vstem
212 -172 rmoveto
65 -19 97 91 64 143 -52 122 rlinecurve
-155 -8 55 -113 -9 -133 -65 -83 rlinecurve
endchar
                </CharString>
                <CharString name="quotesingle">
                    409 339 hstem
261 148.5 vstem
349 409 rmoveto
62 289 -3 50 rlineto
-149 hlineto
4 -339 rlineto
endchar
                </CharString>
                <CharString name="r">
                    -6 callgsubr
hstemhm
215 121 hintmask 11010000
494 hmoveto
-62 callgsubr
hintmask 10110000
-5 130 25 callgsubr
-79 callsubr
endchar
                </CharString>
                <CharString name="racute">
                    -6 callgsubr
234 27 callgsubr
207 684 -107 callgsubr
287 -684 rmoveto
-62 callgsubr
hintmask 10111000
-5 130 rlineto
hintmask 11011000
-79 callsubr
endchar
                </CharString>
                <CharString name="rcaron">
                    -6 callgsubr
227 27 callgsubr
349 625 -101 callgsubr
153 -625 rmoveto
-62 callgsubr
hintmask 10111000
-5 130 rlineto
hintmask 11011000
-79 callsubr
endchar
                </CharString>
                <CharString name="rcommaaccent">
                    -6 callgsubr
hstemhm
215 121 -101 131 hintmask 11010000
494 hmoveto
-62 callgsubr
hintmask 10110000
-5 130 25 callgsubr
-79 callsubr
hintmask 11001000
135 -296 -100 callgsubr
                </CharString>
                <CharString name="registered">
                    208 59 176 166 86 59 hstem
40 65 111 67 237 65 vstem
585 489 rmoveto
163 -116 105 -155 -3 vhcurveto
-162 -2 -112 -112 -166 vvcurveto
-164 107 -102 163 155 120 114 167 vhcurveto
-65 -7 rmoveto
-136 -88 -79 -121 -121 -85 77 136 134 85 81 123 122 85 -77 -136 vhcurveto
-151 -129 rmoveto
73 8 -67 98 rlineto
28 20 21 28 28 vvcurveto
45 -48 45 -160 -21 vhcurveto
-248 67 87 31 vlineto
endchar
                </CharString>
                <CharString name="registered.alt">
                    8 64 205 239 100 64 hstem
47 69 97 74 221 69 vstem
47 338 rmoveto
-207 103 -123 152 -5 callsubr
-150 -111 18 callgsubr
76 100 114 8 callgsubr
-110 -78 98 172 vhcurveto
239 -178 rmoveto
80 9 -56 140 rlineto
25 28 17 36 36 vvcurveto
61 -45 63 -163 -27 vhcurveto
-342 74 108 vlineto
32 2 rlineto
endchar
                </CharString>
                <CharString name="ring">
                    612 241 hstem
172 298 vstem
321 853 -83 callgsubr
endchar
                </CharString>
                <CharString name="ring.cap">
                    612 241 hstem
172 298 vstem
321 853 -83 callgsubr
endchar
                </CharString>
                <CharString name="ruble">
                    0 208 -86 86 79 90 -86 87 217 101 -9 -20 hstemhm
134 119 201 118 hintmask 01101011
454 491 rmoveto
hintmask 01011011
-87 -58 -24 -143 -2 vhcurveto
217 vlineto
hintmask 01101011
133 10 68 -35 -79 vvcurveto
12 -369 rmoveto
9 86 rlineto
-222 hlineto
hintmask 01010111
83 vlineto
204 13 115 63 138 vvcurveto
156 -151 60 -287 -34 vhcurveto
hintmask 01101011
-310 -81 -90 81 -75 -81 -90 81 vlineto
hintmask 10101011
-122 119 vlineto
hintmask 01101011
122 vlineto
endchar
                </CharString>
                <CharString name="rupee">
                    -9 98 -73 -21 26 -21 30 -21 552 -20 145 -20 25 -20 hstemhm
70 92.5 212.5 99 23 102 hintmask 0100101101000000
259 -5 rmoveto
hintmask 0001110101000000
99 14 -80 290 rlineto
40 49 29 67 78 vvcurveto
135 -82 86 -195 -28 vhcurveto
hintmask 0010101111000000
-686 95 vlineto
-5 237 39 2 rlineto
386 322 rmoveto
-147 12 -63 -79 -80 vvcurveto
hintmask 1000101111000000
-118 122 -72 -79 vvcurveto
hintmask 1000101101000000
-37 -28 -25 -88 6 vhcurveto
5 -98 rlineto
162 -9 51 82 79 117 -125 82 73 vvcurveto
hintmask 0001101111000000
34 24 23 90 -8 vhcurveto
endchar
                </CharString>
                <CharString name="rupeeindia">
                    384 85 116 103 hstem
89 458 vstem
546 49 rmoveto
-147 106 -76 54 -81 27 112 27 70 56 23 65 rrcurveto
92 85 -88 hlineto
-10 48 -31 41 -51 27 rrcurveto
181 hlineto
7 103 rlineto
-444 hlineto
-8 -101 152 -15 67 -44 20 -59 rlinecurve
-236 -85 236 hlineto
-20 -58 -64 -40 -142 -9 -19 -89 rcurveline
139 -38 52 -37 174 -132 rrcurveto
endchar
                </CharString>
                <CharString name="s">
                    -6 callsubr
0 callgsubr
hintmask 11011000
499 558 rmoveto
hintmask 10111000
-86 callsubr
endchar
                </CharString>
                <CharString name="sacute">
                    -6 callsubr
218 -20 0 callgsubr
hintmask 10111100
186 675 -107 callgsubr
hintmask 11011100
313 -117 rmoveto
hintmask 10111100
-86 callsubr
endchar
                </CharString>
                <CharString name="scaron">
                    -6 callsubr
224 -20 0 callgsubr
hintmask 10111100
329 616 -101 callgsubr
hintmask 11011100
178 -58 rmoveto
hintmask 10111100
-86 callsubr
endchar
                </CharString>
                <CharString name="scedilla">
                    -6 102 -74 -21 457 100 -100 103 hstemhm
107 127 90 110 -31 128 hintmask 10011010
210 -256 rmoveto
hintmask 01011100
149 14 75 49 61 vvcurveto
41 -34 46 -91 46 vhcurveto
hintmask 01011010
164 22 58 66 72 139 -297 31 75 vvcurveto
40 63 24 206 -18 vhcurveto
hintmask 10101010
-4 106 rlineto
hintmask 10011010
-289 20 -103 -91 -95 -139 296 -20 -79 vvcurveto
-43 -68 -26 -221 15 vhcurveto
-4 -106 rlineto
hintmask 10011100
47 -2 43 0 38 2 -12 -27 rcurveline
66 -34 32 -28 -22 vvcurveto
-21 -35 -14 -87 -10 vhcurveto
endchar
                </CharString>
                <CharString name="schwa">
                    -14 100 146.5 72 158.5 102 hstem
73 120 240 121 vstem
285 -14 rmoveto
145 124 130 170 180 -93 103 -357 -4 hvcurveto
-12 -102 244 -5 83 -37 13 -112 rlinecurve
-356 -9 rlineto
-192 -20 75 -122 154 hhcurveto
23 100 rmoveto
-78 -34 53 90 -3 hvcurveto
240 7 rlineto
-103 -6 -44 -47 -75 hhcurveto
endchar
                </CharString>
                <CharString name="scommaaccent">
                    -6 callsubr
hstemhm
107 127 14 131 24 128 hintmask 11010100
499 558 rmoveto
hintmask 10110100
-86 callsubr
hintmask 10111100
-275 -758 -100 callgsubr
                </CharString>
                <CharString name="section">
                    -124 105 612 105 hstemhm
66 109 -63 126 149 126 -64 110 hintmask 11100100
175 299 rmoveto
29 40 28 54 20 vhcurveto
88 -35 92 -24 -41 vvcurveto
-30 -39 -28 -53 -19 vhcurveto
-89 34 -93 24 42 vvcurveto
hintmask 11011000
338 -240 rmoveto
46 -35 33 -47 27 vhcurveto
hintmask 11010100
72 32 56 48 60 132 -321 20 70 vvcurveto
32 54 48 225 -14 vhcurveto
-6 105 rlineto
-295 12 -104 -109 -86 vvcurveto
-46 35 -33 47 -26 vhcurveto
hintmask 11101000
-72 -32 -56 -47 -60 -133 321 -22 -68 vvcurveto
-33 -57 -48 -223 14 vhcurveto
-4 -105 rlineto
hintmask 11011000
306 -12 104 110 85 vvcurveto
endchar
                </CharString>
                <CharString name="semicolon">
                    -170 -21 547 -28 callgsubr
235 169 -139 140 hintmask 11100000
403 356 rmoveto
2 156 -8 callgsubr
-2 -156 25 callgsubr
-24 -527 rmoveto
65 -20 97 88 66 141 -50 125 rlinecurve
-159 -7 56 -117 -11 -130 -64 -80 rlinecurve
endchar
                </CharString>
                <CharString name="servicemark">
                    316 68 184 -20 20 120 -64 64 -64 67 hstemhm
43 73 57 74 45 13 callsubr
hintmask 1100111110000000
419 383 rmoveto
28 hlineto
hintmask 1010011110000000
54 185 rlineto
2 -250 72 hlineto
hintmask 1101011110000000
370 -79 vlineto
-19 callsubr
-322 -184 rmoveto
-68 vlineto
147 -4 57 59 56 vvcurveto
hintmask 1100111110000000
84 -131 31 48 vvcurveto
26 31 12 84 -4 vhcurveto
-3 67 rlineto
-136 7 -49 -65 -50 -82 130 -30 -47 vvcurveto
hintmask 1101011110000000
-27 -37 -19 -93 6 vhcurveto
endchar
                </CharString>
                <CharString name="seven">
                    13 -21 34 -21 574 109 hstemhm
91 462 hintmask 10110000
282 -8 rmoveto
67 199 92 201 112 191 rrcurveto
105 -454 vlineto
-8 -109 rlineto
338 hlineto
3 -6 rlineto
hintmask 01110000
-114 -185 -93 -190 -67 -193 rrcurveto
endchar
                </CharString>
                <CharString name="seven.den">
                    121 -42 callsubr
-241 rmoveto
hintmask 10100000
-88 callgsubr
endchar
                </CharString>
                <CharString name="seven.inf">
                    187 -42 callsubr
-175 rmoveto
hintmask 10100000
-88 callgsubr
endchar
                </CharString>
                <CharString name="seven.num">
                    826 -42 callsubr
464 rmoveto
hintmask 10100000
-88 callgsubr
endchar
                </CharString>
                <CharString name="seven.small">
                    13 -21 31 -21 352 84 hstemhm
145 348 -100 100 hintmask 10110000
296 -8 rmoveto
hintmask 01101000
-88 callgsubr
endchar
                </CharString>
                <CharString name="seven.sup">
                    715 -42 callsubr
353 rmoveto
hintmask 10100000
-88 callgsubr
endchar
                </CharString>
                <CharString name="seveneighths">
                    -48 callgsubr
83 79 448 84 -56 callsubr
hintmask 1011110101000000
296 464 rmoveto
-88 callgsubr
-120 -175 -73 callsubr
hintmask 1011111001000000
229 -622 rmoveto
-72 callgsubr
hintmask 1011110110000000
-82 callsubr
vhcurveto
hintmask 1101110101000000
-43 callgsubr
hintmask 1011111001000000
-49 callsubr
hintmask 1011110110000000
-91 callgsubr
hintmask 1011111001000000
-93 callgsubr
                </CharString>
                <CharString name="six">
                    -14 97 252 85 hstem
75 115 248 114 vstem
311 -14 rmoveto
129 112 91 146 186 -195 69 -156 -112 hvcurveto
25 97 75 76 176 71 -51 103 rcurveline
-242 -110 -109 -154 -193 vvcurveto
-176 96 -94 140 vhcurveto
11 97 rmoveto
-74 -58 58 128 hvcurveto
8 0 7 7 vvcurveto
132 83 116 -38 -125 vvcurveto
-82 -49 -46 -67 vhcurveto
endchar
                </CharString>
                <CharString name="six.den">
                    -244 -49 callgsubr
-244 -100 callsubr
                </CharString>
                <CharString name="six.inf">
                    -178 -49 callgsubr
-178 -100 callsubr
                </CharString>
                <CharString name="six.num">
                    461 77 140 20 hstem
132 92 178 91 vstem
311 461 -100 callsubr
                </CharString>
                <CharString name="six.small">
                    -11 -49 callgsubr
-11 -100 callsubr
                </CharString>
                <CharString name="six.sup">
                    350 -49 callgsubr
350 -100 callsubr
                </CharString>
                <CharString name="slash">
                    -222 1044 hstem
9 613 vstem
517 822 rmoveto
-508 -996 106 -48 507 994 rlineto
endchar
                </CharString>
                <CharString name="space">
                    endchar
                </CharString>
                <CharString name="sterling">
                    0 103 191 91 198 122 hstem
73 472 vstem
538 104 rmoveto
-276 -2 22 192 rlineto
184 hlineto
8 91 rlineto
-182 hlineto
20 172 27 22 204 4 -7 122 rcurveline
-273 -16 -66 -85 -26 -219 rrcurveto
-86 hlineto
-9 -91 rlineto
86 hlineto
-18 -193 rlineto
-73 -101 465 hlineto
endchar
                </CharString>
                <CharString name="t">
                    0 callsubr
hstem
191 122 vstem
521 -8 -76 callsubr
endchar
                </CharString>
                <CharString name="tcaron">
                    0 callsubr
hstem
191 122 108 22 callgsubr
401 660 -78 callgsubr
120 -668 -76 callsubr
endchar
                </CharString>
                <CharString name="tcommaaccent">
                    0 callsubr
hstemhm
191 122 -18 131 hintmask 11110000
521 -8 -76 callsubr
hintmask 11101000
-246 -297 -100 callgsubr
                </CharString>
                <CharString name="thorn">
                    2 callsubr
168 5 callsubr
222 122 hintmask 01110111
289 91 rmoveto
-27 -21 4 9 -24 hvcurveto
330 vlineto
20 29 33 12 31 7 callgsubr
-72 -273 rmoveto
169 vlineto
-1 11 11 0 11 hhcurveto
170 141 117 201 160 -86 103 -115 -58 -48 -25 -33 -37 hvcurveto
280 vlineto
hintmask 10111011
-9 callgsubr
-971 vlineto
endchar
                </CharString>
                <CharString name="three">
                    -14 111 485 106 hstem
421 118 vstem
109 -14 rmoveto
302 15 128 88 118 vvcurveto
78 -67 70 -183 33 vhcurveto
234 194 -8 106 rlineto
-404 -106 288 hlineto
-246 -203 rlineto
-55 vlineto
198 -24 70 -51 -51 vvcurveto
-54 -76 -33 -244 -14 vhcurveto
endchar
                </CharString>
                <CharString name="three.den">
                    -246 -48 callsubr
-246 rmoveto
-105 callgsubr
endchar
                </CharString>
                <CharString name="three.inf">
                    -180 -48 callsubr
-180 rmoveto
-105 callgsubr
endchar
                </CharString>
                <CharString name="three.num">
                    459 -48 callsubr
459 rmoveto
-105 callgsubr
endchar
                </CharString>
                <CharString name="three.small">
                    -13 -48 callsubr
-13 rmoveto
-105 callgsubr
endchar
                </CharString>
                <CharString name="three.sup">
                    348 -48 callsubr
348 rmoveto
-105 callgsubr
endchar
                </CharString>
                <CharString name="threeeighths">
                    -48 callgsubr
83 79 81 -13 callgsubr
hstemhm
134 95 -87 97 151 92 -91 94 -92 98 hintmask 1011111010100000
158 459 rmoveto
-105 callgsubr
-77 -247 -73 callsubr
hintmask 1011111100010000
229 -622 rmoveto
-72 callgsubr
hintmask 1011111011000000
-53 callsubr
hintmask 1011111011000000
-91 callgsubr
hintmask 1011111100010000
-93 callgsubr
                </CharString>
                <CharString name="threefifths">
                    -16 callsubr
81 87 283 81 -67 callgsubr
158 459 rmoveto
-105 callgsubr
-77 -247 -73 callsubr
410 -466 -106 callgsubr
endchar
                </CharString>
                <CharString name="threequarters">
                    -150 78 371 79 81 -13 callgsubr
hstemhm
-64 callsubr
-61 94 hintmask 11110100
158 459 rmoveto
hintmask 11110010
-105 callgsubr
-77 -247 -73 callsubr
hintmask 11111100
430 -529 -92 callsubr
                </CharString>
                <CharString name="tilde">
                    630 26 callgsubr
-39 -20 hstemhm
83 461 hintmask 10110000
390 630 -79 callgsubr
hintmask 01010000
-86 callgsubr
hintmask 10110000
-25 callsubr
endchar
                </CharString>
                <CharString name="tilde.cap">
                    630 26 callgsubr
-39 -20 hstemhm
83 461 hintmask 10110000
390 630 -79 callgsubr
hintmask 01010000
-86 callgsubr
hintmask 10110000
-25 callsubr
endchar
                </CharString>
                <CharString name="trademark">
                    568 -20 76 64 hstem
110 71 111 13 callsubr
vstem
181 624 rmoveto
75 64 -227 hlineto
-3 -64 rlineto
84 -306 71 hlineto
238 65 rmoveto
28 hlineto
54 185 rlineto
2 -250 72 370 -79 hlineto
-19 callsubr
endchar
                </CharString>
                <CharString name="two">
                    0 106 477 114 hstem
404 121 vstem
543 hmoveto
106 -311 vlineto
185 145 108 102 140 vvcurveto
114 -92 93 -318 -3 vhcurveto
-10 -114 rlineto
232 -3 67 -41 -79 vvcurveto
-102 -113 -100 -207 -161 vhcurveto
12 -97 rlineto
endchar
                </CharString>
                <CharString name="two.den">
                    -233 -34 callgsubr
-233 rmoveto
83 -216 vlineto
-97 callgsubr
endchar
                </CharString>
                <CharString name="two.inf">
                    -167 -34 callgsubr
-167 rmoveto
83 -216 vlineto
-97 callgsubr
endchar
                </CharString>
                <CharString name="two.num">
                    472 83 281 85 hstem
374 98 vstem
-53 callgsubr
endchar
                </CharString>
                <CharString name="two.small">
                    0 -34 callgsubr
hmoveto
83 -216 vlineto
-97 callgsubr
endchar
                </CharString>
                <CharString name="two.sup">
                    361 -34 callgsubr
361 rmoveto
83 -216 vlineto
-97 callgsubr
endchar
                </CharString>
                <CharString name="twofifths">
                    -16 callsubr
94 83 281 85 hstemhm
171.5 84 118.5 98 -80 92 hintmask 01111110
-61 callgsubr
hintmask 11111101
410 -466 -106 callgsubr
endchar
                </CharString>
                <CharString name="twothirds">
                    -246 -13 callgsubr
94 79 94 83 281 85 hstemhm
374 98 -81 94 hintmask 11111100
-61 callgsubr
84 -624 rmoveto
hintmask 11111010
-105 callgsubr
endchar
                </CharString>
                <CharString name="u">
                    -76 callgsubr
-54 callsubr
hintmask 01000111
427 -3 rmoveto
hintmask 00101011
114 7 rlineto
-7 126 -2 174 248 vvcurveto
-123 hlineto
hintmask 10000111
-90 callsubr
hintmask 10010011
-88 callsubr
                </CharString>
                <CharString name="uacute">
                    -76 callgsubr
246 -20 -54 callsubr
hintmask 0010011110000000
184 678 -107 callgsubr
hintmask 0100011110000000
243 -681 -94 callsubr
                </CharString>
                <CharString name="ubreve">
                    -76 callgsubr
94 98 -54 callsubr
hintmask 0010011110000000
317 630 -104 callgsubr
hintmask 0100011110000000
110 -633 -94 callsubr
                </CharString>
                <CharString name="ucircumflex">
                    -76 callgsubr
149 -20 33 -20 -54 callsubr
hintmask 0010010111000000
446 626 rmoveto
75 72 -204 -70 callsubr
-7 hlineto
hintmask 0010011011000000
-202 -169 rlineto
hintmask 0100010111000000
59 -58 138 113 rlineto
122 -743 rmoveto
hintmask 0010100111000000
114 7 rlineto
-7 126 -2 174 248 vvcurveto
-123 hlineto
hintmask 1000010111000000
-90 callsubr
hintmask 1001000111000000
-88 callsubr
                </CharString>
                <CharString name="udieresis">
                    -76 callgsubr
103 156 -9 callsubr
-77.5 -75 callsubr
-94 123 hintmask 0010011011000000
501 639 -103 callgsubr
hintmask 0100011100100000
296 -642 rmoveto
hintmask 0010101100100000
114 7 rlineto
-7 126 -2 174 248 vvcurveto
-123 hlineto
hintmask 1000011100100000
-90 callsubr
hintmask 1001001100100000
-88 callsubr
                </CharString>
                <CharString name="ugrave">
                    -76 callgsubr
-54 callsubr
hintmask 00100111
441 674 -99 callsubr
hintmask 01000111
21 -624 rmoveto
hintmask 00101011
114 7 rlineto
-7 126 -2 174 248 vvcurveto
-123 hlineto
hintmask 10000111
-90 callsubr
hintmask 10010011
-88 callsubr
                </CharString>
                <CharString name="uhungarumlaut">
                    -76 callgsubr
-54 callsubr
hintmask 00100111
137 666 -95 callsubr
hintmask 01000111
56 -667 rmoveto
hintmask 00101011
114 7 rlineto
-7 126 -2 174 248 vvcurveto
-123 hlineto
hintmask 10000111
-90 callsubr
hintmask 10010011
-88 callsubr
                </CharString>
                <CharString name="umacron">
                    -76 callgsubr
130 105 -54 callsubr
hintmask 0010011110000000
508 771 -63 callgsubr
hintmask 0100011110000000
-81 -669 -94 callsubr
                </CharString>
                <CharString name="underscore">
                    -155 99 hstem
42 540 vstem
582 -56 rmoveto
-540 -99 540 hlineto
endchar
                </CharString>
                <CharString name="underscore.alt">
                    -155 99 hstem
-4 633 vstem
629 -56 rmoveto
-633 -99 633 hlineto
endchar
                </CharString>
                <CharString name="uni00A0">
                    endchar
                </CharString>
                <CharString name="uogonek">
                    -245 97 134 104 -65 -21 545 -14 callgsubr
-9 callsubr
81 116 3 123 hintmask 1010011100000000
517 -245 rmoveto
11 97 rlineto
-89 7 -33 17 25 vvcurveto
25 31 32 104 46 vhcurveto
hintmask 1100101010000000
-7 126 -2 174 248 vvcurveto
-123 hlineto
-166 1 -135 3 -99 vhcurveto
-38 -35 -36 -24 -43 hhcurveto
-56 -34 31 99 hvcurveto
hintmask 1010011010000000
336 vlineto
hintmask 1101001010000000
-123 -7 rlineto
-373 vlineto
-135 60 -55 96 70 61 45 52 45 vhcurveto
8 -73 rlineto
hintmask 1010011100000000
-96 -52 -40 -45 -45 vvcurveto
-59 62 -46 165 -8 vhcurveto
endchar
                </CharString>
                <CharString name="uring">
                    -76 callgsubr
80 241 -54 callsubr
hintmask 0010011110000000
314 857 -83 callgsubr
hintmask 0100011110000000
113 -860 -94 callsubr
                </CharString>
                <CharString name="v">
                    -4 124 432 -20 25 -20 hstemhm
45 537 hintmask 10110000
319 120 rmoveto
-8 hlineto
-52 145 -47 148 -43 144 -124 -9 rcurveline
57 -182 66 -187 69 -183 rrcurveto
150 hlineto
hintmask 11010000
69 183 69 190 57 183 rrcurveto
-124 hlineto
hintmask 10110000
-42 -142 -46 -147 -51 -143 rrcurveto
endchar
                </CharString>
                <CharString name="w">
                    0 146 -125 -21 552 23 callgsubr
hintmask 01111000
399 hmoveto
-65 callgsubr
hintmask 10111000
-98 callsubr
                </CharString>
                <CharString name="wacute">
                    -37 callgsubr
246 12 callsubr
181 674 -107 callgsubr
218 -674 -8 callsubr
hintmask 10111100
-98 callsubr
                </CharString>
                <CharString name="wcircumflex">
                    -37 callgsubr
162 12 callsubr
444 622 -93 callsubr
96 -736 -8 callsubr
hintmask 10111100
-98 callsubr
                </CharString>
                <CharString name="wdieresis">
                    -37 callgsubr
103 156 20 callgsubr
-67.5 -75 callsubr
-51 115 hintmask 01110110
498 635 -103 callgsubr
271 -635 rmoveto
hintmask 01110101
-65 callgsubr
hintmask 10111001
-98 callsubr
                </CharString>
                <CharString name="wgrave">
                    0 146 -125 -21 552 23 callgsubr
hintmask 01111000
438 670 -99 callsubr
-4 -617 -8 callsubr
hintmask 10111000
-98 callsubr
                </CharString>
                <CharString name="x">
                    19 -21 23 -21 24 -21 549 3 callsubr
hstemhm
43 539 hintmask 10001100
443 -2 rmoveto
hintmask 00110100
139 5 -189 273 189 276 rlineto
-131 hlineto
-132 -205 rlineto
hintmask 01001100
-139 208 -137 -6 189 -274 -189 -275 rlineto
130 hlineto
133 204 rlineto
endchar
                </CharString>
                <CharString name="y">
                    -29 callgsubr
hstemhm
44 534 hintmask 10110000
85 -197 -37 callsubr
rrcurveto
hintmask 11010000
-75 callgsubr
hintmask 10110000
-87 callsubr
                </CharString>
                <CharString name="yacute">
                    -29 callgsubr
245 -20 hstemhm
44 534 hintmask 10111000
188 678 -107 callgsubr
-103 -875 -37 callsubr
rrcurveto
hintmask 11011000
-75 callgsubr
hintmask 10111000
-87 callsubr
                </CharString>
                <CharString name="ycircumflex">
                    -29 callgsubr
148 21 callgsubr
44 534 hintmask 10101100
450 626 rmoveto
75 72 -204 -70 callsubr
-7 hlineto
hintmask 10110100
-202 -169 rlineto
hintmask 11001100
59 -58 138 113 rlineto
-224 -937 -37 callsubr
-75 callgsubr
hintmask 10101100
-87 callsubr
                </CharString>
                <CharString name="ydieresis">
                    -29 callgsubr
102 -28 callgsubr
135.5 -75 callsubr
hintmask 10111100
505 639 -103 callgsubr
-50 -836 -37 callsubr
rrcurveto
hintmask 11011100
-75 callgsubr
hintmask 10111100
-87 callsubr
                </CharString>
                <CharString name="yen">
                    0 224 -88 88 83 88 293 3 callsubr
hstemhm
250.5 120 hintmask 01101100
549 136 rmoveto
1 88 rlineto
-181 33 hlineto
25 50 rlineto
156 88 -113 hlineto
hintmask 01110100
143 293 rlineto
-124 hlineto
-140 -323 rlineto
hintmask 01101100
-147 326 -129 -5 144 -291 rlineto
-113 -88 157 hlineto
24 -50 rlineto
-33 -181 vlineto
-1 -88 rlineto
181 hlineto
hintmask 10101100
-1 -136 rlineto
121 hlineto
hintmask 01101100
-1 136 rlineto
endchar
                </CharString>
                <CharString name="ygrave">
                    -29 callgsubr
hstemhm
44 534 hintmask 10110000
445 674 -99 callsubr
-325 -818 -37 callsubr
rrcurveto
hintmask 11010000
-75 callgsubr
hintmask 10110000
-87 callsubr
                </CharString>
                <CharString name="z">
                    -41 callgsubr
hstem
82 469 vstem
542 hmoveto
-74 callsubr
                </CharString>
                <CharString name="zacute">
                    -41 callgsubr
226 -20 hstem
82 469 vstem
184 674 -107 callgsubr
358 -674 rmoveto
-74 callsubr
                </CharString>
                <CharString name="zcaron">
                    -41 callgsubr
232 -20 hstem
82 469 vstem
326 615 -101 callgsubr
224 -615 rmoveto
-74 callsubr
                </CharString>
                <CharString name="zdotaccent">
                    -41 callgsubr
83 156 hstem
255 -50 callgsubr
vstem
380 635 -80 callgsubr
289 -635 rmoveto
-74 callsubr
                </CharString>
                <CharString name="zero">
                    -57 callsubr
-126 369 rmoveto
158 44 90 90 65 41 -56 -92 18 vhcurveto
-257 -134 rlineto
-1 11 0 11 12 vvcurveto
135 -270 rmoveto
-64 -41 54 90 -19 hvcurveto
257 133 rlineto
-9 0 -9 -10 vvcurveto
-158 -43 -91 -90 vhcurveto
endchar
                </CharString>
                <CharString name="zero.alt">
                    -57 callsubr
8 617 rmoveto
90 44 -106 -163 -158 -43 -91 -90 -90 -45 106 164 158 44 90 90 hvcurveto
endchar
                </CharString>
                <CharString name="zero.den">
                    -244 -58 callsubr
-244 -92 callgsubr
                </CharString>
                <CharString name="zero.inf">
                    -178 -58 callsubr
-178 -92 callgsubr
                </CharString>
                <CharString name="zero.num">
                    461 -58 callsubr
461 -92 callgsubr
                </CharString>
                <CharString name="zero.small">
                    -11 -58 callsubr
-11 -92 callgsubr
                </CharString>
                <CharString name="zero.sup">
                    350 -58 callsubr
350 -92 callgsubr
                </CharString>
                <CharString name="less_exclam_hyphen_hyphen.liga">
                    -26 707 -681 145 133 105 hstemhm
-1780 112 692 81 143 1246 hintmask 00111100
-895 271 rmoveto
2 50 41 378 2 53 rrcurveto
-157 hlineto
1 -53 30 -378 -50 vvcurveto
hintmask 10011100
-436 410 rmoveto
-368 -302 rlineto
-103 vlineto
367 -302 69 87 rlineto
hintmask 00111100
-269 217 rlineto
487 hlineto
10 105 rlineto
-491 hlineto
261 211 rlineto
594 -316 rmoveto
1236 hlineto
10 105 rlineto
-1246 hlineto
hintmask 01111100
-112 -383 rmoveto
4 145 rlineto
-159 hlineto
-4 -145 rlineto
endchar
                </CharString>
                <CharString name="equal_equal_equal.liga">
                    38 104 140 104 140 104 hstem
-1163 1701 vstem
538 630 rmoveto
-1701 -104 1701 hlineto
-140 vmoveto
-1701 -104 1701 hlineto
-140 vmoveto
-1701 -104 1701 hlineto
endchar
                </CharString>
                <CharString name="equal_equal_greater.liga">
                    -27 707 -520 104 140 104 hstemhm
-1163 1695 hintmask 10010000
99 592 rmoveto
hintmask 00110000
105 -84 rlineto
-1367 -104 1497 hlineto
87 -70 rlineto
-12 vlineto
hintmask 01010000
-72 -58 rlineto
-1512 -104 1383 hlineto
-124 -100 rlineto
hintmask 10010000
66 -87 370 304 rlineto
103 vlineto
-364 300 rlineto
endchar
                </CharString>
                <CharString name="equal_less_less.liga">
                    -26 707 -521 104 140 104 hstemhm
-1163 1694 hintmask 01110000
109 594 rmoveto
hintmask 10010000
-66 87 rlineto
hintmask 01110000
-211 -173 rlineto
-995 -104 868 hlineto
-30 -25 rlineto
-103 vlineto
15 -12 rlineto
-853 -104 979 hlineto
hintmask 10010000
226 -186 69 87 -324 261 rlineto
12 vlineto
420 hmoveto
322 260 -66 87 -368 -302 rlineto
-103 vlineto
367 -302 69 87 -324 261 rlineto
endchar
                </CharString>
                <CharString name="exclam_equal_equal.liga">
                    -222 1044 -784 104 140 104 140 104 hstemhm
-1163 1701 -1157 613 hintmask 01111000
538 630 rmoveto
-616 hlineto
hintmask 01110100
72 142 rlineto
hintmask 10000100
-105 50 rlineto
hintmask 01110100
-98 -192 rlineto
-954 -104 901 hlineto
-71 -140 rlineto
-830 -104 777 hlineto
-72 -140 rlineto
-705 -104 652 hlineto
-108 -212 rlineto
hintmask 10000100
106 -48 rlineto
hintmask 01110100
133 260 rlineto
918 104 -865 hlineto
71 140 rlineto
794 104 -741 hlineto
72 140 rlineto
669 hlineto
endchar
                </CharString>
                <CharString name="greater_equal_greater.liga">
                    -27 707 -520 104 140 104 hstemhm
-1154 1686 hintmask 10010000
99 592 rmoveto
hintmask 00110000
105 -84 rlineto
-1077 hlineto
hintmask 10010000
-209 172 -69 -88 322 -258 rlineto
-12 vlineto
-325 -262 66 -87 rlineto
hintmask 01010000
228 187 rlineto
1080 hlineto
-124 -100 rlineto
hintmask 10010000
66 -87 370 304 rlineto
103 vlineto
-364 300 rlineto
hintmask 01010000
181 -416 rmoveto
-1083 hlineto
16 13 rlineto
103 vlineto
hintmask 00110000
-29 24 rlineto
1081 hlineto
87 -70 rlineto
-12 vlineto
endchar
                </CharString>
                <CharString name="greater_greater_equal.liga">
                    -27 707 -520 104 140 104 hstemhm
-1154 1692 hintmask 10010000
-1082 680 rmoveto
-69 -88 322 -258 rlineto
-12 vlineto
-325 -262 66 -87 370 304 rlineto
103 vlineto
hintmask 00110000
265 128 rmoveto
hintmask 10010000
-209 172 -69 -88 322 -258 rlineto
-12 vlineto
-325 -262 66 -87 rlineto
hintmask 01010000
228 187 rlineto
978 104 -852 hlineto
16 13 rlineto
103 vlineto
hintmask 00110000
-29 24 rlineto
865 104 hlineto
endchar
                </CharString>
                <CharString name="hyphen_hyphen_greater.liga">
                    -27 707 -402 105 hstemhm
-1112 1644 hintmask 01100000
99 592 rmoveto
261 -209 rlineto
-1472 -105 1478 hlineto
-270 -218 rlineto
hintmask 10100000
66 -87 rlineto
hintmask 01100000
370 304 rlineto
103 vlineto
hintmask 10100000
-364 300 rlineto
endchar
                </CharString>
                <CharString name="less_equal_equal.liga">
                    -26 707 -521 104 140 104 hstemhm
-1155 1693 hintmask 00110000
538 404 rmoveto
104 -1366 vlineto
107 86 rlineto
hintmask 10010000
-66 87 -368 -302 rlineto
-103 vlineto
367 -302 69 87 rlineto
hintmask 01110000
-123 99 rlineto
1380 104 -1509 hlineto
-72 58 rlineto
12 vlineto
87 70 rlineto
endchar
                </CharString>
                <CharString name="less_equal_greater.liga">
                    -27 707 -520 104 140 104 hstemhm
-1155 1687 hintmask 10010000
99 592 rmoveto
hintmask 00110000
105 -84 rlineto
-1032 hlineto
107 86 rlineto
hintmask 10010000
-66 87 -368 -302 rlineto
-103 vlineto
367 -302 69 87 rlineto
hintmask 01010000
-123 99 rlineto
1062 hlineto
-124 -100 rlineto
hintmask 10010000
66 -87 370 304 rlineto
103 vlineto
-364 300 rlineto
hintmask 01010000
181 -416 rmoveto
-1320 hlineto
-72 58 rlineto
12 vlineto
hintmask 00110000
87 70 rlineto
1290 hlineto
87 -70 rlineto
-12 vlineto
endchar
                </CharString>
                <CharString name="less_equal_less.liga">
                    -26 707 -521 104 140 104 hstemhm
-1155 1686 hintmask 00110000
531 61 rmoveto
-324 261 rlineto
12 vlineto
322 260 rlineto
hintmask 10010000
-66 87 rlineto
hintmask 00110000
-211 -173 rlineto
-1080 hlineto
107 86 rlineto
hintmask 10010000
-66 87 -368 -302 rlineto
-103 vlineto
367 -302 69 87 rlineto
hintmask 01110000
-123 99 rlineto
1078 hlineto
hintmask 10010000
226 -186 rlineto
-1505 348 rmoveto
12 vlineto
hintmask 00110000
87 70 rlineto
1081 hlineto
-30 -25 rlineto
-103 vlineto
hintmask 01110000
15 -12 rlineto
-1081 hlineto
endchar
                </CharString>
                <CharString name="less_hyphen_greater.liga">
                    -26 707 -403 105 hstemhm
-1155 1687 -111 111 hintmask 10010000
168 680 rmoveto
-69 -88 rlineto
hintmask 01010000
261 -209 rlineto
-1342 hlineto
261 211 rlineto
hintmask 10010000
-66 87 rlineto
hintmask 10100000
-368 -302 rlineto
-103 vlineto
367 -302 69 87 rlineto
hintmask 01100000
-269 217 rlineto
1354 hlineto
-270 -218 rlineto
hintmask 10100000
66 -87 rlineto
hintmask 01010000
370 304 rlineto
103 vlineto
endchar
                </CharString>
                <CharString name="less_hyphen_hyphen.liga">
                    -26 707 -403 105 hstemhm
-1155 1649 hintmask 01100000
-982 383 rmoveto
261 211 rlineto
hintmask 10100000
-66 87 -368 -302 rlineto
-103 vlineto
367 -302 69 87 rlineto
hintmask 01100000
-269 217 rlineto
1472 hlineto
10 105 rlineto
endchar
                </CharString>
                <CharString name="ampersand_ampersand.liga">
                    -14 99 505 112 hstemhm
-420 117 -31 123 251 117 -31 123 hintmask 11101000
-420 148 rmoveto
-92 57 -70 113 70 70 34 77 55 vhcurveto
113 -142 237 -12 110 154 27 -34 28 -37 31 -41 100 76 rcurveline
-43 55 -39 48 -35 42 34 62 35 84 23 86 -104 12 rcurveline
-12 -57 -18 -61 -20 -53 rrcurveto
hintmask 11100100
-110 129 -53 56 46 vvcurveto
53 39 34 157 -7 vhcurveto
-8 112 rlineto
-237 5 -74 -102 -98 vvcurveto
-45 21 -43 40 -55 vhcurveto
hintmask 11101000
-87 -54 -50 -61 -9 -76 -27 33 rcurveline
34 62 35 84 23 86 -104 12 rcurveline
-12 -57 -18 -61 -20 -53 rrcurveto
hintmask 11011000
-110 129 -53 56 46 vvcurveto
53 39 34 157 -7 vhcurveto
-8 112 rlineto
-237 5 -74 -102 -98 vvcurveto
-45 21 -43 40 -55 vhcurveto
hintmask 11101000
-96 -60 -51 -68 -88 vvcurveto
117 26 rmoveto
46 25 45 51 41 vhcurveto
32 -39 39 -46 45 -56 rrcurveto
-54 -34 -38 -26 -40 hhcurveto
-53 -27 39 50 hvcurveto
460 hmoveto
46 25 45 51 41 vhcurveto
32 -39 39 -46 45 -56 rrcurveto
-54 -34 -38 -26 -40 hhcurveto
-53 -27 39 50 hvcurveto
endchar
                </CharString>
                <CharString name="bar_bar.liga">
                    -269 116 305 116 vstem
-269 787 rmoveto
-990 116 1000 vlineto
305 -10 rmoveto
-990 116 1000 vlineto
endchar
                </CharString>
                <CharString name="bar_greater.liga">
                    -203 1000 hstem
-280 622 vstem
-280 787 rmoveto
-990 116 vlineto
506 480 rlineto
103 vlineto
-506 417 rlineto
-850 vmoveto
706 vlineto
395 -319 rlineto
-12 vlineto
endchar
                </CharString>
                <CharString name="colon_equal.liga">
                    134 155 89 156 hstem
-412 825 vstem
-244 378 rmoveto
2 156 rlineto
-168 hlineto
-2 -156 rlineto
825 130 rmoveto
-551 -104 551 hlineto
-657 -270 rmoveto
2 156 rlineto
-168 hlineto
-2 -156 rlineto
825 130 rmoveto
-551 -104 551 hlineto
endchar
                </CharString>
                <CharString name="equal_equal.liga">
                    160 104 140 104 hstem
-538 1076 vstem
538 508 rmoveto
-1076 -104 1076 hlineto
-140 vmoveto
-1076 -104 1076 hlineto
endchar
                </CharString>
                <CharString name="equal_greater.liga">
                    -27 707 -520 104 140 104 hstemhm
-538 1070 hintmask 10010000
99 592 rmoveto
hintmask 00110000
105 -84 rlineto
-742 -104 872 hlineto
87 -70 rlineto
-12 vlineto
hintmask 01010000
-72 -58 rlineto
-887 -104 758 hlineto
-124 -100 rlineto
hintmask 10010000
66 -87 370 304 rlineto
103 vlineto
-364 300 rlineto
endchar
                </CharString>
                <CharString name="exclam_equal.liga">
                    -222 1044 -662 104 140 104 hstemhm
-538 1076 -844 613 hintmask 00110000
538 508 rmoveto
-366 hlineto
hintmask 00101000
135 264 rlineto
hintmask 10001000
-105 50 rlineto
hintmask 00101000
-160 -314 rlineto
-580 -104 527 hlineto
hintmask 01101000
-72 -140 rlineto
-455 -104 402 hlineto
-170 -334 rlineto
hintmask 10001000
106 -48 rlineto
hintmask 01101000
195 382 rlineto
543 104 -490 hlineto
71 140 rlineto
419 hlineto
endchar
                </CharString>
                <CharString name="greater_equal.liga">
                    -27 707 hstem
-418 805 vstem
-378 -27 rmoveto
760 304 rlineto
103 vlineto
-754 300 -39 -88 642 -258 rlineto
-12 vlineto
-655 -262 rlineto
806 122 rmoveto
-806 -322 46 -87 760 304 rlineto
endchar
                </CharString>
                <CharString name="hyphen_greater.liga">
                    -27 707 -402 105 hstemhm
-487 1019 hintmask 10100000
99 592 rmoveto
hintmask 01100000
261 -209 rlineto
-847 -105 853 hlineto
-270 -218 rlineto
hintmask 10100000
66 -87 rlineto
hintmask 01100000
370 304 rlineto
103 vlineto
hintmask 10100000
-364 300 rlineto
endchar
                </CharString>
                <CharString name="hyphen_hyphen.liga">
                    278 105 hstem
-447 356 142 356 vstem
-91 383 rmoveto
-356 -105 346 hlineto
508 105 rmoveto
-356 -105 346 hlineto
endchar
                </CharString>
                <CharString name="less_bar.liga">
                    -203 1000 hstem
-362 613 vstem
-362 379 rmoveto
-103 vlineto
497 -479 rlineto
116 1000 hlineto
-116 -10 rlineto
-385 -453 rmoveto
385 312 rlineto
-695 vlineto
-385 371 rlineto
endchar
                </CharString>
                <CharString name="less_equal.liga">
                    -27 707 hstem
-234 322 rmoveto
12 vlineto
642 258 -39 88 -754 -300 rlineto
-103 vlineto
760 -304 46 87 rlineto
-46 -287 rmoveto
46 87 -806 322 rlineto
-105 vlineto
endchar
                </CharString>
                <CharString name="less_hyphen.liga">
                    -26 707 -403 105 hstemhm
-530 1024 hintmask 01100000
-357 383 rmoveto
261 211 rlineto
hintmask 10100000
-66 87 -368 -302 rlineto
-103 vlineto
367 -302 69 87 rlineto
hintmask 01100000
-269 217 rlineto
847 hlineto
10 105 rlineto
endchar
                </CharString>
                <CharString name="less_slash.liga">
                    -222 1044 -848 707 hstemhm
-530 112 179 613 hintmask 01110000
-112 75 rmoveto
-306 247 rlineto
12 vlineto
322 260 -66 87 -368 -302 rlineto
-103 vlineto
367 -302 -76 -148 rlineto
hintmask 10110000
106 -48 507 994 -105 50 rlineto
endchar
                </CharString>
                <CharString name="plus_plus.liga">
                    279 103 hstem
-296 110 374 110 vstem
298 579 rmoveto
-110 -197 -374 197 -110 -197 -188 -103 188 -198 110 198 374 -198 110 198 186 103 -186 hlineto
endchar
                </CharString>
                <CharString name="question_question.liga">
                    0 143 496 115 hstem
-369 156 71 132 111 156 71 132 vstem
-459 639 rmoveto
263 -19 54 -34 -44 vvcurveto
-66 -178 -52 -8 -161 vhcurveto
87 -3 rlineto
15 142 216 47 125 vvcurveto
89 -97 75 -340 16 vhcurveto
458 -115 rmoveto
263 -19 54 -34 -44 vvcurveto
-66 -178 -52 -8 -161 vhcurveto
87 -3 rlineto
15 142 216 47 125 vvcurveto
89 -97 75 -340 16 vhcurveto
-238 -754 rmoveto
3 143 rlineto
-155 hlineto
-4 -143 rlineto
626 hmoveto
3 143 rlineto
-155 hlineto
-4 -143 rlineto
endchar
                </CharString>
                <CharString name="slash_greater.liga">
                    -222 1044 -849 707 hstemhm
-398 613 206 111 hintmask 01110000
215 772 rmoveto
hintmask 10110000
-105 50 -508 -996 106 -48 408 800 305 -244 rlineto
-12 vlineto
-325 -262 rlineto
hintmask 01110000
66 -87 370 304 rlineto
103 vlineto
-364 300 rlineto
endchar
                </CharString>
                <CharString name="underscore_underscore.liga">
                    -155 99 hstem
-629 1258 vstem
629 -56 rmoveto
-1258 -99 1258 hlineto
endchar
                </CharString>
                <CharString name="ampersand.spacer">
                    endchar
                </CharString>
                <CharString name="bar.spacer">
                    endchar
                </CharString>
                <CharString name="colon.spacer">
                    endchar
                </CharString>
                <CharString name="equal.spacer">
                    endchar
                </CharString>
                <CharString name="exclam.spacer">
                    endchar
                </CharString>
                <CharString name="greater.spacer">
                    endchar
                </CharString>
                <CharString name="hyphen.spacer">
                    endchar
                </CharString>
                <CharString name="less.spacer">
                    endchar
                </CharString>
                <CharString name="LIG">
                    endchar
                </CharString>
                <CharString name="percent.alt">
                    -65 73 -70 784 -545 72 162 73 169 72 hstemhm
25 78 -17 461 -336 78 54 78 108 78 hintmask 1011110111000000
152 411 rmoveto
83 54 66 96 94 -46 58 -81 -83 -54 -67 -95 -94 45 -58 82 hvcurveto
hintmask 0100010111000000
315 312 rmoveto
hintmask 0100001000000000
-381 -749 79 -36 381 747 rlineto
hintmask 1010101000000000
-390 -32 rmoveto
hintmask 1010110111000000
37 18 -33 -55 hvcurveto
hintmask 1011110111000000
-51 -17 -30 -36 -36 -19 32 56 51 16 30 37 vhcurveto
314 -718 rmoveto
83 54 66 96 94 -46 58 -81 -83 -54 -67 -95 -94 45 -58 82 hvcurveto
4 242 rmoveto
37 18 -33 -55 -51 -17 -30 -36 -36 -19 32 56 51 16 30 37 hvcurveto
endchar
                </CharString>
                <CharString name="plus.spacer">
                    endchar
                </CharString>
                <CharString name="question.spacer">
                    endchar
                </CharString>
                <CharString name="slash.spacer">
                    endchar
                </CharString>
                <CharString name="underscore.spacer">
                    endchar
                </CharString>
                <CharString name="uniE0A0">
                    -136 63 193 127 320 -20 20 64 64 64 hstemhm
0 64 0 128 0 64 128 64 0 128 0 64 hintmask 0000000000000000
hintmask 1101101010100000
512 631 rmoveto
-71 -57 -57 -71 hvcurveto
hintmask 1110101001000000
-47 26 -41 38 -22 vhcurveto
-18 vlineto
-64 -64 -64 -64 -53 -42 -11 -18 -33 vhcurveto
303 vlineto
hintmask 1110110101000000
38 22 26 41 47 vvcurveto
71 -57 57 -71 -71 -57 -57 -71 vhcurveto
hintmask 1110101001000000
-47 26 -41 38 -22 vhcurveto
-419 vlineto
hintmask 1110110101000000
-38 -22 -26 -41 -47 vvcurveto
-71 57 -57 71 71 57 57 71 34 -13 30 -21 23 vhcurveto
23 19 30 18 49 hhcurveto
128 128 128 128 hvcurveto
18 vlineto
hintmask 1110101000100000
38 22 26 41 47 vvcurveto
hintmask 1101101010100000
71 -57 57 -71 vhcurveto
hintmask 1110110110100000
-384 63 rmoveto
35 29 -29 -35 -35 -29 -29 -35 -35 -29 29 35 35 29 29 35 hvcurveto
384 -256 rmoveto
hintmask 1101101010100000
-35 -29 29 35 35 29 29 35 35 29 -29 -35 hvcurveto
hintmask 1110110110100000
-35 -29 -29 -35 vhcurveto
hintmask 1110110101000000
-384 -512 rmoveto
-35 -29 29 35 35 29 29 35 35 29 -29 -35 -35 -29 -29 -35 hvcurveto
endchar
                </CharString>
                <CharString name="uniE0B0">
                    -205 1209 hstem
-20 692 vstem
-18 1004 rmoveto
-2 -1209 692 570 rlineto
endchar
                </CharString>
                <CharString name="uniE0B2">
                    -205 1209 hstem
-20 692 vstem
672 -205 rmoveto
-2 1209 -690 -639 rlineto
endchar
                </CharString>
            <CharString index="0">
                rmoveto
31 -54 81 31 133 68 74 59 rlinecurve
-91 93 -60 -66 -104 -88 -64 -43 rlinecurve
return
            </CharString>
            <CharString index="1">
                rmoveto
60 -57 51 -175 17 vhcurveto
7 83 rlineto
203 hlineto
9 82 rlineto
-291 hlineto
-17 -230 rlineto
166 -12 63 -22 -32 vvcurveto
-37 -63 -19 -177 -11 vhcurveto
6 -88 11 callsubr
13 102 63 82 vvcurveto
return
            </CharString>
            <CharString index="2">
                240 5 87 62 74 vvcurveto
51 -49 43 -132 22 vhcurveto
170 118 -7 76 rlineto
-308 -82 hlineto
200 2 rlineto
-4 vlineto
-164 -113 rlineto
-49 vlineto
139 -13 57 -23 -29 vvcurveto
-30 -58 -18 -182 -5 vhcurveto
return
            </CharString>
            <CharString index="3">
                rmoveto
83 78 65 105 62 hvcurveto
-70 37 rlineto
-70 -48 -40 -39 -54 hhcurveto
-51 -39 34 80 -51 hvcurveto
-85 -50 rlineto
-108 59 75 -54 81 hhcurveto
return
            </CharString>
            <CharString index="4">
                rmoveto
4 -70 callsubr
-126 hlineto
-2 -156 rlineto
-122 hmoveto
3 -70 callsubr
-126 hlineto
-1 -156 rlineto
return
            </CharString>
            <CharString index="5">
                rmoveto
hintmask 00111100
128 8 -59 229 -60 227 -68 229 rlinecurve
-176 hlineto
hintmask 01011100
-96 callgsubr
hintmask 10011100
16 -66 16 -65 15 -65 rrcurveto
hintmask 00111100
-96 callsubr
            </CharString>
            <CharString index="6">
                rmoveto
201 169 -58 59 -138 -114 -141 115 -76 -73 204 -156 rlineto
return
            </CharString>
            <CharString index="7">
                rmoveto
62 -19 63 64 30 96 -4 83 rlinecurve
-3 -142 -7 -2 hhcurveto
21 -66 3 -78 -28 -73 rrcurveto
endchar
            </CharString>
            <CharString index="8">
                8 81 rlineto
-121 374 hlineto
-94 -7 rlineto
-66 vlineto
-126 -15 3 -71 123 3 rlineto
-218 -132 -81 vlineto
return
            </CharString>
            <CharString index="9">
                314 16 76 127 201 vvcurveto
90 -1 239 -2 61 vhcurveto
17 -56 -55 10 -56 hhcurveto
-163 -136 -112 -175 -142 88 -88 115 59 48 20 27 36 hvcurveto
-3 -140 -31 -20 -245 -20 rrcurveto
184 229 rmoveto
-73 -57 52 110 102 55 53 79 30 30 -5 -10 31 hvcurveto
-83 0 -128 -67 vvcurveto
-15 -29 -33 -9 -33 hhcurveto
endchar
            </CharString>
            <CharString index="10">
                131 86 72 67 79 vvcurveto
75 -72 60 -239 -1 vhcurveto
-7 -85 rlineto
170 -6 50 -23 -46 vvcurveto
-59 -83 -59 -154 -95 vhcurveto
10 -76 rlineto
return
            </CharString>
            <CharString index="11">
                -69 -230 -60 -230 -59 -229 rrcurveto
126 hlineto
15 64 15 64 16 64 rrcurveto
204 hlineto
return
            </CharString>
            <CharString index="12">
                rmoveto
-57 -36 28 50 61 45 37 172 -18 hvcurveto
1 -46 0 -37 2 -31 rrcurveto
-27 -38 -46 -17 -43 hhcurveto
return
            </CharString>
            <CharString index="13">
                rmoveto
-72 callgsubr
hintmask 11011000
-66 callsubr
hintmask 11100100
-49 callsubr
hintmask 11011000
-91 callgsubr
hintmask 11100100
-93 callgsubr
            </CharString>
            <CharString index="14">
                73 -273 rmoveto
-56 -27 26 33 30 24 23 38 17 hvcurveto
54 -25 48 -23 -31 vvcurveto
-27 -31 -23 -50 vhcurveto
endchar
            </CharString>
            <CharString index="15">
                rmoveto
122 79 97 140 138 -67 85 -119 -122 -79 -98 -140 -137 67 -85 119 hvcurveto
6 381 rmoveto
65 33 -59 -98 -90 -30 -54 -64 -65 -33 58 99 90 29 54 65 hvcurveto
endchar
            </CharString>
            <CharString index="16">
                -64 344 rmoveto
24 26 21 48 51 26 -24 -31 -27 -23 -24 -36 -18 vhcurveto
-50 24 -42 23 32 vvcurveto
return
            </CharString>
            <CharString index="17">
                -309 194 259 93 -259 190 303 105 -430 -688 426 hlineto
endchar
            </CharString>
            <CharString index="18">
                rmoveto
-114 vlineto
331 -13 119 114 109 164 -321 46 103 vvcurveto
50 56 31 224 -16 vhcurveto
-8 114 rlineto
-285 15 -119 -108 -103 -160 322 -39 -113 vvcurveto
-57 -84 -41 -235 18 vhcurveto
return
            </CharString>
            <CharString index="19">
                48 124 68 122 81 119 rrcurveto
81 -340 vlineto
-8 -84 rlineto
247 hlineto
2 -5 -84 -114 -66 -113 -50 -120 rlinecurve
return
            </CharString>
            <CharString index="20">
                -192 460 -309 hlineto
-10 -86 195 -9 rlineto
-365 -193 -92 vlineto
return
            </CharString>
            <CharString index="21">
                -42 -52 97 -71 hhcurveto
-61 -54 -65 -92 -40 hvcurveto
64 -30 rlineto
59 29 26 28 21 hhcurveto
return
            </CharString>
            <CharString index="22">
                rmoveto
hintmask 00110111
136 17 -162 297 rlineto
64 47 48 60 87 vvcurveto
142 -107 91 -340 -44 vhcurveto
hintmask 01011011
-687 125 237 vlineto
110 3 rlineto
-110 351 rmoveto
135 18 62 -48 -91 vvcurveto
-61 -30 -48 -47 -32 vhcurveto
-120 -3 rlineto
endchar
            </CharString>
            <CharString index="23">
                109 688 -117 hlineto
5 -455 rlineto
-5 hlineto
-221 455 rlineto
-119 -688 117 hlineto
-5 460 rlineto
6 hlineto
return
            </CharString>
            <CharString index="24">
                rmoveto
-91 -58 -53 -70 -66 60 -52 89 90 59 52 70 64 -61 55 -88 hvcurveto
return
            </CharString>
            <CharString index="25">
                -13 103 158.5 74.5 144 100 return
            </CharString>
            <CharString index="26">
                228 vlineto
hintmask 11010000
218 460 rlineto
-131 hlineto
-147 -340 rlineto
hintmask 10110000
-153 343 -134 -5 219 -458 rlineto
-228 vlineto
endchar
            </CharString>
            <CharString index="27">
                rmoveto
5 -70 callsubr
-128 hlineto
-4 -156 rlineto
return
            </CharString>
            <CharString index="28">
                rmoveto
59 55 65 92 40 hvcurveto
-64 30 rlineto
-60 -30 -25 -28 -22 hhcurveto
return
            </CharString>
            <CharString index="29">
                rmoveto
55 -16 63 93 26 87 -5 103 rlinecurve
-132 -2 17 -86 3 -84 -27 -95 rlinecurve
return
            </CharString>
            <CharString index="30">
                -14 95 -64 -21 28 -21 240 77 140 104 return
            </CharString>
            <CharString index="31">
                -14 104 -72 -21 28 -21 545 -14 callgsubr
return
            </CharString>
            <CharString index="32">
                62 165 55 166 39 125 rrcurveto
-118 hlineto
-14 -37 -75 -264 -35 -106 rrcurveto
-12 hlineto
return
            </CharString>
            <CharString index="33">
                9 110 -339 -2 330 473 rlineto
107 -458 vlineto
-9 -110 330 2 -332 -473 rlineto
-107 vlineto
endchar
            </CharString>
            <CharString index="34">
                0 92 369.5 90.5 return
            </CharString>
            <CharString index="35">
                118 70 60 66 51 -50 33 -55 28 hvcurveto
return
            </CharString>
            <CharString index="36">
                7 80 -60 -1 2 143 -91 -8 1 -136 return
            </CharString>
            <CharString index="37">
                11 -21 31 -21 28 -21 231.5 89 267.5 103 -11 -20 hstemhm
97 125 return
            </CharString>
            <CharString index="38">
                -77 callsubr
hintmask 10101110
-7 63 rlineto
hintmask 10011110
-65 callsubr
hintmask 11001110
-59 callgsubr
endchar
            </CharString>
            <CharString index="39">
                rmoveto
123 51 61 75 31 27 -10 -19 21 vhcurveto
-188 -269 rlineto
-11 30 -6 38 46 vvcurveto
134 -204 rmoveto
-30 -27 10 19 -21 hvcurveto
188 268 rlineto
11 -30 6 -37 -45 vvcurveto
-124 -52 -61 -75 vhcurveto
-22 -99 rmoveto
147 -20 callsubr
185 hvcurveto
return
            </CharString>
            <CharString index="40">
                hstem
171.5 84 136.5 92 vstem
return
            </CharString>
            <CharString index="41">
                rmoveto
-99 callgsubr
endchar
            </CharString>
            <CharString index="42">
                111 hlineto
17 120 26 223 11 209 rrcurveto
-115 hlineto
return
            </CharString>
            <CharString index="43">
                -35 callgsubr
hintmask 01011100
-689 vlineto
hintmask 10011100
331 -47 149 136 268 vvcurveto
-128 -18 rmoveto
-184 -59 -80 -169 25 vhcurveto
hintmask 10101100
491 vlineto
hintmask 10011100
171 19 57 -86 -185 vvcurveto
endchar
            </CharString>
            <CharString index="44">
                rmoveto
-385 -105 385 hlineto
return
            </CharString>
            <CharString index="45">
                11 92 -8 callgsubr
-2 119 -1 92 -3 84 62 31 77 19 96 7 rrcurveto
return
            </CharString>
            <CharString index="46">
                -53 callgsubr
-73 -173 -73 callsubr
return
            </CharString>
            <CharString index="47">
                -22 callsubr
hstem
114 127 return
            </CharString>
            <CharString index="48">
                178 -2 143 -3 103 vhcurveto
23 34 36 15 44 hhcurveto
return
            </CharString>
            <CharString index="49">
                65 140 77 hstem
131 91 177 93 vstem
219 return
            </CharString>
            <CharString index="50">
                rmoveto
88 71 -181 230 185 222 -88 72 -184 -238 -6 -120 rlineto
457 -237 rmoveto
89 71 -183 229 186 223 -87 72 -185 -238 -5 -120 rlineto
endchar
            </CharString>
            <CharString index="51">
                -249 97 173 -21 hstem
180 116 vstem
399 48 rmoveto
-157 -70 -62 -58 -56 vvcurveto
-58 -10 callgsubr
11 97 rlineto
-89 8 -33 17 25 vvcurveto
24 31 32 104 46 vhcurveto
endchar
            </CharString>
            <CharString index="52">
                rmoveto
237 201 93 163 161 vvcurveto
158 -92 159 -233 200 vhcurveto
-85 -77 rlineto
214 -174 74 -135 -136 vvcurveto
-135 -72 -133 -220 -177 vhcurveto
endchar
            </CharString>
            <CharString index="53">
                -10 callsubr
217 120 return
            </CharString>
            <CharString index="54">
                485 472 rmoveto
83 -216 vlineto
-97 callgsubr
return
            </CharString>
            <CharString index="55">
                0 8 -2 3 -4 -4 -2 -3 0 hflex1
0 -9 2 -3 4 4 2 3 0 hflex1
return
            </CharString>
            <CharString index="56">
                0 167 521 -20 hstem
50 123 284 22 callgsubr
return
            </CharString>
            <CharString index="57">
                127.5 return
            </CharString>
            <CharString index="58">
                77 140 64 hstem
132 92 178 91 vstem
311 return
            </CharString>
            <CharString index="59">
                -244 71 178 -21 31 -21 151 71 return
            </CharString>
            <CharString index="60">
                hstem
71 121 241 22 callgsubr
return
            </CharString>
            <CharString index="61">
                -34 56 -69 18 -131 6 -9 -103 rcurveline
162 -7 30 -23 4 -106 rrcurveto
-156 -4 -62 -66 -116 vvcurveto
-89 47 -52 75 61 48 35 41 30 vhcurveto
return
            </CharString>
            <CharString index="62">
                -9 callgsubr
-212 vlineto
1 -8 -9 0 -8 hhcurveto
-175 -144 -116 -204 -165 86 -96 117 64 51 30 37 37 hvcurveto
endchar
            </CharString>
            <CharString index="63">
                165 -8 rlineto
-588 -171 -92 vlineto
return
            </CharString>
            <CharString index="64">
                -49 43 -34 51 -27 vhcurveto
return
            </CharString>
            <CharString index="65">
                rmoveto
198 106 -519 hlineto
-9 -106 rlineto
202 -582 128 hlineto
return
            </CharString>
            <CharString index="66">
                0 107 338.5 106.5 return
            </CharString>
            <CharString index="67">
                108 -10 -20 hstemhm
91 124 228 128 return
            </CharString>
            <CharString index="68">
                114.5 return
            </CharString>
            <CharString index="69">
                13 -21 29 -21 29 -21 229 88.5 220.5 -20 29 -20 243 11 callgsubr
104 123 return
            </CharString>
            <CharString index="70">
                0 146 -125 -21 552 -20 return
            </CharString>
            <CharString index="71">
                21 -21 462 105 21 callsubr
return
            </CharString>
            <CharString index="72">
                rmoveto
270 -127 108 -353 -46 vhcurveto
return
            </CharString>
            <CharString index="73">
                83 281 85 hstem
374 98 vstem
485 return
            </CharString>
            <CharString index="74">
                -103 callgsubr
hintmask 11110010
return
            </CharString>
            <CharString index="75">
                -7 111 -87 -21 581 121 20 callsubr
hintmask 10110000
return
            </CharString>
            <CharString index="76">
                -215 -373 rmoveto
-35 -20 26 49 54 27 32 78 -3 hvcurveto
-46 3 -42 11 -35 vhcurveto
-22 -16 -23 -13 -25 hhcurveto
return
            </CharString>
            <CharString index="77">
                138 16 -211 346 195 334 rlineto
-135 hlineto
-160 -288 rlineto
-62 288 -127 hlineto
return
            </CharString>
            <CharString index="78">
                -176 -21 749 -20 25 -20 return
            </CharString>
            <CharString index="79">
                156 hstemhm
return
            </CharString>
            <CharString index="80">
                84 -39 callgsubr
228 -39 callgsubr
return
            </CharString>
            <CharString index="81">
                rmoveto
82 86 -244 212 250 212 -81 86 -260 -239 -8 -120 rlineto
endchar
            </CharString>
            <CharString index="82">
                -171 92 -129 344 29 vhcurveto
return
            </CharString>
            <CharString index="83">
                -14 101 -69 -21 27 -21 459 105 19 callgsubr
61 122 222 123 return
            </CharString>
            <CharString index="84">
                662 105 hstem
120 385 vstem
505 767 -63 callgsubr
endchar
            </CharString>
            <CharString index="85">
                0 109 470 109 hstem
77 478 vstem
return
            </CharString>
            <CharString index="86">
                hstem
249 26 callsubr
return
            </CharString>
            <CharString index="87">
                88 281 82 return
            </CharString>
            <CharString index="88">
                87 hstemhm
248 109 -109 117 -22 123 -116 118 hintmask 10001000
119 return
            </CharString>
            <CharString index="89">
                hstemhm
158 119 -117 123 -22 117 -109 109 hintmask 10100000
504 return
            </CharString>
            <CharString index="90">
                rmoveto
-63 19 -63 -64 -30 -95 5 -83 rlinecurve
147 6 -22 67 -3 77 29 73 rlinecurve
return
            </CharString>
            <CharString index="91">
                6 rlineto
-7 122 -2 171 258 vvcurveto
return
            </CharString>
            <CharString index="92">
                -8 105 -80 -21 448 117 return
            </CharString>
            <CharString index="93">
                3 callsubr
24 -20 return
            </CharString>
            <CharString index="94">
                87 283 81 return
            </CharString>
            <CharString index="95">
                -8 95 -94 101 152.5 73.5 135 103 -98 101 return
            </CharString>
            <CharString index="96">
                rmoveto
368 hlineto
11 98 rlineto
-261 778 255 98 -373 hlineto
endchar
            </CharString>
            <CharString index="97">
                62 -47 165 -8 vhcurveto
return
            </CharString>
            <CharString index="98">
                -123 -11 rlineto
return
            </CharString>
            <CharString index="99">
                rlineto
-169 hlineto
return
            </CharString>
            <CharString index="100">
                -1 86 -110 45 46 vvcurveto
29 39 21 126 12 vhcurveto
5 87 rlineto
return
            </CharString>
            <CharString index="101">
                0 92 369 91 22 -20 return
            </CharString>
            <CharString index="102">
                13 -21 29 -21 29 -21 288 104 288 -20 hstemhm
93 127 return
            </CharString>
            <CharString index="103">
                -126 9 -48 -81 -50 -75 -56 -73 rlinecurve
-67 -1 rlineto
464 vlineto
return
            </CharString>
            <CharString index="104">
                0 106 77 93 24 3 callgsubr
hstemhm
294 105 hintmask 10111000
return
            </CharString>
            <CharString index="105">
                550 hmoveto
-41 callsubr
return
            </CharString>
            <CharString index="106">
                rmoveto
2 -70 callsubr
-168 hlineto
-2 -156 rlineto
hintmask 11100000
return
            </CharString>
            <CharString index="107">
                hstemhm
107 127 169 128 return
            </CharString>
            <CharString index="108">
                -246 -20 callgsubr
return
            </CharString>
            <CharString index="109">
                -13 callgsubr
hstem
return
            </CharString>
            <CharString index="110">
                93 190 105 return
            </CharString>
            <CharString index="111">
                rmoveto
-71 callgsubr
return
            </CharString>
            <CharString index="112">
                10 hlineto
0 6 -1 3 -4 -3 -2 -2 0 hflex1
return
            </CharString>
            <CharString index="113">
                70 -47 39 56 rlineto
-20 34 39 -10 44 hhcurveto
endchar
            </CharString>
            <CharString index="114">
                hhcurveto
75 54 -65 -127 -122 -65 -61 -85 hvcurveto
return
            </CharString>
            <CharString index="115">
                110 92 -96 -176 -176 -88 -96 -116 return
            </CharString>
            <CharString index="116">
                hintmask 100000000000000000000000000000001000000000000000
return
            </CharString>
            <CharString index="117">
                hstem
87 451 vstem
538 return
            </CharString>
            <CharString index="118">
                -20 31 -20 hstemhm
return
            </CharString>
            <CharString index="119">
                -21 25 -21 return
            </CharString>
            <CharString index="120">
                rmoveto
hintmask 10000100
261 83 89 81 -1 79 rrcurveto
return
            </CharString>
            <CharString index="121">
                21 -21 582 106 hstem
249 128 vstem
return
            </CharString>
            <CharString index="122">
                -20 10 callsubr
return
            </CharString>
            <CharString index="123">
                123 rlineto
-128 hlineto
-2 -123 rlineto
return
            </CharString>
            <CharString index="124">
                -36 callgsubr
hstemhm
return
            </CharString>
            <CharString index="125">
                -136 -206 vhcurveto
69 4 rmoveto
174 return
            </CharString>
            <CharString index="126">
                211 11 callgsubr
return
            </CharString>
            <CharString index="127">
                hstemhm
61 135 return
            </CharString>
            <CharString index="128">
                -20 33 -20 hstemhm
return
            </CharString>
            <CharString index="129">
                119 vstem
return
            </CharString>
            <CharString index="130">
                -20 20 callgsubr
253 115 return
            </CharString>
            <CharString index="131">
                hstem
64 121 225 123 vstem
return
            </CharString>
            <CharString index="132">
                rlineto
hintmask 11010000
return
            </CharString>
            <CharString index="133">
                99 -3 100 return
            </CharString>
            <CharString index="134">
                -20 hstemhm
215 121 hintmask 11011000
return
            </CharString>
</ttFont>
